SplineFontDB: 3.0
FontName: DraftingMono-Italic
FullName: Drafting Mono
FamilyName: Drafting Mono
Weight: Regular
Copyright: Copyright (c) 2020, Owen Earl,,,
UComments: "2020-4-23: Created with FontForge (http://fontforge.org)"
Version: 001.100
ItalicAngle: -10
UnderlinePosition: -200
UnderlineWidth: 100
Ascent: 1600
Descent: 400
InvalidEm: 0
LayerCount: 2
Layer: 0 0 "Back" 1
Layer: 1 0 "Fore" 0
XUID: [1021 573 -282620711 7962162]
StyleMap: 0x0000
FSType: 0
OS2Version: 0
OS2_WeightWidthSlopeOnly: 0
OS2_UseTypoMetrics: 1
CreationTime: 1587664909
ModificationTime: 1647275522
PfmFamily: 17
TTFWeight: 400
TTFWidth: 5
LineGap: 180
VLineGap: 0
OS2TypoAscent: 1600
OS2TypoAOffset: 0
OS2TypoDescent: -400
OS2TypoDOffset: 0
OS2TypoLinegap: 180
OS2WinAscent: 1835
OS2WinAOffset: 0
OS2WinDescent: 625
OS2WinDOffset: 0
HheadAscent: 1835
HheadAOffset: 0
HheadDescent: -625
HheadDOffset: 0
OS2Vendor: 'it* '
Lookup: 1 0 0 "'ss02' Style Set 2 lookup 6" { "'ss02' Style Set 2 lookup 6-1"  } ['ss02' ('DFLT' <'dflt' > 'grek' <'dflt' > 'latn' <'dflt' > ) ]
Lookup: 1 0 0 "'smcp' Lowercase to Small Capitals in Latin lookup 0" { "'smcp' Lowercase to Small Capitals in Latin lookup 0 subtable"  } ['smcp' ('latn' <'dflt' > ) ]
Lookup: 1 0 0 "'c2sc' Capitals to Small Capitals in Latin lookup 0" { "'c2sc' Capitals to Small Capitals in Latin lookup 0 subtable"  } ['c2sc' ('latn' <'dflt' > ) ]
Lookup: 1 0 0 "'ss01' Style Set 1 in Latin lookup 0" { "'ss01' Style Set 1 in Latin lookup 0-1"  } ['ss01' ('DFLT' <'dflt' > 'latn' <'dflt' > ) ]
Lookup: 6 0 0 "'calt' Contextual Alternates in Latin lookup 1" { "'calt' Contextual Alternates in Latin lookup 1-1"  } ['calt' ('DFLT' <'dflt' > 'latn' <'dflt' > ) ]
MarkAttachClasses: 1
DEI: 91125
ChainSub2: class "'calt' Contextual Alternates in Latin lookup 1-1" 4 4 4 2
  Class: 25 H J K M N T U V W X Y d f
  Class: 1 b
  Class: 1 h
  BClass: 25 H J K M N T U V W X Y d f
  BClass: 1 b
  BClass: 1 h
  FClass: 25 H J K M N T U V W X Y d f
  FClass: 1 b
  FClass: 1 h

StartChar: A
Encoding: 65 65 0
Width: 1200
Flags: HMW
AnchorPoint: "Anchor-0" 748 1300 basechar 0
AnchorPoint: "Anchor-2" 519 0 basechar 0
AnchorPoint: "Anchor-3" 965 -20 basechar 0
LayerCount: 2
Back
SplineSet
329 130 m 1
 479 130 l 1
 479 0 l 1
 30 0 l 1
 30 130 l 1
 177 130 l 1
 510 1320 l 1
 690 1320 l 1
 1023 130 l 1
 1170 130 l 1
 1170 0 l 1
 721 0 l 1
 721 130 l 1
 871 130 l 1
 580 1250 l 1
 620 1250 l 1
 329 130 l 1
349 500 m 1
 852 500 l 1
 852 370 l 1
 349 370 l 1
 349 500 l 1
EndSplineSet
Fore
SplineSet
380 1300 m 1
 679 1300 l 1
 660 1190 l 1
 357 1170 l 1
 380 1300 l 1
160 -20 m 5
 -17 -20 l 1
 679 1300 l 1
 879 1300 l 1
 1049 -20 l 1
 882 -20 l 5
 752 1230 l 5
 792 1230 l 5
 160 -20 l 5
327 500 m 1
 890 500 l 1
 867 370 l 1
 304 370 l 1
 327 500 l 1
EndSplineSet
Substitution2: "'c2sc' Capitals to Small Capitals in Latin lookup 0 subtable" a.sc
EndChar

StartChar: B
Encoding: 66 66 1
Width: 1200
Flags: HMW
AnchorPoint: "Anchor-2" 506 0 basechar 0
AnchorPoint: "Anchor-0" 663 1300 basechar 0
LayerCount: 2
Fore
SplineSet
376 1170 m 1
 206 1170 l 1
 229 1300 l 1
 721 1300 l 2
 1027 1300 1162 1166 1126 960 c 4
 1084 724 897 670 610 670 c 1
 684 690 l 1
 990 690 1125 586 1083 350 c 0
 1045 134 849 0 562 0 c 2
 0 0 l 1
 23 130 l 1
 193 130 l 1
 376 1170 l 1
352 130 m 1
 585 130 l 2
 793 130 893 242 915 365 c 0
 938 498 888 610 670 610 c 2
 437 610 l 1
 352 130 l 1
622 740 m 2
 810 740 927 827 949 950 c 0
 972 1083 906 1170 698 1170 c 2
 535 1170 l 1
 459 740 l 1
 622 740 l 2
EndSplineSet
Substitution2: "'c2sc' Capitals to Small Capitals in Latin lookup 0 subtable" b.sc
EndChar

StartChar: C
Encoding: 67 67 2
Width: 1200
Flags: HMW
AnchorPoint: "Anchor-3" 526 0 basechar 0
AnchorPoint: "Anchor-2" 527 0 basechar 0
AnchorPoint: "Anchor-0" 795 1300 basechar 0
LayerCount: 2
Fore
SplineSet
915 380 m 1
 1060 350 l 1
 975 154 802 -20 515 -20 c 0
 219 -20 78 244 155 680 c 0
 230 1106 485 1320 732 1320 c 0
 1009 1320 1053 1106 1037 900 c 1
 986 950 l 1
 1076 1300 l 1
 1206 1300 l 1
 1130 870 l 1
 971 870 l 1
 955 1063 905 1180 747 1180 c 0
 569 1180 381 1023 315 650 c 0
 247 267 374 130 572 130 c 0
 760 130 853 256 915 380 c 1
EndSplineSet
Substitution2: "'c2sc' Capitals to Small Capitals in Latin lookup 0 subtable" c.sc
EndChar

StartChar: D
Encoding: 68 68 3
Width: 1200
Flags: HMW
AnchorPoint: "Anchor-2" 433 0 basechar 0
AnchorPoint: "Anchor-0" 663 1300 basechar 0
LayerCount: 2
Fore
SplineSet
-40 0 m 1
 -17 130 l 1
 153 130 l 1
 336 1170 l 1
 166 1170 l 1
 189 1300 l 1
 701 1300 l 2
 1037 1300 1202 1006 1136 630 c 4
 1071 264 789 0 472 0 c 2
 -40 0 l 1
312 130 m 1
 455 130 l 2
 693 130 909 327 966 650 c 0
 1025 983 896 1170 638 1170 c 2
 495 1170 l 1
 312 130 l 1
EndSplineSet
Substitution2: "'c2sc' Capitals to Small Capitals in Latin lookup 0 subtable" d.sc
EndChar

StartChar: E
Encoding: 69 69 4
Width: 1200
Flags: HMW
AnchorPoint: "Anchor-3" 876 0 basechar 0
AnchorPoint: "Anchor-2" 466 0 basechar 0
AnchorPoint: "Anchor-0" 723 1300 basechar 0
LayerCount: 2
Fore
SplineSet
831 740 m 1
 808 605 l 1
 447 615 l 1
 362 130 l 1
 851 130 l 1
 940 450 l 1
 1059 450 l 1
 980 0 l 1
 -10 0 l 1
 13 130 l 1
 193 130 l 1
 376 1170 l 1
 196 1170 l 1
 219 1300 l 1
 1169 1300 l 1
 1139 900 l 1
 1020 900 l 1
 997 1170 l 1
 545 1170 l 1
 468 730 l 1
 831 740 l 1
EndSplineSet
Substitution2: "'c2sc' Capitals to Small Capitals in Latin lookup 0 subtable" e.sc
EndChar

StartChar: F
Encoding: 70 70 5
Width: 1200
Flags: HMW
AnchorPoint: "Anchor-2" 296 0 basechar 0
AnchorPoint: "Anchor-0" 753 1300 basechar 0
LayerCount: 2
Fore
SplineSet
856 710 m 1
 832 575 l 1
 462 585 l 1
 382 130 l 1
 642 130 l 1
 619 0 l 1
 20 0 l 1
 43 130 l 1
 213 130 l 1
 396 1170 l 1
 226 1170 l 1
 249 1300 l 1
 1199 1300 l 1
 1162 860 l 1
 1043 860 l 1
 1027 1170 l 1
 565 1170 l 1
 482 700 l 1
 856 710 l 1
EndSplineSet
Substitution2: "'c2sc' Capitals to Small Capitals in Latin lookup 0 subtable" f.sc
EndChar

StartChar: G
Encoding: 71 71 6
Width: 1200
Flags: HMW
AnchorPoint: "Anchor-2" 557 0 basechar 0
AnchorPoint: "Anchor-0" 835 1300 basechar 0
LayerCount: 2
Fore
SplineSet
906 500 m 1
 986 440 l 1
 928 224 782 -20 495 -20 c 0
 199 -20 58 244 135 680 c 4
 210 1106 465 1320 712 1320 c 0
 989 1320 1033 1106 1017 900 c 1
 966 950 l 1
 1056 1300 l 1
 1186 1300 l 1
 1110 870 l 1
 951 870 l 1
 935 1063 885 1180 727 1180 c 0
 549 1180 371 1023 305 650 c 0
 237 267 362 120 540 120 c 0
 708 120 856 216 906 500 c 1
646 620 m 1
 1086 620 l 1
 977 0 l 1
 867 0 l 1
 906 500 l 1
 625 500 l 1
 646 620 l 1
EndSplineSet
Substitution2: "'c2sc' Capitals to Small Capitals in Latin lookup 0 subtable" g.sc
EndChar

StartChar: H
Encoding: 72 72 7
Width: 1200
Flags: HMW
AnchorPoint: "Anchor-2" 516 0 basechar 0
AnchorPoint: "Anchor-0" 745 1300 basechar 0
LayerCount: 2
Fore
SplineSet
879 610 m 5
 377 610 l 5
 292 130 l 5
 451 130 l 5
 428 0 l 5
 -40 0 l 5
 -17 130 l 5
 133 130 l 5
 316 1170 l 5
 166 1170 l 5
 189 1300 l 5
 657 1300 l 5
 634 1170 l 5
 475 1170 l 5
 399 740 l 5
 901 740 l 5
 977 1170 l 5
 818 1170 l 5
 841 1300 l 5
 1309 1300 l 5
 1286 1170 l 5
 1136 1170 l 5
 953 130 l 5
 1103 130 l 5
 1080 0 l 5
 612 0 l 5
 635 130 l 5
 794 130 l 5
 879 610 l 5
EndSplineSet
Substitution2: "'c2sc' Capitals to Small Capitals in Latin lookup 0 subtable" h.sc
EndChar

StartChar: I
Encoding: 73 73 8
Width: 1200
Flags: HMW
AnchorPoint: "Anchor-3" 522 0 basechar 0
AnchorPoint: "Anchor-2" 522 0 basechar 0
AnchorPoint: "Anchor-0" 735 1300 basechar 0
LayerCount: 2
Fore
SplineSet
70 0 m 1
 93 130 l 1
 458 130 l 1
 641 1170 l 1
 286 1170 l 1
 309 1300 l 1
 1189 1300 l 1
 1166 1170 l 1
 811 1170 l 1
 628 130 l 1
 993 130 l 1
 970 0 l 1
 70 0 l 1
EndSplineSet
Substitution2: "'c2sc' Capitals to Small Capitals in Latin lookup 0 subtable" i.sc
EndChar

StartChar: J
Encoding: 74 74 9
Width: 1200
Flags: HMW
AnchorPoint: "Anchor-2" 418 0 basechar 0
AnchorPoint: "Anchor-0" 915 1300 basechar 0
LayerCount: 2
Fore
SplineSet
82 350 m 1
 242 350 l 1
 239 217 298 124 436 124 c 0
 584 124 717 217 755 430 c 2
 886 1170 l 1
 667 1170 l 1
 690 1300 l 1
 1259 1300 l 1
 1236 1170 l 1
 1046 1170 l 1
 915 430 l 2
 870 174 711 -20 445 -20 c 4
 199 -20 56 144 82 350 c 1
EndSplineSet
Substitution2: "'c2sc' Capitals to Small Capitals in Latin lookup 0 subtable" j.sc
EndChar

StartChar: K
Encoding: 75 75 10
Width: 1200
Flags: HMW
AnchorPoint: "Anchor-2" 581 0 basechar 0
AnchorPoint: "Anchor-0" 775 1300 basechar 0
LayerCount: 2
Fore
SplineSet
568 668 m 5
 677 770 l 1
 968 130 l 1
 1123 130 l 1
 1100 0 l 1
 631 0 l 1
 654 130 l 1
 803 130 l 5
 568 668 l 5
810 1300 m 1
 1289 1300 l 1
 1266 1170 l 1
 1098 1170 l 1
 371 460 l 1
 313 130 l 1
 472 130 l 1
 449 0 l 1
 -10 0 l 1
 13 130 l 1
 163 130 l 1
 346 1170 l 1
 196 1170 l 1
 219 1300 l 1
 658 1300 l 1
 635 1170 l 1
 496 1170 l 1
 402 649 l 1
 908 1170 l 1
 787 1170 l 1
 810 1300 l 1
EndSplineSet
Substitution2: "'c2sc' Capitals to Small Capitals in Latin lookup 0 subtable" k.sc
EndChar

StartChar: L
Encoding: 76 76 11
Width: 1200
Flags: HMW
AnchorPoint: "Anchor-2" 536 0 basechar 0
AnchorPoint: "Anchor-1" 875 943 basechar 0
AnchorPoint: "Anchor-0" 493 1300 basechar 0
LayerCount: 2
Fore
SplineSet
1008 550 m 1
 1117 550 l 1
 1000 0 l 1
 -10 0 l 1
 13 130 l 1
 203 130 l 1
 386 1170 l 1
 216 1170 l 1
 239 1300 l 1
 768 1300 l 1
 745 1170 l 1
 545 1170 l 1
 362 130 l 1
 868 130 l 1
 1008 550 l 1
EndSplineSet
Substitution2: "'c2sc' Capitals to Small Capitals in Latin lookup 0 subtable" l.sc
EndChar

StartChar: M
Encoding: 77 77 12
Width: 1200
Flags: HMW
AnchorPoint: "Anchor-2" 526 0 basechar 0
AnchorPoint: "Anchor-0" 755 1300 basechar 0
LayerCount: 2
Back
SplineSet
158 1170 m 1
 0 1170 l 1
 0 1300 l 1
 383 1300 l 1
 645 480 l 1
 555 480 l 1
 817 1300 l 1
 1200 1300 l 1
 1200 1170 l 1
 1042 1170 l 1
 1058 130 l 1
 1200 130 l 1
 1200 0 l 1
 761 0 l 1
 761 130 l 1
 914 130 l 1
 899 724 l 1
 934 1204 l 1
 630 350 l 1
 570 350 l 1
 266 1204 l 1
 301 724 l 1
 286 130 l 1
 439 130 l 1
 439 0 l 1
 0 0 l 1
 0 130 l 1
 142 130 l 1
 158 1170 l 1
EndSplineSet
Fore
SplineSet
284 1170 m 1
 126 1170 l 1
 149 1300 l 1
 532 1300 l 1
 650 480 l 1
 560 480 l 1
 956 1300 l 5
 1349 1300 l 1
 1326 1170 l 1
 1168 1170 l 1
 1001 130 l 1
 1143 130 l 1
 1120 0 l 1
 651 0 l 1
 674 130 l 1
 857 130 l 1
 947 724 l 1
 1066 1204 l 1
 622 350 l 1
 562 350 l 1
 398 1204 l 1
 349 724 l 1
 229 130 l 1
 412 130 l 1
 389 0 l 1
 -80 0 l 1
 -57 130 l 1
 85 130 l 1
 284 1170 l 1
EndSplineSet
Substitution2: "'c2sc' Capitals to Small Capitals in Latin lookup 0 subtable" m.sc
EndChar

StartChar: N
Encoding: 78 78 13
Width: 1200
Flags: HMW
AnchorPoint: "Anchor-2" 546 0 basechar 0
AnchorPoint: "Anchor-0" 785 1300 basechar 0
LayerCount: 2
Fore
SplineSet
345 1160 m 1
 187 1160 l 1
 211 1300 l 1
 369 1300 l 1
 345 1160 l 1
369 1300 m 1
 617 1300 l 1
 896 313 l 1
 1074 1320 l 1
 1223 1320 l 1
 986 -20 l 1
 858 -20 l 5
 566 987 l 1
 478 1197 l 1
 455 997 l 1
 275 -20 l 1
 136 -20 l 1
 369 1300 l 1
EndSplineSet
Substitution2: "'c2sc' Capitals to Small Capitals in Latin lookup 0 subtable" n.sc
EndChar

StartChar: O
Encoding: 79 79 14
Width: 1200
Flags: HMW
AnchorPoint: "Anchor-2" 519 0 basechar 0
AnchorPoint: "Anchor-0" 748 1300 basechar 0
LayerCount: 2
Fore
SplineSet
515 -20 m 0
 199 -20 58 244 135 680 c 0
 210 1106 455 1320 752 1320 c 0
 1049 1320 1209 1046 1134 620 c 0
 1057 184 831 -20 515 -20 c 0
727 1180 m 0
 539 1180 357 1003 295 650 c 0
 231 287 332 120 540 120 c 0
 748 120 910 287 974 650 c 0
 1036 1003 915 1180 727 1180 c 0
EndSplineSet
Substitution2: "'c2sc' Capitals to Small Capitals in Latin lookup 0 subtable" o.sc
EndChar

StartChar: P
Encoding: 80 80 15
Width: 1200
Flags: HMW
AnchorPoint: "Anchor-2" 282 0 basechar 0
AnchorPoint: "Anchor-0" 715 1300 basechar 0
LayerCount: 2
Fore
SplineSet
20 0 m 1
 43 130 l 1
 213 130 l 1
 396 1170 l 1
 226 1170 l 1
 249 1300 l 1
 811 1300 l 2
 1097 1300 1246 1146 1201 890 c 4
 1158 644 942 530 675 530 c 2
 442 530 l 1
 372 130 l 1
 612 130 l 1
 589 0 l 1
 20 0 l 1
465 660 m 1
 698 660 l 2
 916 660 1019 787 1041 910 c 0
 1064 1043 1026 1170 788 1170 c 2
 555 1170 l 1
 465 660 l 1
EndSplineSet
Substitution2: "'c2sc' Capitals to Small Capitals in Latin lookup 0 subtable" p.sc
EndChar

StartChar: Q
Encoding: 81 81 16
Width: 1200
Flags: HMW
AnchorPoint: "Anchor-0" 748 1300 basechar 0
LayerCount: 2
Fore
SplineSet
211 227 m 1
 257 373 393 472 514 472 c 0
 883 472 588 -158 852 -158 c 0
 921 -158 967 -71 1010 1 c 1
 1113 -39 l 1
 1040 -171 944 -278 814 -278 c 0
 454 -278 701 342 480 342 c 0
 377 342 291 228 273 127 c 1
 211 227 l 1
515 -20 m 0
 209 -20 58 234 135 670 c 0
 210 1096 465 1320 752 1320 c 0
 1039 1320 1209 1056 1134 630 c 4
 1057 194 821 -20 515 -20 c 0
727 1180 m 0
 539 1180 361 1023 295 650 c 0
 227 267 330 110 538 110 c 0
 746 110 906 267 974 650 c 0
 1040 1023 915 1180 727 1180 c 0
EndSplineSet
Substitution2: "'c2sc' Capitals to Small Capitals in Latin lookup 0 subtable" q.sc
EndChar

StartChar: R
Encoding: 82 82 17
Width: 1200
Flags: HMW
AnchorPoint: "Anchor-2" 506 0 basechar 0
AnchorPoint: "Anchor-0" 695 1300 basechar 0
LayerCount: 2
Fore
SplineSet
-40 0 m 1
 -17 130 l 1
 143 130 l 1
 326 1170 l 1
 166 1170 l 1
 189 1300 l 1
 701 1300 l 2
 1007 1300 1139 1151 1096 905 c 0
 1053 659 832 585 545 585 c 1
 545 640 l 1
 791 640 896 525 872 290 c 0
 860 177 824 110 900 110 c 0
 983 110 998 237 1028 350 c 1
 1147 320 l 1
 1113 184 1060 -40 884 -40 c 0
 708 -40 694 80 709 275 c 0
 725 478 675 540 497 540 c 2
 374 540 l 1
 302 130 l 1
 505 130 l 1
 482 0 l 1
 -40 0 l 1
397 670 m 1
 560 670 l 2
 728 670 891 742 922 915 c 0
 954 1098 846 1170 678 1170 c 2
 485 1170 l 1
 397 670 l 1
EndSplineSet
Substitution2: "'c2sc' Capitals to Small Capitals in Latin lookup 0 subtable" r.sc
EndChar

StartChar: S
Encoding: 83 83 18
Width: 1200
Flags: HMW
AnchorPoint: "Anchor-3" 603 2 basechar 0
AnchorPoint: "Anchor-2" 605 0 basechar 0
AnchorPoint: "Anchor-0" 756 1300 basechar 0
LayerCount: 2
Fore
SplineSet
1063 1310 m 1
 1183 1310 l 1
 1112 909 l 1
 962 909 l 1
 949 1062 810 1180 672 1180 c 0
 551 1180 420.459727792 1125.87237816 416 1001 c 0
 411 861 562.118739892 795.37235116 712 742 c 0
 917 669 1114 563 1071 320 c 0
 1026.76855469 70.041015625 837 -29 605 -29 c 0
 338 -29 134 181 180 441 c 1
 242 311 l 1
 150 -10 l 1
 25 -10 l 1
 112 481 l 1
 257 481 l 1
 277 233 427 111 600 111 c 0
 772 111 884.407869091 191.92725969 909 331 c 0
 938 495 784 548 637 599 c 0
 462.324747413 659.601618244 231 768 255 1020 c 0
 273.393208322 1213.12868738 441 1320 667 1320 c 0
 873 1320 1060 1149 1026 959 c 1
 977 1079 l 1
 1063 1310 l 1
EndSplineSet
Substitution2: "'c2sc' Capitals to Small Capitals in Latin lookup 0 subtable" s.sc
EndChar

StartChar: T
Encoding: 84 84 19
Width: 1200
Flags: HMW
AnchorPoint: "Anchor-3" 520 2 basechar 0
AnchorPoint: "Anchor-0" 748 1300 basechar 0
AnchorPoint: "Anchor-2" 519 0 basechar 0
LayerCount: 2
Fore
SplineSet
247 840 m 1
 138 840 l 1
 219 1300 l 1
 1279 1300 l 1
 1198 840 l 1
 1089 840 l 1
 1111 1170 l 1
 805 1170 l 1
 622 130 l 1
 812 130 l 1
 789 0 l 1
 240 0 l 1
 263 130 l 1
 453 130 l 1
 636 1170 l 1
 341 1170 l 1
 247 840 l 1
EndSplineSet
Substitution2: "'c2sc' Capitals to Small Capitals in Latin lookup 0 subtable" t.sc
EndChar

StartChar: U
Encoding: 85 85 20
Width: 1200
Flags: HMW
AnchorPoint: "Anchor-0" 748 1300 basechar 0
AnchorPoint: "Anchor-2" 519 0 basechar 0
AnchorPoint: "Anchor-3" 725 80 basechar 0
LayerCount: 2
Fore
SplineSet
196 430 m 2
 326 1170 l 1
 166 1170 l 1
 189 1300 l 1
 678 1300 l 1
 655 1170 l 1
 486 1170 l 1
 356 430 l 2
 318 217 382 120 520 120 c 4
 658 120 797 217 835 430 c 2
 966 1170 l 1
 797 1170 l 1
 820 1300 l 1
 1309 1300 l 1
 1286 1170 l 1
 1126 1170 l 1
 995 430 l 2
 950 174 781 -20 515 -20 c 0
 249 -20 151 174 196 430 c 2
EndSplineSet
Substitution2: "'c2sc' Capitals to Small Capitals in Latin lookup 0 subtable" u.sc
EndChar

StartChar: V
Encoding: 86 86 21
Width: 1200
Flags: HMW
AnchorPoint: "Anchor-0" 748 1300 basechar 0
AnchorPoint: "Anchor-2" 519 0 basechar 0
LayerCount: 2
Fore
SplineSet
982 1170 m 5
 827 1170 l 1
 850 1300 l 1
 1319 1300 l 1
 1296 1170 l 1
 1169 1170 l 1
 586 -20 l 1
 446 -20 l 1
 283 1170 l 1
 156 1170 l 1
 179 1300 l 1
 648 1300 l 1
 625 1170 l 1
 460 1170 l 5
 564 110 l 5
 504 110 l 5
 982 1170 l 5
EndSplineSet
Substitution2: "'c2sc' Capitals to Small Capitals in Latin lookup 0 subtable" v.sc
EndChar

StartChar: W
Encoding: 87 87 22
Width: 1200
Flags: HMW
AnchorPoint: "Anchor-0" 748 1300 basechar 0
AnchorPoint: "Anchor-2" 519 0 basechar 0
LayerCount: 2
Back
SplineSet
246 1330 m 1
 357 426 l 1
 367 136 l 1
 337 136 l 1
 545 1030 l 1
 655 1030 l 1
 863 136 l 1
 833 136 l 1
 853 426 l 1
 954 1330 l 1
 1120 1330 l 1
 935 0 l 1
 752 0 l 1
 560 920 l 1
 640 920 l 1
 448 0 l 1
 265 0 l 1
 80 1330 l 1
 246 1330 l 1
EndSplineSet
Fore
SplineSet
387 1170 m 1
 347 426 l 1
 311 136 l 5
 281 136 l 5
 611 1000 l 1
 781 1000 l 1
 807 136 l 1
 777 136 l 1
 843 426 l 1
 1055 1170 l 1
 857 1170 l 1
 880 1300 l 1
 1339 1300 l 1
 1316 1170 l 1
 1206 1170 l 1
 855 0 l 1
 672 0 l 1
 667 980 l 1
 722 980 l 1
 368 0 l 5
 185 0 l 1
 246 1170 l 1
 136 1170 l 1
 159 1300 l 1
 608 1300 l 1
 585 1170 l 1
 387 1170 l 1
EndSplineSet
Substitution2: "'c2sc' Capitals to Small Capitals in Latin lookup 0 subtable" w.sc
EndChar

StartChar: X
Encoding: 88 88 23
Width: 1200
Flags: HMW
AnchorPoint: "Anchor-0" 748 1300 basechar 0
AnchorPoint: "Anchor-2" 519 0 basechar 0
LayerCount: 2
Fore
SplineSet
229 1300 m 1
 678 1300 l 1
 655 1170 l 1
 505 1170 l 1
 653 802 l 1
 947 1170 l 1
 797 1170 l 1
 820 1300 l 1
 1269 1300 l 1
 1246 1170 l 1
 1117 1170 l 1
 727 694 l 1
 954 130 l 1
 1103 130 l 1
 1080 0 l 1
 611 0 l 1
 634 130 l 1
 784 130 l 5
 636 566 l 1
 302 130 l 1
 452 130 l 1
 429 0 l 1
 -40 0 l 1
 -17 130 l 1
 132 130 l 1
 556 684 l 1
 335 1170 l 1
 206 1170 l 1
 229 1300 l 1
EndSplineSet
Substitution2: "'c2sc' Capitals to Small Capitals in Latin lookup 0 subtable" x.sc
EndChar

StartChar: Y
Encoding: 89 89 24
Width: 1200
Flags: HMW
AnchorPoint: "Anchor-0" 748 1300 basechar 0
AnchorPoint: "Anchor-2" 519 0 basechar 0
LayerCount: 2
Fore
SplineSet
240 0 m 1
 263 130 l 1
 453 130 l 1
 515 480 l 1
 280 1170 l 1
 156 1170 l 1
 179 1300 l 1
 657 1300 l 1
 634 1170 l 1
 435 1170 l 5
 630 570 l 5
 591 570 l 1
 1007 1170 l 1
 836 1170 l 1
 859 1300 l 1
 1319 1300 l 1
 1296 1170 l 1
 1172 1170 l 1
 684 480 l 1
 622 130 l 1
 812 130 l 1
 789 0 l 1
 240 0 l 1
EndSplineSet
Substitution2: "'c2sc' Capitals to Small Capitals in Latin lookup 0 subtable" y.sc
EndChar

StartChar: Z
Encoding: 90 90 25
Width: 1200
Flags: HMW
AnchorPoint: "Anchor-0" 748 1300 basechar 0
AnchorPoint: "Anchor-2" 519 0 basechar 0
LayerCount: 2
Fore
SplineSet
922 460 m 1
 1031 460 l 1
 950 0 l 1
 80 0 l 1
 58 100 l 1
 907 1160 l 1
 404 1160 l 1
 368 900 l 1
 259 900 l 1
 289 1300 l 1
 1109 1300 l 1
 1132 1200 l 1
 273 140 l 5
 823 140 l 1
 922 460 l 1
EndSplineSet
Substitution2: "'c2sc' Capitals to Small Capitals in Latin lookup 0 subtable" z.sc
EndChar

StartChar: a
Encoding: 97 97 29
Width: 1200
Flags: HMW
AnchorPoint: "Anchor-3" 927 0 basechar 0
AnchorPoint: "Anchor-2" 446 0 basechar 0
AnchorPoint: "Anchor-0" 668 920 basechar 0
LayerCount: 2
Fore
SplineSet
1063 920 m 9
 896 195 l 2
 885.215421832 148.180723523 882.384765625 110 925 110 c 0
 985 110 1040 156 1099 210 c 1
 1177 133 l 1
 1075 33 988 -35 878 -35 c 0
 768 -35 703.267015341 42.5444383176 737 190 c 10
 904 920 l 1
 1063 920 l 9
272 436 m 0
 229.721151017 226.803850878 309 125 413 125 c 0
 531 125 650 177 786 400 c 1
 800 310 l 1
 670 64 506 -20 369 -20 c 0
 153 -20 47.3046875 163.596679688 105 440 c 0
 167.8984375 741.33203125 414 939 669 939 c 0
 767 939 865 896 904 840 c 1
 905 739 l 1
 865 786 787 819 690 819 c 0
 490 819 315.67950936 652.126630064 272 436 c 0
EndSplineSet
Substitution2: "'smcp' Lowercase to Small Capitals in Latin lookup 0 subtable" a.sc
EndChar

StartChar: b
Encoding: 98 98 30
Width: 1200
Flags: HMW
AnchorPoint: "Anchor-2" 526 0 basechar 0
AnchorPoint: "Anchor-0" 818 920 basechar 0
LayerCount: 2
Fore
SplineSet
664 795 m 0
 486 795 349 673 311 460 c 0
 272 237 379 130 547 130 c 0
 735 130 871 237 910 460 c 0
 948 673 832 795 664 795 c 0
580 -20 m 0
 314 -20 199 204 251 500 c 4
 301 786 503 940 740 940 c 0
 977 940 1132 756 1080 460 c 0
 1026 154 816 -20 580 -20 c 0
307 1330 m 1
 282 1190 l 1
 82 1190 l 1
 107 1330 l 1
 307 1330 l 1
265 190 m 1
 191 0 l 1
 72 0 l 1
 307 1330 l 1
 466 1330 l 1
 265 190 l 1
EndSplineSet
Substitution2: "'smcp' Lowercase to Small Capitals in Latin lookup 0 subtable" b.sc
Substitution2: "'ss01' Style Set 1 in Latin lookup 0-1" b.alt
EndChar

StartChar: o
Encoding: 111 111 31
Width: 1200
Flags: HMW
AnchorPoint: "Anchor-2" 513 0 basechar 0
AnchorPoint: "Anchor-0" 676 920 basechar 0
LayerCount: 2
Fore
SplineSet
510 -20 m 4
 234 -20 71 144 127 460 c 4
 181 766 423 940 680 940 c 4
 937 940 1129 766 1075 460 c 4
 1019 144 786 -20 510 -20 c 4
656 805 m 4
 488 805 339 673 301 460 c 4
 262 237 346 115 534 115 c 4
 722 115 862 237 901 460 c 4
 939 673 824 805 656 805 c 4
EndSplineSet
Substitution2: "'smcp' Lowercase to Small Capitals in Latin lookup 0 subtable" o.sc
EndChar

StartChar: l
Encoding: 108 108 32
Width: 1200
Flags: HMW
AnchorPoint: "Anchor-3" 490 0 basechar 0
AnchorPoint: "Anchor-2" 484 0 basechar 0
AnchorPoint: "Anchor-1" 635 920 basechar 0
AnchorPoint: "Anchor-0" 693 1330 basechar 0
LayerCount: 2
Fore
SplineSet
598 1210 m 1
 198 1190 l 1
 222 1330 l 1
 771 1330 l 1
 538 265 l 2
 517.282226562 170.301757812 514.384765625 120 567 120 c 0
 677 120 828 221 957 333 c 1
 1033 242 l 5
 881 102 676 -25 536 -25 c 0
 406 -25 321.71875 42.2666015625 365 240 c 2
 584.580078125 1243.15820312 l 1
 598 1210 l 1
EndSplineSet
Substitution2: "'smcp' Lowercase to Small Capitals in Latin lookup 0 subtable" l.sc
EndChar

StartChar: n
Encoding: 110 110 33
Width: 1200
Flags: HMW
AnchorPoint: "Anchor-2" 546 0 basechar 0
AnchorPoint: "Anchor-0" 718 920 basechar 0
LayerCount: 2
Fore
SplineSet
268 780 m 1
 98 780 l 1
 122 920 l 1
 292 920 l 1
 268 780 l 1
1059 570 m 6
 958 0 l 5
 794 0 l 5
 896 580 l 6
 923 733 874 810 746 810 c 4
 578 810 410 653 372 440 c 6
 294 0 l 5
 130 0 l 5
 292 920 l 5
 393 920 l 5
 393 670 l 5
 341 550 l 5
 369 706 522 940 789 940 c 4
 1011 940 1101 806 1059 570 c 6
EndSplineSet
Substitution2: "'smcp' Lowercase to Small Capitals in Latin lookup 0 subtable" n.sc
EndChar

StartChar: i
Encoding: 105 105 34
Width: 1200
Flags: HMW
AnchorPoint: "Anchor-3" 660 10 basechar 0
AnchorPoint: "Anchor-2" 515 0 basechar 0
LayerCount: 2
Fore
SplineSet
588 800 m 1
 188 780 l 1
 212 920 l 1
 761 920 l 1
 608 265 l 2
 585.99609375 170.801757812 584.384765625 120 637 120 c 0
 747 120 898 221 1027 333 c 1
 1103 242 l 1
 951 102 746 -25 606 -25 c 0
 476 -25 388.758789062 43.1337890625 435 240 c 2
 574.580078125 833.158203125 l 1
 588 800 l 1
601 1255 m 4
 601 1328 652 1380 725 1380 c 4
 798 1380 850 1328 850 1255 c 4
 850 1182 803 1130 730 1130 c 4
 657 1130 601 1182 601 1255 c 4
EndSplineSet
Substitution2: "'smcp' Lowercase to Small Capitals in Latin lookup 0 subtable" i.sc
EndChar

StartChar: k
Encoding: 107 107 35
Width: 1200
Flags: HMW
AnchorPoint: "Anchor-2" 516 0 basechar 0
AnchorPoint: "Anchor-0" 798 920 basechar 0
LayerCount: 2
Back
SplineSet
1048 570 m 2
 1048 0 l 1
 879 0 l 1
 879 580 l 2
 879 733 816 810 668 810 c 0
 480 810 389 653 389 440 c 2
 389 0 l 1
 220 0 l 1
 220 1190 l 1
 30 1190 l 1
 30 1330 l 1
 389 1330 l 1
 389 750 l 1
 309 550 l 1
 309 706 431 940 708 940 c 0
 935 940 1048 806 1048 570 c 2
EndSplineSet
Fore
SplineSet
300 0 m 1
 140 0 l 1
 350 1190 l 1
 160 1190 l 1
 185 1330 l 1
 535 1330 l 1
 300 0 l 1
894 654 m 0
 932.761015548 752.506321848 874 795 796 795 c 0
 708 795 526 743 390 520 c 1
 379 610 l 1
 529 856 683 940 870 940 c 0
 1026 940 1124.61488318 845.521991733 1064 670 c 0
 990.405100429 456.891887337 755 281 470 281 c 4
 392 281 314 324 275 370 c 1
 274 471 l 1
 314 424 382 391 479 391 c 0
 679 391 851.022379802 544.777699509 894 654 c 0
492.580078125 363.158203125 m 1
 641 380 l 1
 688 256 l 2
 719.026367188 174.142578125 733.384765625 126 786 126 c 0
 866 126 998 208 1087 290 c 1
 1166 213 l 1
 1014 63 896 -25 756 -25 c 0
 626 -25 591.369140625 53.0546875 535 230 c 2
 492.580078125 363.158203125 l 1
EndSplineSet
Substitution2: "'smcp' Lowercase to Small Capitals in Latin lookup 0 subtable" k.sc
EndChar

StartChar: j
Encoding: 106 106 36
Width: 1200
Flags: HMW
AnchorPoint: "Anchor-2" 375 -400 basechar 0
LayerCount: 2
Fore
SplineSet
841 1255 m 0
 841 1328 892 1380 965 1380 c 0
 1038 1380 1090 1328 1090 1255 c 0
 1090 1182 1043 1130 970 1130 c 0
 897 1130 841 1182 841 1255 c 0
399 -290 m 1
 394 -430 l 1
 207 -430 81 -331 24 -231 c 1
 150 -140 l 5
 183 -190 271 -290 399 -290 c 1
991 920 m 1
 862 10 l 2
 820.057887257 -285.8707178 681 -430 394 -430 c 1
 399 -290 l 1
 597 -290 666.777625053 -173.219138765 692 10 c 2
 798 780 l 1
 378 780 l 1
 402 920 l 1
 991 920 l 1
EndSplineSet
Substitution2: "'smcp' Lowercase to Small Capitals in Latin lookup 0 subtable" j.sc
EndChar

StartChar: h
Encoding: 104 104 37
Width: 1200
Flags: HMW
AnchorPoint: "Anchor-2" 538 0 basechar 0
AnchorPoint: "Anchor-0" 882 1030 basechar 0
LayerCount: 2
Fore
SplineSet
1069 570 m 2
 968 0 l 1
 799 0 l 1
 901 580 l 2
 928 733 879 810 731 810 c 0
 543 810 424 653 378 390 c 2
 309 0 l 1
 150 0 l 1
 360 1190 l 1
 140 1190 l 1
 165 1330 l 1
 544 1330 l 1
 423 650 l 1
 376 550 l 5
 404 706 517 940 794 940 c 0
 1021 940 1111 806 1069 570 c 2
EndSplineSet
Substitution2: "'smcp' Lowercase to Small Capitals in Latin lookup 0 subtable" h.sc
Substitution2: "'ss01' Style Set 1 in Latin lookup 0-1" h.alt
EndChar

StartChar: m
Encoding: 109 109 38
Width: 1200
Flags: HMW
AnchorPoint: "Anchor-2" 535 0 basechar 0
AnchorPoint: "Anchor-0" 718 920 basechar 0
LayerCount: 2
Fore
SplineSet
178 780 m 5
 58 780 l 5
 82 920 l 5
 202 920 l 5
 178 780 l 5
724 600 m 2
 618 0 l 1
 459 0 l 1
 574 650 l 2
 592 753 564 810 496 810 c 0
 378 810 315 653 277 440 c 2
 199 0 l 1
 40 0 l 1
 202 920 l 1
 298 920 l 1
 298 710 l 1
 236 550 l 1
 264 706 372 940 569 940 c 0
 716 940 760 806 724 600 c 2
1143 600 m 2
 1037 0 l 1
 878 0 l 1
 993 650 l 2
 1011 753 993 810 925 810 c 0
 797 810 734 653 696 440 c 1
 645 550 l 1
 673 706 791 940 988 940 c 0
 1155 940 1179 806 1143 600 c 2
EndSplineSet
Substitution2: "'smcp' Lowercase to Small Capitals in Latin lookup 0 subtable" m.sc
EndChar

StartChar: e
Encoding: 101 101 39
Width: 1200
Flags: HMW
AnchorPoint: "Anchor-3" 716 22 basechar 0
AnchorPoint: "Anchor-2" 565 0 basechar 0
AnchorPoint: "Anchor-0" 727 920 basechar 0
LayerCount: 2
Back
SplineSet
680 800 m 1
 477 800 312 671 312 448 c 0
 312 235 436 120 674 120 c 1
 664 -20 l 1
 303 -20 135 164 135 430 c 0
 135 726 368 940 680 940 c 1
 680 800 l 1
680 800 m 1
 680 940 l 1
 920 940 1041 814 1041 667 c 0
 1041 589 1035 530 1034 510 c 1
 889 510 l 1
 892 541 894 551 894 581 c 0
 894 716 801 800 680 800 c 1
1065 120 m 1
 985 47 850 -20 664 -20 c 1
 674 120 l 1
 781 120 904 171 954 214 c 1
 1065 120 l 1
EndSplineSet
Fore
SplineSet
980 113 m 1
 888 47 736 -20 560 -20 c 1
 576 122 l 1
 703 122 836 174 902 232 c 1
 980 113 l 1
560 -20 m 1
 258.551757812 -20 85 152 134 440 c 0
 185.150888599 740.641957477 448 940 735 940 c 0
 937.420010708 940 1092.2312938 844.422748434 1055 652 c 0
 1010.01538415 419.505704593 571.205078125 361.4921875 265 352 c 1
 284 462 l 1
 569.614257812 484.840820312 871.092266094 543.194468683 895 662 c 0
 913.400583399 753.438657293 838.201171875 805 721 805 c 0
 513 805 328 653 294 460 c 0
 255.723089235 230.338535409 357.548828125 122 576 122 c 1
 560 -20 l 1
EndSplineSet
Substitution2: "'smcp' Lowercase to Small Capitals in Latin lookup 0 subtable" e.sc
EndChar

StartChar: p
Encoding: 112 112 40
Width: 1200
Flags: HMW
AnchorPoint: "Anchor-2" 696 0 basechar 0
AnchorPoint: "Anchor-0" 808 920 basechar 0
LayerCount: 2
Back
SplineSet
210 780 m 1
 40 780 l 1
 40 920 l 1
 210 920 l 1
 210 780 l 1
1038 570 m 2
 1038 0 l 1
 869 0 l 1
 869 580 l 2
 869 733 806 810 678 810 c 0
 510 810 379 653 379 440 c 2
 379 0 l 1
 210 0 l 1
 210 920 l 1
 329 920 l 1
 369 730 l 1
 299 550 l 1
 299 706 446 940 713 940 c 0
 925 940 1038 806 1038 570 c 2
EndSplineSet
Fore
SplineSet
594 115 m 0
 732 115 899 227 940 460 c 0
 983 703 871 790 713 790 c 0
 535 790 412 653 378 460 c 0
 346 277 436 115 594 115 c 0
800 940 m 4
 996 940 1157 786 1100 460 c 0
 1044 144 807 -20 610 -20 c 0
 383 -20 276 204 332 520 c 0
 382 806 594 940 800 940 c 4
411 920 m 1
 411 682 l 25
 254 -330 l 1
 95 -330 l 1
 270 780 l 1
 100 780 l 1
 124 920 l 1
 411 920 l 1
EndSplineSet
Substitution2: "'smcp' Lowercase to Small Capitals in Latin lookup 0 subtable" p.sc
EndChar

StartChar: t
Encoding: 116 116 41
Width: 1200
Flags: HMW
AnchorPoint: "Anchor-3" 476 -6 basechar 0
AnchorPoint: "Anchor-2" 626 0 basechar 0
AnchorPoint: "Anchor-1" 824 1020 basechar 0
AnchorPoint: "Anchor-0" 595 1130 basechar 0
LayerCount: 2
Fore
SplineSet
466 920 m 1
 1101 920 l 1
 1075 770 l 1
 467 794 l 1
 466 920 l 1
207 779 m 1
 232 920 l 1
 495 920 l 1
 495 779 l 1
 207 779 l 1
564 140 m 1
 752 140 887 230 966 300 c 1
 1043 208 l 1
 906 98 734 -10 537 -10 c 1
 564 140 l 1
695 1170 m 1
 514 430 l 2
 461.735365383 216.321383336 446 140 564 140 c 1
 537 -10 l 1
 280 -10 280.707933188 155.56451391 339 390 c 2
 523 1130 l 1
 695 1170 l 1
EndSplineSet
Substitution2: "'smcp' Lowercase to Small Capitals in Latin lookup 0 subtable" t.sc
EndChar

StartChar: c
Encoding: 99 99 42
Width: 1200
Flags: HMW
AnchorPoint: "Anchor-3" 557 4 basechar 0
AnchorPoint: "Anchor-2" 556 0 basechar 0
AnchorPoint: "Anchor-0" 738 920 basechar 0
LayerCount: 2
Fore
SplineSet
711 800 m 1
 518 800 345 671 306 448 c 0
 267 225 348 125 546 125 c 1
 530 -20 l 1
 199 -20 84 184 131 450 c 0
 185 756 434 940 726 940 c 1
 711 800 l 1
711 800 m 1
 726 940 l 1
 966 940 1105 814 1079 667 c 0
 1065 589 1049 530 1044 510 c 1
 891 510 l 1
 897 531 901 551 906 581 c 0
 935 746 852 800 711 800 c 1
980 173 m 1
 887 100 696 -20 530 -20 c 1
 546 125 l 1
 723 125 848 217 916 260 c 1
 980 173 l 1
EndSplineSet
Substitution2: "'smcp' Lowercase to Small Capitals in Latin lookup 0 subtable" c.sc
EndChar

StartChar: u
Encoding: 117 117 43
Width: 1200
Flags: HMW
AnchorPoint: "Anchor-3" 926 10 basechar 0
AnchorPoint: "Anchor-2" 446 0 basechar 0
AnchorPoint: "Anchor-0" 628 920 basechar 0
LayerCount: 2
Fore
SplineSet
832 780 m 1
 712 780 l 1
 736 920 l 1
 856 920 l 1
 832 780 l 1
228 780 m 5
 108 780 l 5
 132 920 l 5
 252 920 l 5
 228 780 l 5
1015 920 m 9
 876 195 l 2
 866.76428062 146.828082373 862.384765625 110 905 110 c 0
 965 110 1020 154 1079 213 c 1
 1157 133 l 1
 1055 33 968 -35 858 -35 c 0
 748 -35 688.7466169 41.6189232889 717 190 c 10
 856 920 l 1
 1015 920 l 9
252 920 m 5
 411 920 l 5
 290 358 l 6
 253.51953125 188.5625 285 125 393 125 c 4
 501 125 630 177 766 400 c 1
 790 310 l 1
 640 84 516 -20 349 -20 c 4
 153 -20 86.9140625 120.189453125 136 358 c 6
 252 920 l 5
EndSplineSet
Substitution2: "'smcp' Lowercase to Small Capitals in Latin lookup 0 subtable" u.sc
EndChar

StartChar: r
Encoding: 114 114 44
Width: 1200
Flags: HMW
AnchorPoint: "Anchor-0" 628 920 basechar 0
AnchorPoint: "Anchor-2" 296 0 basechar 0
LayerCount: 2
Back
SplineSet
813 820 m 1
 605 820 489 663 489 450 c 2
 489 130 l 1
 729 130 l 1
 729 0 l 1
 170 0 l 1
 170 130 l 1
 320 130 l 1
 320 780 l 1
 170 780 l 1
 170 920 l 1
 459 920 l 1
 489 690 l 1
 409 540 l 1
 409 696 561 940 818 940 c 1
 813 820 l 1
1067 760 m 0
 1067 692 1023 635 945 635 c 0
 882 635 827 677 827 745 c 0
 827 813 884 860 947 860 c 0
 1015 860 1067 808 1067 760 c 0
813 820 m 1
 818 940 l 1
 995 940 1067 836 1067 760 c 1
 957 730 l 1
 937 773 881 820 813 820 c 1
EndSplineSet
Fore
SplineSet
882 790 m 1
 924 940 l 1
 1094 940 1153 844 1127 697 c 0
 1113 619 1097 560 1092 540 c 1
 949 560 l 1
 955 581 958.536132812 601.080078125 964 631 c 0
 985 746 973 790 882 790 c 1
882 790 m 1
 754 790 503 703 458 450 c 2
 380 0 l 1
 211 0 l 1
 349 790 l 1
 109 790 l 1
 132 920 l 1
 491 920 l 1
 491 670 l 5
 414 520 l 1
 447 706 697 940 924 940 c 1
 882 790 l 1
EndSplineSet
Substitution2: "'smcp' Lowercase to Small Capitals in Latin lookup 0 subtable" r.sc
EndChar

StartChar: q
Encoding: 113 113 45
Width: 1200
Flags: HMW
AnchorPoint: "Anchor-2" 376 0 basechar 0
AnchorPoint: "Anchor-0" 618 920 basechar 0
LayerCount: 2
Fore
SplineSet
650 805 m 0
 482 805 309 653 271 440 c 0
 235 237 343 130 511 130 c 0
 679 130 844 237 883 460 c 0
 921 673 828 805 650 805 c 0
454 -20 m 0
 228 -20 49 144 101 440 c 0
 153 736 407 940 634 940 c 0
 871 940 994 706 947 440 c 0
 898 164 680 -20 454 -20 c 0
1123 920 m 1
 924 -330 l 1
 765 -330 l 1
 927 710 l 5
 995 920 l 1
 1123 920 l 1
EndSplineSet
Substitution2: "'smcp' Lowercase to Small Capitals in Latin lookup 0 subtable" q.sc
EndChar

StartChar: s
Encoding: 115 115 46
Width: 1200
Flags: HMW
AnchorPoint: "Anchor-3" 550 0 basechar 0
AnchorPoint: "Anchor-2" 546 0 basechar 0
AnchorPoint: "Anchor-0" 696 920 basechar 0
LayerCount: 2
Back
SplineSet
1012 649 m 1
 859 649 l 1
 839 752 727 815 599 815 c 0
 488 815 397 778 397 694 c 0
 397 599 518.294921875 566.158203125 681 534 c 0
 898.182617188 491.07421875 1049 431 1049 258 c 0
 1049 68 872 -29 630 -29 c 0
 393 -29 187 86 187 331 c 1
 342 331 l 1
 362 183 477 111 630 111 c 0
 782 111 889 155 889 254 c 0
 889 346 785 367 631 403 c 0
 442.512695312 447.0625 239 488 239 680 c 0
 239 836 368 950 604 950 c 0
 850 950 1002 809 1012 649 c 1
EndSplineSet
Fore
SplineSet
1043 779 m 1
 932 670 l 1
 852 753 786 794 638 794 c 0
 477 794 387 732 387 668 c 0
 387 584 505.0079385 569.03642007 644 539 c 0
 880 488 1009 434 1009 266 c 0
 1009 66 782 -29 560 -29 c 0
 363 -29 180 67 90 211 c 1
 195 307 l 1
 295 200 393 116 555 116 c 0
 707 116 842 157 842 256 c 0
 842 342 759 344 582 391 c 0
 403 439 219 474 229 660 c 0
 236.891828342 806.788007158 397 940 653 940 c 0
 849 940 971 869 1043 779 c 1
EndSplineSet
Substitution2: "'smcp' Lowercase to Small Capitals in Latin lookup 0 subtable" s.sc
EndChar

StartChar: g
Encoding: 103 103 47
Width: 1200
Flags: HMW
AnchorPoint: "Anchor-2" 376 0 basechar 0
AnchorPoint: "Anchor-0" 618 920 basechar 0
LayerCount: 2
Fore
SplineSet
454 -20 m 0
 228 -20 49 144 101 440 c 0
 153 736 427 940 644 940 c 0
 901 940 984 716 937 450 c 0
 888 174 710 -20 454 -20 c 0
650 805 m 0
 482 805 309 653 271 440 c 0
 235 237 343 130 511 130 c 0
 679 130 844 237 883 460 c 0
 921 673 828 805 650 805 c 0
439 -290 m 1
 440 -430 l 1
 233 -430 91 -331 24 -241 c 1
 134 -142 l 5
 187 -202 301 -290 439 -290 c 1
833 73 m 2
 930 720 l 1
 995 920 l 1
 1123 920 l 1
 992 73 l 2
 935.65402893 -291.313263329 707 -430 440 -430 c 1
 439 -290 l 1
 647 -290 792.003216001 -197.885292404 833 73 c 2
EndSplineSet
Substitution2: "'smcp' Lowercase to Small Capitals in Latin lookup 0 subtable" g.sc
EndChar

StartChar: x
Encoding: 120 120 48
Width: 1200
Flags: HMW
AnchorPoint: "Anchor-0" 698 920 basechar 0
AnchorPoint: "Anchor-2" 537 0 basechar 0
LayerCount: 2
Fore
SplineSet
58 -20 m 1
 28 123 l 1
 235.763671875 153.5703125 394.834960938 309.22265625 558 493 c 1
 608 410 l 1
 458.985351562 197.517578125 318 -20 58 -20 c 1
1139 939 m 1
 1149 806 l 1
 1001.23632812 775.4296875 842.165039062 609.77734375 679 426 c 1
 629 509 l 1
 778.014648438 721.482421875 919 939 1139 939 c 1
689 430 m 2
 690.663085938 215.405273438 706 120 814 120 c 0
 902 120 999 190 1048 290 c 1
 1143 231 l 1
 1056 61 934 -30 797 -30 c 0
 560 -30 554 153.874023438 554 390 c 2
 554 437 l 1
 534 445 l 1
 534 499 l 2
 534 714.470703125 527 789 449 789 c 0
 371 789 284 709 225 639 c 5
 130 728 l 1
 237 858 349 939 466 939 c 0
 653 939 676.166015625 775.541992188 658 539 c 9
 658.263671875 505 l 1
 688.496124031 495 l 1
 689 430 l 2
EndSplineSet
Substitution2: "'smcp' Lowercase to Small Capitals in Latin lookup 0 subtable" x.sc
EndChar

StartChar: d
Encoding: 100 100 49
Width: 1200
Flags: HMW
AnchorPoint: "Anchor-3" 880 0 basechar 0
AnchorPoint: "Anchor-2" 576 0 basechar 0
AnchorPoint: "Anchor-1" 1231 920 basechar 0
AnchorPoint: "Anchor-0" 578 920 basechar 0
LayerCount: 2
Fore
SplineSet
272 436 m 0
 229.721151017 226.803850878 309 125 413 125 c 0
 531 125 650 177 786 400 c 1
 800 310 l 1
 670 64 506 -20 369 -20 c 0
 173 -20 47.3046875 163.596679688 105 440 c 0
 167.8984375 741.33203125 414 939 669 939 c 4
 777 939 865 886 904 840 c 1
 905 739 l 1
 865 786 787 819 690 819 c 0
 490 819 315.67950936 652.126630064 272 436 c 0
1115 1330 m 9
 896 195 l 2
 886.69151792 146.757410224 882.384422949 110 925 110 c 0
 985 110 1040 155 1099 211 c 1
 1177 133 l 1
 1075 33 988 -35 878 -35 c 0
 768 -35 708.455696957 41.4132170387 737 190 c 10
 956 1330 l 1
 1115 1330 l 9
736 1330 m 1
 956 1330 l 1
 941 1190 l 1
 711 1190 l 1
 736 1330 l 1
EndSplineSet
Substitution2: "'smcp' Lowercase to Small Capitals in Latin lookup 0 subtable" d.sc
EndChar

StartChar: f
Encoding: 102 102 50
Width: 1200
Flags: HMW
AnchorPoint: "Anchor-2" 416 0 basechar 0
AnchorPoint: "Anchor-0" 990 1420 basechar 0
LayerCount: 2
Fore
SplineSet
968 1300 m 1
 983 1440 l 1
 1170 1440 1290 1371 1353 1301 c 1
 1218 1190 l 1
 1181 1220 1096 1300 968 1300 c 1
323 -330 m 5
 479 790 l 1
 199 790 l 1
 222 920 l 1
 491 920 l 1
 505 1000 l 2
 548 1246 676 1440 983 1440 c 1
 968 1300 l 1
 770 1300 701.484375 1151.33984375 675 1000 c 2
 661 920 l 1
 1112 920 l 1
 1086 770 l 1
 648 790 l 1
 492 -330 l 5
 323 -330 l 5
EndSplineSet
Substitution2: "'smcp' Lowercase to Small Capitals in Latin lookup 0 subtable" f.sc
EndChar

StartChar: w
Encoding: 119 119 51
Width: 1200
Flags: HMW
AnchorPoint: "Anchor-0" 658 920 basechar 0
AnchorPoint: "Anchor-2" 477 0 basechar 0
LayerCount: 2
Fore
SplineSet
46 320 m 2
 172 920 l 1
 331 920 l 1
 196 270 l 2
 192 245 189 223 189 204 c 0
 189 143 212 110 264 110 c 0
 392 110 475 267 513 480 c 1
 564 370 l 1
 536 214 408 -20 211 -20 c 0
 83 -20 33 59 33 189 c 0
 33 228 38 272 46 320 c 2
465 320 m 2
 591 920 l 1
 750 920 l 1
 615 270 l 2
 610.852515741 250.030631346 610 231 610 214 c 0
 610 146 638 110 693 110 c 0
 887 110 982.7578125 370.61328125 999 547 c 0
 1008.70996094 652.450195312 989 822 956 897 c 1
 1080 947 l 1
 1131 867 1146.03320312 697.727539062 1139 557 c 0
 1126.08300781 298.548828125 985 -20 690 -20 c 0
 556 -20 457 78 457 236 c 0
 457 262 458.754908534 290.261469208 465 320 c 2
EndSplineSet
Substitution2: "'smcp' Lowercase to Small Capitals in Latin lookup 0 subtable" w.sc
EndChar

StartChar: y
Encoding: 121 121 52
Width: 1200
Flags: HMW
AnchorPoint: "Anchor-2" 155 -400 basechar 0
AnchorPoint: "Anchor-0" 678 920 basechar 0
LayerCount: 2
Fore
SplineSet
463 -20 m 1
 88 -20 124.916992188 408.548828125 184 617 c 0
 222.423994076 752.563961447 311 896 358 947 c 1
 482 867 l 5
 429 792 365.777424041 675.89336735 342 592 c 0
 288.282226562 402.46875 267 110 491 110 c 1
 463 -20 l 1
365 -290 m 1
 366 -430 l 1
 159 -430 67 -291 20 -171 c 1
 140 -112 l 1
 183 -202 227 -290 365 -290 c 1
491 110 m 1
 649.060546875 110 847.721679688 261.584960938 881.6640625 484.444335938 c 2
 948 920 l 1
 1109 920 l 1
 988 173 l 2
 921.164219601 -239.614280645 643 -430 366 -430 c 1
 365 -290 l 1
 603 -290 799.500505518 -127.064100593 839 173 c 2
 864.879882812 369.600585938 l 1
 901 390 l 1
 873 184 670 -20 463 -20 c 1
 491 110 l 1
EndSplineSet
Substitution2: "'smcp' Lowercase to Small Capitals in Latin lookup 0 subtable" y.sc
EndChar

StartChar: v
Encoding: 118 118 53
Width: 1200
Flags: HMW
AnchorPoint: "Anchor-2" 517 0 basechar 0
AnchorPoint: "Anchor-0" 678 920 basechar 0
LayerCount: 2
Fore
SplineSet
78 780 m 1
 102 920 l 1
 438 920 l 1
 438 780 l 1
 78 780 l 1
235 320 m 6
 341 920 l 5
 490 920 l 5
 375 270 l 6
 359.24609375 180.956054688 376.084960938 110 473 110 c 4
 727 110 902.7578125 400.61328125 919 647 c 4
 925.965820312 752.666992188 899 822 866 897 c 5
 1000 947 l 5
 1047 866 1069.53710938 787.794921875 1064 647 c 4
 1051.08300781 318.548828125 815 -20 460 -20 c 4
 296 -20 222 38 222 196 c 4
 222 222 230 290 235 320 c 6
EndSplineSet
Substitution2: "'smcp' Lowercase to Small Capitals in Latin lookup 0 subtable" v.sc
EndChar

StartChar: z
Encoding: 122 122 54
Width: 1200
VWidth: 2048
Flags: HMW
AnchorPoint: "Anchor-0" 678 920 basechar 0
AnchorPoint: "Anchor-2" 517 0 basechar 0
LayerCount: 2
Fore
SplineSet
188 570 m 1
 218 808 287 948 469 948 c 0
 625 948 654 834 801 834 c 0
 899 834 962 879 1032 982 c 1
 1149 887 l 1
 307 120 l 1
 277 90 l 1
 277 140 393 181 469 181 c 0
 579 181 595 122 706 122 c 0
 794 122 867 147 917 410 c 1
 1067 410 l 1
 1007 72 878 -28 696 -28 c 0
 540 -28 491 86 364 86 c 0
 266 86 203 41 133 -62 c 1
 16 33 l 1
 858 800 l 1
 871 804 l 1
 871 774 779 729 713 729 c 0
 604 729 550 798 459 798 c 0
 371 798 358 733 338 570 c 1
 188 570 l 1
EndSplineSet
Substitution2: "'smcp' Lowercase to Small Capitals in Latin lookup 0 subtable" z.sc
EndChar

StartChar: exclam
Encoding: 33 33 55
Width: 1200
Flags: HMW
LayerCount: 2
Fore
SplineSet
391 130 m 0
 391 218 452 280 540 280 c 0
 628 280 689 218 689 130 c 0
 689 42 633 -20 545 -20 c 0
 457 -20 391 42 391 130 c 0
550 490 m 1
 640 1340 l 5
 860 1340 l 5
 650 490 l 1
 550 490 l 1
EndSplineSet
EndChar

StartChar: quotedbl
Encoding: 34 34 56
Width: 1200
Flags: HMW
LayerCount: 2
Fore
SplineSet
804 730 m 5
 881 1340 l 1
 1091 1340 l 1
 924 730 l 5
 804 730 l 5
344 730 m 5
 421 1340 l 1
 631 1340 l 1
 464 730 l 5
 344 730 l 5
EndSplineSet
EndChar

StartChar: quotesingle
Encoding: 39 39 57
Width: 1200
Flags: HMW
LayerCount: 2
Fore
SplineSet
584 730 m 5
 651 1340 l 1
 861 1340 l 1
 704 730 l 5
 584 730 l 5
EndSplineSet
EndChar

StartChar: comma
Encoding: 44 44 58
Width: 1200
Flags: HMW
LayerCount: 2
Fore
SplineSet
324 -320 m 5
 471 290 l 5
 681 290 l 5
 444 -320 l 5
 324 -320 l 5
EndSplineSet
EndChar

StartChar: period
Encoding: 46 46 59
Width: 1200
VWidth: 2379
Flags: HMW
LayerCount: 2
Fore
SplineSet
396 130 m 4
 396 218 457 280 545 280 c 4
 633 280 694 218 694 130 c 4
 694 42 638 -20 550 -20 c 4
 462 -20 396 42 396 130 c 4
EndSplineSet
EndChar

StartChar: asterisk
Encoding: 42 42 60
Width: 1200
Flags: HMW
LayerCount: 2
Fore
SplineSet
648 876 m 1
 471 598 l 1
 330 715 l 1
 592 923 l 1
 648 876 l 1
788 1049 m 1
 1081 1199 l 1
 1109 1019 l 1
 799 983 l 1
 788 1049 l 1
585 983 m 1
 297 1029 l 1
 381 1199 l 1
 622 1049 l 1
 585 983 l 1
774 923 m 1
 962 715 l 1
 789 608 l 1
 710 886 l 1
 774 923 l 1
670 1080 m 1
 653 1380 l 5
 863 1380 l 1
 750 1080 l 1
 670 1080 l 1
EndSplineSet
EndChar

StartChar: b.alt
Encoding: 1114112 -1 61
Width: 1200
Flags: HMW
LayerCount: 2
Fore
SplineSet
664 795 m 0
 486 795 349 673 311 460 c 0
 272 237 379 130 547 130 c 0
 735 130 871 237 910 460 c 0
 948 673 832 795 664 795 c 0
550 -20 m 0
 264 -20 179 164 231 460 c 0
 281 746 473 940 740 940 c 0
 977 940 1132 756 1080 460 c 0
 1026 154 816 -20 550 -20 c 0
265 190 m 1
 191 0 l 1
 62 0 l 1
 297 1330 l 1
 466 1330 l 1
 265 190 l 1
EndSplineSet
EndChar

StartChar: h.alt
Encoding: 1114113 -1 62
Width: 1200
Flags: HMW
LayerCount: 2
Fore
SplineSet
1069 570 m 2
 968 0 l 1
 799 0 l 1
 901 580 l 2
 928 733 879 810 731 810 c 0
 543 810 424 653 378 390 c 2
 309 0 l 1
 140 0 l 1
 375 1330 l 5
 544 1330 l 5
 441 750 l 1
 366 550 l 1
 394 706 517 940 794 940 c 0
 1021 940 1111 806 1069 570 c 2
EndSplineSet
EndChar

StartChar: zero
Encoding: 48 48 63
Width: 1200
Flags: HMW
LayerCount: 2
Fore
SplineSet
510 650 m 0
 510 723 561 775 634 775 c 0
 707 775 759 723 759 650 c 0
 759 577 712 525 639 525 c 0
 566 525 510 577 510 650 c 0
515 -20 m 0
 219 -20 68 154 155 650 c 0
 237 1116 475 1320 752 1320 c 0
 1029 1320 1196 1116 1114 650 c 0
 1027 154 811 -20 515 -20 c 0
729 1190 m 0
 541 1190 383 1033 315 650 c 0
 246 257 330 110 538 110 c 0
 746 110 885 257 954 650 c 0
 1022 1033 917 1190 729 1190 c 0
EndSplineSet
Substitution2: "'ss02' Style Set 2 lookup 6-1" zero.alt
EndChar

StartChar: one
Encoding: 49 49 64
Width: 1200
Flags: HMW
LayerCount: 2
Fore
SplineSet
100 0 m 1
 122.922851562 130 l 1
 512.922851562 130 l 1
 694.186523438 1158 l 5
 309.2734375 960 l 1
 272.196289062 1090 l 1
 771.751953125 1320 l 1
 888.224609375 1300 l 1
 681.922851562 130 l 1
 1022.92285156 130 l 1
 1000 0 l 1
 100 0 l 1
EndSplineSet
Substitution2: "'ss02' Style Set 2 lookup 6-1" one.alt
EndChar

StartChar: two
Encoding: 50 50 65
Width: 1200
Flags: HMW
LayerCount: 2
Fore
SplineSet
194 929 m 1
 301 1139 505 1320 781 1320 c 4
 997 1320 1113 1161 1083 990 c 0
 1044 768 795 627 613 511 c 0
 480 427 270 295 161 130 c 1
 942 130 l 1
 919 0 l 1
 29 0 l 1
 -3 100 l 1
 68 273 349 505 574 642 c 0
 740 742 906 871 931 1011 c 0
 951 1124 870 1180 739 1180 c 0
 561 1180 415 1022 330 879 c 1
 194 929 l 1
EndSplineSet
EndChar

StartChar: three
Encoding: 51 51 66
Width: 1200
Flags: HMW
LayerCount: 2
Fore
SplineSet
620 780 m 2
 808 843 921 907 943 1030 c 0
 963 1143 901 1194 763 1194 c 1
 765 1320 l 1
 1011 1320 1132 1186 1104 1030 c 0
 1081 899 953 813 818 760 c 1
 1020 758 1103 645 1074 480 c 0
 1017 154 636 -73 61 -233 c 1
 38 -105 l 1
 532 45 865 192 917 485 c 0
 942 628 855 692 677 650 c 2
 507 610 l 1
 499 740 l 1
 620 780 l 2
377 984 m 5
 258 1049 l 1
 353 1189 549 1320 765 1320 c 1
 763 1194 l 1
 615 1194 447 1087 377 984 c 5
EndSplineSet
EndChar

StartChar: four
Encoding: 52 52 67
Width: 1200
Flags: HMW
LayerCount: 2
Fore
SplineSet
616 -220 m 1
 763 610 l 1
 907 610 l 1
 760 -220 l 1
 616 -220 l 1
134 200 m 1
 1065 200 l 1
 1042 70 l 1
 2 70 l 1
 -45 200 l 1
 308 560 580 850 750 1360 c 1
 910 1360 l 1
 740 850 487 560 134 200 c 1
EndSplineSet
EndChar

StartChar: five
Encoding: 53 53 68
Width: 1200
Flags: HMW
LayerCount: 2
Fore
SplineSet
793 845 m 1
 1026 844 1139 695 1101 480 c 4
 1038 124 579 -110 53 -220 c 1
 46 -90 l 1
 490 0 895 252 938 495 c 0
 961 628 906 705 738 705 c 1
 793 845 l 1
449 1300 m 1
 1189 1300 l 1
 1165 1160 l 1
 425 1160 l 1
 449 1300 l 1
184 564 m 1
 449 1300 l 1
 583 1270 l 1
 327 573 l 1
 253 546 l 1
 401 706 579 845 793 845 c 1
 738 705 l 1
 580 705 419 606 313 513 c 1
 184 564 l 1
EndSplineSet
EndChar

StartChar: six
Encoding: 54 54 69
Width: 1200
VWidth: 2310
Flags: HMW
LayerCount: 2
Back
SplineSet
649 -20 m 4
 323 -20 150 214 150 650 c 4
 150 1076 342 1320 649 1320 c 4
 956 1320 1149 1076 1149 650 c 4
 1149 214 975 -20 649 -20 c 4
649 1180 m 4
 461 1180 310 1003 310 650 c 4
 310 287 441 120 649 120 c 4
 857 120 989 287 989 650 c 4
 989 1003 837 1180 649 1180 c 4
EndSplineSet
Fore
SplineSet
1081 1396 m 1
 735 1214 348 934 279 540 c 1
 236 529 l 1
 339 733 519 900 761 900 c 0
 983 900 1184 740 1128 420 c 0
 1079 140 846 -20 564 -20 c 4
 262 -20 73 210 133 550 c 0
 222 1052 672 1340 1001 1520 c 1
 1081 1396 l 1
970 450 m 0
 1010 678 870 762 702 762 c 0
 516 762 323 600 295 440 c 0
 260 242 361 120 579 120 c 0
 767 120 935 252 970 450 c 0
EndSplineSet
EndChar

StartChar: seven
Encoding: 55 55 70
Width: 1200
Flags: HMW
LayerCount: 2
Fore
SplineSet
1239 1300 m 1
 1280 1190 l 1
 927 830 501 290 341 -220 c 5
 206 -190 l 5
 376 320 734 810 1087 1170 c 1
 415 1170 l 1
 291 860 l 1
 172 860 l 1
 289 1300 l 1
 1239 1300 l 1
EndSplineSet
EndChar

StartChar: eight
Encoding: 56 56 71
Width: 1200
Flags: HMW
LayerCount: 2
Fore
SplineSet
639 711 m 0
 403 711 267 805 273 991 c 4
 280.071056464 1210.20275039 510 1321 727 1321 c 0
 944 1321 1159 1217 1121 1001 c 0
 1083 785 875 711 639 711 c 0
725 1196 m 0
 597 1196 448 1124 425 991 c 0
 405 878 526 796 654 796 c 0
 792 796 943 868 965 991 c 0
 988 1124 863 1196 725 1196 c 0
530 -20 m 0
 254 -20 36 134 79 380 c 0
 122 626 390 756 647 756 c 0
 904 756 1120 606 1077 360 c 0
 1034 114 806 -20 530 -20 c 0
631 661 m 0
 463 661 278 553 247 380 c 0
 215 197 346 115 534 115 c 0
 722 115 885 197 917 380 c 0
 948 553 799 661 631 661 c 0
EndSplineSet
EndChar

StartChar: hyphen
Encoding: 45 45 73
Width: 1200
Flags: HMW
LayerCount: 2
Fore
SplineSet
319 740 m 5
 981 740 l 5
 959 610 l 5
 297 610 l 5
 319 740 l 5
EndSplineSet
EndChar

StartChar: plus
Encoding: 43 43 74
Width: 1200
Flags: HMW
LayerCount: 2
Fore
SplineSet
641 1030 m 5
 763 1030 l 5
 637 320 l 5
 515 320 l 5
 641 1030 l 5
278 730 m 5
 1020 730 l 5
 1000 620 l 5
 258 620 l 5
 278 730 l 5
EndSplineSet
EndChar

StartChar: equal
Encoding: 61 61 75
Width: 1200
Flags: HMW
LayerCount: 2
Fore
SplineSet
309 910 m 1
 1051 910 l 1
 1029 780 l 1
 287 780 l 1
 309 910 l 1
250 570 m 5
 992 570 l 5
 969 440 l 5
 227 440 l 5
 250 570 l 5
EndSplineSet
EndChar

StartChar: colon
Encoding: 58 58 76
Width: 1200
VWidth: 2379
Flags: HMW
LayerCount: 2
Fore
SplineSet
511 790 m 4
 511 878 572 940 660 940 c 4
 748 940 809 878 809 790 c 4
 809 702 753 640 665 640 c 4
 577 640 511 702 511 790 c 4
391 130 m 0
 391 218 452 280 540 280 c 0
 628 280 689 218 689 130 c 0
 689 42 633 -20 545 -20 c 0
 457 -20 391 42 391 130 c 0
EndSplineSet
EndChar

StartChar: semicolon
Encoding: 59 59 77
Width: 1200
VWidth: 2379
Flags: HMW
LayerCount: 2
Fore
SplineSet
324 -320 m 5
 470 290 l 1
 680 290 l 1
 444 -320 l 5
 324 -320 l 5
511 790 m 0
 511 878 572 940 660 940 c 0
 748 940 809 878 809 790 c 0
 809 702 753 640 665 640 c 0
 577 640 511 702 511 790 c 0
EndSplineSet
EndChar

StartChar: less
Encoding: 60 60 78
Width: 1200
Flags: HMW
LayerCount: 2
Fore
SplineSet
285 770 m 1
 1038 1060 l 1
 1055 930 l 1
 369 675 l 1
 965 420 l 1
 912 300 l 5
 261 590 l 5
 285 770 l 1
EndSplineSet
EndChar

StartChar: slash
Encoding: 47 47 79
Width: 1200
Flags: HMW
LayerCount: 2
Fore
SplineSet
972 1350 m 5
 1105 1300 l 5
 218 -160 l 5
 85 -110 l 5
 972 1350 l 5
EndSplineSet
EndChar

StartChar: greater
Encoding: 62 62 80
Width: 1200
Flags: HMW
LayerCount: 2
Fore
SplineSet
1027 760 m 5
 993 570 l 1
 240 280 l 1
 223 420 l 1
 909 675 l 1
 313 930 l 1
 376 1050 l 5
 1027 760 l 5
EndSplineSet
EndChar

StartChar: numbersign
Encoding: 35 35 81
Width: 1200
Flags: HMW
LayerCount: 2
Fore
SplineSet
184 935 m 5
 1276 935 l 5
 1254 810 l 1
 162 810 l 1
 184 935 l 5
54 540 m 1
 1146 540 l 1
 1124 415 l 1
 32 415 l 1
 54 540 l 1
1061 1310 m 1
 1186 1290 l 1
 647 -10 l 1
 522 10 l 1
 1061 1310 l 1
631 1310 m 1
 756 1290 l 1
 217 -10 l 1
 92 10 l 1
 631 1310 l 1
EndSplineSet
EndChar

StartChar: dollar
Encoding: 36 36 82
Width: 1200
Flags: HMW
LayerCount: 2
Fore
SplineSet
550 40 m 1
 540 -260 l 1
 360 -260 l 1
 450 40 l 1
 550 40 l 1
680 1260 m 1
 690 1560 l 1
 870 1560 l 1
 780 1260 l 1
 680 1260 l 1
1028 976 m 5
 898 1089 802 1180 664 1180 c 0
 533 1180 419 1114 419 981 c 0
 419 861 505 802 661 742 c 0
 877 659 1089 613 1089 380 c 0
 1089 130 832 -29 580 -29 c 0
 353 -29 162 71 12 221 c 1
 120 341 l 1
 240 222 397 111 560 111 c 0
 802 111 929 232 929 371 c 0
 929 515 765 538 611 599 c 0
 431 670 259 758 259 970 c 0
 259 1201 448 1320 674 1320 c 0
 860 1320 1017 1229 1137 1089 c 1
 1028 976 l 5
EndSplineSet
EndChar

StartChar: percent
Encoding: 37 37 83
Width: 1200
Flags: HMW
LayerCount: 2
Back
SplineSet
844 1350 m 5
 986 1300 l 5
 356 -50 l 5
 214 0 l 5
 844 1350 l 5
EndSplineSet
Fore
SplineSet
897 280 m 4
 917 393 902 455 824 455 c 4
 746 455 699 393 679 280 c 4
 659 167 675 105 753 105 c 4
 831 105 877 167 897 280 c 4
543 280 m 4
 574 456 679 580 836 580 c 4
 1003 580 1064 456 1033 280 c 4
 1000 94 907 -20 740 -20 c 4
 583 -20 510 94 543 280 c 4
500 1020 m 4
 520 1133 516 1205 428 1205 c 4
 350 1205 302 1133 282 1020 c 4
 262 907 277 845 355 845 c 4
 433 845 480 907 500 1020 c 4
146 1020 m 4
 177 1196 282 1320 439 1320 c 4
 565 1320 639 1246 745 1246 c 4
 855 1246 950 1302 1098 1440 c 5
 1178 1370 l 5
 118 -100 l 5
 15 -50 l 5
 1026 1344 l 5
 1034 1276 l 5
 939 1187 823 1141 730 1141 c 4
 656 1141 588 1178 571 1204 c 5
 603 1201 l 5
 629 1164 646 1076 631 990 c 4
 611 874 510 720 343 720 c 4
 186 720 113 834 146 1020 c 4
EndSplineSet
EndChar

StartChar: ampersand
Encoding: 38 38 84
Width: 1200
Flags: HMW
LayerCount: 2
Fore
SplineSet
579 740 m 1
 1141 740 l 1
 1119 610 l 1
 557 610 l 1
 579 740 l 1
913 650 m 1
 980 234 793 -20 467 -20 c 1
 469 120 l 1
 677 120 833 307 753 650 c 1
 913 650 l 1
844 1059 m 5
 787 1132 732 1170 644 1170 c 1
 647 1300 l 1
 813 1300 907 1239 971 1149 c 1
 844 1059 l 5
668 740 m 1
 576 610 l 1
 358 610 266 498 243 365 c 0
 221 242 271 120 469 120 c 1
 467 -20 l 1
 180 -20 33 134 71 350 c 0
 107 555 281 661 477 685 c 1
 355 708 222 829 254 1010 c 0
 290 1216 441 1300 647 1300 c 1
 644 1170 l 1
 516 1170 443 1103 425 1000 c 0
 400 857 480 740 668 740 c 1
EndSplineSet
EndChar

StartChar: parenleft
Encoding: 40 40 85
Width: 1200
Flags: HMW
LayerCount: 2
Fore
SplineSet
1032 1420 m 5
 1082 1350 l 5
 729 1190 552 990 492 649 c 4
 432 308 539 115 835 -50 c 5
 759 -130 l 5
 451 25 236 228 310 649 c 4
 384 1070 671 1270 1032 1420 c 5
EndSplineSet
EndChar

StartChar: parenright
Encoding: 41 41 86
Width: 1200
Flags: HMW
LayerCount: 2
Fore
SplineSet
235 -130 m 5
 185 -60 l 5
 538 100 715 300 775 641 c 4
 835 982 728 1175 432 1340 c 5
 508 1420 l 5
 816 1265 1031 1062 957 641 c 4
 883 220 596 20 235 -130 c 5
EndSplineSet
EndChar

StartChar: question
Encoding: 63 63 87
Width: 1200
Flags: HMW
LayerCount: 2
Back
SplineSet
244 939 m 5
 123 999 l 5
 223 1149 426 1320 722 1320 c 5
 692 1180 l 5
 524 1180 356 1082 244 939 c 5
451 130 m 4
 451 218 512 280 600 280 c 4
 688 280 749 218 749 130 c 4
 749 42 693 -20 605 -20 c 4
 517 -20 451 42 451 130 c 4
881 1020 m 4
 881 1123 810 1180 692 1180 c 5
 722 1320 l 5
 948 1320 1071 1216 1071 1070 c 4
 1071 915.77137963 976.126953125 790.510742188 793.54296875 674 c 4
 712.013097151 621.974046667 634.638671875 586.1484375 591.28125 431.115234375 c 5
 471 481.65234375 l 5
 512.307617188 655.767578125 639.733936517 725.953175998 711.538085938 776 c 4
 829.920898438 858.51171875 881 939.761454432 881 1020 c 4
EndSplineSet
Fore
SplineSet
348 933 m 1
 233 999 l 1
 333 1149 556 1320 852 1320 c 1
 802 1180 l 1
 634 1180 460 1076 348 933 c 1
391 130 m 0
 391 218 452 280 540 280 c 0
 628 280 689 218 689 130 c 0
 689 42 633 -20 545 -20 c 0
 457 -20 391 42 391 130 c 0
981 1060 m 4
 981 1143 910 1180 802 1180 c 1
 852 1320 l 1
 1078 1320 1181 1246 1181 1080 c 4
 1181 886 986 771 824 669 c 0
 712 598 654 546 621 431 c 1
 501 482 l 1
 522 596 604 682 706 750 c 0
 831 834 981 920 981 1060 c 4
EndSplineSet
EndChar

StartChar: at
Encoding: 64 64 88
Width: 1200
VWidth: 0
Flags: HMW
LayerCount: 2
Fore
SplineSet
73 550 m 0
 145 958 445 1320 853 1320 c 0
 1181 1320 1244 1098 1193 810 c 0
 1147 548 1025 300 855 300 c 0
 733 300 694 408 737 540 c 1
 754 540 l 1
 747 442 632 320 512 320 c 0
 406 320 308 406 338 574 c 0
 387 852 684 1040 924 1040 c 1
 982 991 l 1
 850 578 l 2
 814 466 806 412 865 412 c 0
 965 412 1044 648 1076 830 c 0
 1116 1056 1069 1210 863 1210 c 0
 517 1210 264 876 207 550 c 0
 158 274 232 100 518 100 c 0
 628 100 763 120 878 194 c 1
 930 95 l 1
 817 23 664 -20 526 -20 c 0
 148 -20 15 222 73 550 c 0
763 696 m 1
 844 948 l 1
 636 927 513 742 484 580 c 0
 466 478 505 450 555 450 c 0
 611 450 699 516 763 696 c 1
EndSplineSet
EndChar

StartChar: bracketleft
Encoding: 91 91 89
Width: 1200
Flags: HMW
LayerCount: 2
Fore
SplineSet
190 -51 m 1
 437 1350 l 1
 1079 1350 l 1
 1056 1220 l 1
 596 1220 l 1
 395 79 l 1
 855 79 l 1
 832 -51 l 1
 190 -51 l 1
EndSplineSet
EndChar

StartChar: backslash
Encoding: 92 92 90
Width: 1200
Flags: HMW
LayerCount: 2
Fore
SplineSet
539 1345 m 5
 912 -115 l 5
 771 -155 l 5
 398 1305 l 5
 539 1345 l 5
EndSplineSet
EndChar

StartChar: bracketright
Encoding: 93 93 91
Width: 1200
Flags: HMW
LayerCount: 2
Fore
SplineSet
1079 1350 m 5
 832 -51 l 5
 190 -51 l 5
 213 79 l 5
 673 79 l 5
 874 1220 l 5
 414 1220 l 5
 437 1350 l 5
 1079 1350 l 5
EndSplineSet
EndChar

StartChar: braceleft
Encoding: 123 123 92
Width: 1200
VWidth: 0
Flags: HMW
LayerCount: 2
Fore
SplineSet
706 1110 m 2
 712 974 l 6
 720 804 598 714 421 664 c 1
 425 684 l 1
 574 634 664 558 608 384 c 6
 542 179 l 6
 526 128 540 79 650 79 c 2
 900 79 l 1
 877 -51 l 1
 637 -51 l 2
 459 -51 312 -16 372 179 c 6
 441 404 l 6
 487 553 390 600 330 600 c 2
 260 600 l 1
 286 750 l 1
 356 750 l 2
 416 750 537 797 536 944 c 6
 536 1110 l 2
 535 1302 706 1350 884 1350 c 2
 1124 1350 l 1
 1101 1220 l 1
 851 1220 l 2
 741 1220 704 1160 706 1110 c 2
EndSplineSet
EndChar

StartChar: grave
Encoding: 96 96 93
Width: 1200
VWidth: 2048
Flags: HMW
LayerCount: 2
Fore
SplineSet
851 1075 m 5
 759 1025 l 1
 568 1291 l 1
 739 1371 l 5
 851 1075 l 5
EndSplineSet
EndChar

StartChar: asciicircum
Encoding: 94 94 94
Width: 1200
VWidth: 2048
Flags: HMW
LayerCount: 2
Fore
SplineSet
313 731 m 5
 203 801 l 1
 671 1300 l 1
 838 1300 l 1
 1119 801 l 1
 1006 731 l 5
 714 1200 l 5
 781 1200 l 5
 313 731 l 5
EndSplineSet
EndChar

StartChar: underscore
Encoding: 95 95 95
Width: 1200
Flags: HMW
LayerCount: 2
Fore
SplineSet
139 0 m 5
 901 0 l 1
 878 -130 l 1
 116 -130 l 5
 139 0 l 5
EndSplineSet
EndChar

StartChar: bar
Encoding: 124 124 96
Width: 1200
Flags: HMW
LayerCount: 2
Fore
SplineSet
665 1300 m 5
 833 1300 l 5
 546 -330 l 5
 378 -330 l 5
 665 1300 l 5
EndSplineSet
EndChar

StartChar: braceright
Encoding: 125 125 97
Width: 1200
VWidth: 0
Flags: HMW
LayerCount: 2
Fore
SplineSet
563 189 m 2
 566 376 l 2
 569 550 680 636 857 686 c 1
 853 666 l 1
 704 716 606 794 670 966 c 2
 727 1120 l 2
 746 1170 729 1220 619 1220 c 2
 369 1220 l 1
 392 1350 l 1
 632 1350 l 2
 810 1350 964 1312 897 1120 c 2
 837 946 l 2
 785 798 888 750 948 750 c 2
 1018 750 l 1
 992 600 l 1
 922 600 l 2
 862 600 748 555 742 406 c 2
 733 189 l 2
 726 -5 563 -51 385 -51 c 2
 145 -51 l 1
 168 79 l 1
 418 79 l 2
 528 79 562 138 563 189 c 2
EndSplineSet
EndChar

StartChar: asciitilde
Encoding: 126 126 99
Width: 1200
VWidth: 2048
Flags: HMW
LayerCount: 2
Back
SplineSet
977 761 m 4
 977 660.094726562 911.005859375 578 811 578 c 4
 719.5 578 658.50390625 627.1328125 600 675 c 4
 541.49609375 722.8671875 480.5 772 389 772 c 4
 288.994140625 772 223 689.905273438 223 589 c 1028
EndSplineSet
Fore
SplineSet
173 539 m 1
 206 727 315 837 457 837 c 0
 594 837 639 772 689 725 c 0
 739 676 778 643 834 643 c 0
 902 643 955 698 975 811 c 1
 1105 811 l 1
 1072 622 963 513 821 513 c 0
 684 513 639 578 589 625 c 0
 539 674 500 707 444 707 c 0
 376 707 323 652 303 539 c 1
 173 539 l 1
EndSplineSet
EndChar

StartChar: cent
Encoding: 162 162 101
Width: 1200
Flags: HMW
LayerCount: 2
Fore
SplineSet
1099 797 m 5
 1003 680 l 5
 962 733 838 800 711 800 c 5
 746 940 l 5
 902 940 1034 880 1099 797 c 5
617 40 m 1
 604 -260 l 1
 424 -260 l 1
 517 40 l 1
 617 40 l 1
665 880 m 1
 678 1180 l 1
 858 1180 l 1
 765 880 l 1
 665 880 l 1
711 800 m 5
 518 800 345 671 306 448 c 4
 267 225 378 125 596 125 c 5
 560 -20 l 5
 229 -20 84 164 131 430 c 4
 185 736 434 940 746 940 c 5
 711 800 l 5
980 103 m 5
 887 30 696 -20 560 -20 c 5
 596 125 l 5
 703 125 868 177 926 220 c 5
 980 103 l 5
EndSplineSet
EndChar

StartChar: sterling
Encoding: 163 163 103
Width: 1200
Flags: HMW
LayerCount: 2
Fore
SplineSet
141 690 m 5
 793 690 l 5
 770 560 l 5
 118 560 l 5
 141 690 l 5
1158 950 m 5
 998 950 l 5
 1001 1083 931 1176 793 1176 c 4
 645 1176 522 1082 484 870 c 5
 440 620 467 380 303 130 c 5
 1022 130 l 5
 999 0 l 5
 30 0 l 5
 53 130 l 5
 143 130 l 5
 307 380 280 620 324 870 c 5
 369 1125 548 1320 814 1320 c 4
 1060 1320 1184 1156 1158 950 c 5
EndSplineSet
EndChar

StartChar: currency
Encoding: 164 164 104
Width: 1200
Flags: HMW
LayerCount: 2
Fore
SplineSet
848 243 m 1
 1056 59 l 1
 906 -69 l 1
 764 172 l 1
 848 243 l 1
342 677 m 1
 134 861 l 1
 284 989 l 1
 426 748 l 1
 342 677 l 1
866 749 m 1
 1092 989 l 1
 1198 862 l 1
 925 678 l 1
 866 749 l 1
324 172 m 1
 98 -69 l 1
 -7 59 l 1
 266 243 l 1
 324 172 l 1
518 20 m 0
 252 20 117 174 167 460 c 0
 216 736 426 900 673 900 c 4
 920 900 1084 736 1035 460 c 0
 985 174 794 20 518 20 c 0
649 765 m 4
 491 765 373 643 341 460 c 0
 307 267 363 155 541 155 c 4
 719 155 827 267 861 460 c 0
 893 643 807 765 649 765 c 4
EndSplineSet
EndChar

StartChar: yen
Encoding: 165 165 105
Width: 1200
Flags: HMW
LayerCount: 2
Back
SplineSet
30 1300 m 5
 508 1300 l 5
 508 1170 l 5
 30 1170 l 5
 30 1300 l 5
710 1300 m 5
 1170 1300 l 5
 1170 1170 l 5
 710 1170 l 5
 710 1300 l 5
510 0 m 5
 510 480 l 5
 87 1300 l 5
 254 1300 l 5
 619 570 l 5
 570 570 l 5
 948 1300 l 5
 1115 1300 l 5
 679 480 l 5
 679 0 l 5
 510 0 l 5
510 450 m 5
 210 440 l 5
 210 590 l 5
 510 550 l 5
 510 450 l 5
510 210 m 5
 210 170 l 5
 210 320 l 5
 510 310 l 5
 510 210 l 5
679 310 m 5
 979 320 l 5
 979 170 l 5
 679 210 l 5
 679 310 l 5
679 550 m 5
 979 590 l 5
 979 440 l 5
 679 450 l 5
 679 550 l 5
EndSplineSet
Fore
SplineSet
179 1300 m 1
 657 1300 l 1
 634 1170 l 1
 156 1170 l 1
 179 1300 l 1
859 1300 m 1
 1319 1300 l 1
 1296 1170 l 1
 836 1170 l 1
 859 1300 l 1
430 0 m 1
 529 560 l 1
 236 1300 l 1
 403 1300 l 1
 650 630 l 1
 601 630 l 1
 1097 1300 l 1
 1264 1300 l 1
 698 560 l 1
 599 0 l 1
 430 0 l 1
523 530 m 5
 222 520 l 5
 248 670 l 5
 541 630 l 5
 523 530 l 5
472 240 m 5
 165 200 l 5
 192 350 l 5
 490 340 l 5
 472 240 l 5
659 340 m 5
 961 350 l 5
 934 200 l 5
 641 240 l 5
 659 340 l 5
710 630 m 5
 1017 670 l 5
 991 520 l 5
 692 530 l 5
 710 630 l 5
EndSplineSet
EndChar

StartChar: brokenbar
Encoding: 166 166 106
Width: 1200
Flags: HMW
LayerCount: 2
Back
SplineSet
515.5 1300 m 5
 684.5 1300 l 5
 684.5 -330 l 5
 515.5 -330 l 5
 515.5 1300 l 5
EndSplineSet
Fore
SplineSet
498 350 m 5
 666 350 l 5
 546 -330 l 5
 378 -330 l 5
 498 350 l 5
665 1300 m 1
 833 1300 l 1
 713 620 l 1
 545 620 l 1
 665 1300 l 1
EndSplineSet
EndChar

StartChar: section
Encoding: 167 167 107
Width: 1200
Flags: HMW
LayerCount: 2
Fore
SplineSet
1113 1159 m 1
 983 1050 l 1
 916 1123 827 1164 699 1164 c 4
 548 1164 467 1102 454 1028 c 4
 436 924 563 850 693 809 c 0
 916 738 1066 684 1031 486 c 0
 994 276 778 171 556 171 c 1
 572 261 l 1
 724 261 844 347 863 456 c 0
 885 582 774 614 605 661 c 0
 434 709 245 794 283 1010 c 0
 309 1156 464 1310 740 1310 c 0
 936 1310 1053 1229 1113 1159 c 1
611 664 m 1
 430 664 350 552 339 488 c 0
 314 344 463 299 597 269 c 0
 824 218 969 134 932 -74 c 0
 895 -284 678 -399 456 -399 c 0
 239 -399 69 -323 -13 -219 c 1
 102 -108 l 1
 178 -185 308 -259 480 -259 c 0
 632 -259 749 -193 768 -84 c 0
 788 32 678 74 509 121 c 0
 338 169 140 254 178 470 c 0
 202 606 364 745 640 745 c 1
 611 664 l 1
EndSplineSet
EndChar

StartChar: dieresis
Encoding: 168 168 108
Width: 1200
VWidth: 2379
Flags: HMW
LayerCount: 2
Fore
SplineSet
848 1240 m 4
 848 1306 894 1352 960 1352 c 4
 1026 1352 1072 1306 1072 1240 c 4
 1072 1174 1030 1128 964 1128 c 4
 898 1128 848 1174 848 1240 c 4
408 1240 m 4
 408 1306 454 1352 520 1352 c 4
 586 1352 632 1306 632 1240 c 4
 632 1174 590 1128 524 1128 c 4
 458 1128 408 1174 408 1240 c 4
EndSplineSet
EndChar

StartChar: ordfeminine
Encoding: 170 170 109
Width: 1200
Flags: HMW
LayerCount: 2
Fore
SplineSet
998 1104 m 2
 919 656 l 1
 769 656 l 9
 848 1104 l 2
 859 1169 849 1203 772 1203 c 0
 699 1203 593 1157 507 1103 c 5
 444 1202 l 1
 540 1269 676 1321 793 1321 c 0
 959 1321 1017 1214 998 1104 c 2
481 831 m 0
 473 785 514 764 556 764 c 0
 633 764 769 818 850 883 c 1
 881 820 l 1
 776 739 659 649 498 649 c 0
 388 649 311 715 329 817 c 0
 360 994 600 1033 864 1090 c 1
 875 992 l 1
 631 939 494 902 481 831 c 0
EndSplineSet
EndChar

StartChar: copyright
Encoding: 169 169 110
Width: 1200
Flags: HMW
LayerCount: 2
Fore
SplineSet
875 576 m 1
 770 524 l 1
 759 601 715 648 646 648 c 1
 671 746 l 1
 790 746 871 644 875 576 c 1
646 648 m 1
 541 648 464 588 444 472 c 0
 424 356 481 286 584 286 c 1
 559 184 l 1
 367 184 296 313 322 459 c 0
 353 633 483 746 671 746 c 1
 646 648 l 1
844 330 m 1
 787 269 684 184 559 184 c 1
 584 286 l 1
 669 286 740 352 772 392 c 1
 844 330 l 1
530 -20 m 0
 254 -20 41 144 97 460 c 0
 151 766 403 940 660 940 c 4
 917 940 1159 766 1105 460 c 0
 1049 144 806 -20 530 -20 c 0
661 835 m 0
 453 835 256 713 211 460 c 0
 165 197 301 85 529 85 c 0
 757 85 945 197 991 460 c 0
 1036 713 869 835 661 835 c 0
EndSplineSet
EndChar

StartChar: registered
Encoding: 174 174 111
Width: 1200
Flags: HMW
LayerCount: 2
Fore
SplineSet
677 406 m 1
 777 236 l 1
 655 186 l 1
 564 406 l 1
 677 406 l 1
347 196 m 1
 438 714 l 1
 643 714 l 2
 783 714 857 671 834 542 c 0
 812 420 710 376 583 376 c 2
 489 376 l 1
 458 196 l 1
 347 196 l 1
505 467 m 1
 599 467 l 2
 672 467 712 486 722 542 c 0
 733 605 704 624 627 624 c 2
 533 624 l 1
 505 467 l 1
530 -20 m 4
 254 -20 41 144 97 460 c 0
 151 766 403 940 660 940 c 0
 917 940 1159 766 1105 460 c 0
 1049 144 806 -20 530 -20 c 4
661 835 m 0
 453 835 256 713 211 460 c 0
 165 197 301 85 529 85 c 0
 757 85 945 197 991 460 c 0
 1036 713 869 835 661 835 c 0
EndSplineSet
EndChar

StartChar: logicalnot
Encoding: 172 172 113
Width: 1200
Flags: HMW
LayerCount: 2
Fore
SplineSet
319 740 m 1
 981 740 l 5
 927 430 l 5
 787 430 l 1
 819 610 l 1
 297 610 l 1
 319 740 l 1
EndSplineSet
EndChar

StartChar: guillemotleft
Encoding: 171 171 114
Width: 1200
Flags: HMW
LayerCount: 2
Fore
SplineSet
602 525 m 1
 1003 920 l 1
 1084 835 l 5
 777 510 l 5
 958 200 l 1
 864 130 l 1
 602 525 l 1
202 525 m 1
 603 920 l 1
 684 835 l 5
 377 510 l 5
 558 200 l 1
 464 130 l 1
 202 525 l 1
EndSplineSet
EndChar

StartChar: ordmasculine
Encoding: 186 186 115
Width: 1200
Flags: HMW
LayerCount: 2
Fore
SplineSet
630 648 m 0
 437 648 323 763 362 984 c 0
 400 1198 569 1320 749 1320 c 0
 929 1320 1064 1198 1026 984 c 0
 987 763 823 648 630 648 c 0
729 1206 m 4
 631 1206 530 1133 504 984 c 0
 476 828 538 762 650 762 c 4
 762 762 856 828 884 984 c 0
 910 1133 827 1206 729 1206 c 4
EndSplineSet
EndChar

StartChar: degree
Encoding: 176 176 116
Width: 1200
Flags: HMW
LayerCount: 2
Fore
SplineSet
676 848 m 0
 523 848 434 943 459 1084 c 0
 483 1218 599 1320 739 1320 c 4
 869 1320 977 1218 953 1084 c 0
 928 943 819 848 676 848 c 0
730 1216 m 0
 652 1216 595 1163 581 1084 c 0
 566 998 602 952 684 952 c 0
 766 952 816 998 831 1084 c 0
 845 1163 808 1216 730 1216 c 0
EndSplineSet
EndChar

StartChar: acute
Encoding: 180 180 117
Width: 1200
VWidth: 2048
Flags: HMW
LayerCount: 2
Fore
SplineSet
555.078125 1095 m 1
 773.270507812 1391 l 1
 927.637695312 1291 l 1
 642.735351562 1025 l 1
 555.078125 1095 l 1
EndSplineSet
EndChar

StartChar: plusminus
Encoding: 177 177 119
Width: 1200
Flags: HMW
LayerCount: 2
Fore
SplineSet
172 130 m 5
 914 130 l 5
 891 0 l 1
 149 0 l 1
 172 130 l 5
641 1030 m 1
 763 1030 l 1
 637 320 l 1
 515 320 l 1
 641 1030 l 1
278 730 m 1
 1020 730 l 1
 1000 620 l 1
 258 620 l 1
 278 730 l 1
EndSplineSet
EndChar

StartChar: cedilla
Encoding: 184 184 122
Width: 1200
VWidth: 0
Flags: HMW
LayerCount: 2
Fore
SplineSet
421 -490 m 256
 337 -490 251 -474 202 -434 c 257
 266 -334 l 257
 316 -366 359 -372 411 -372 c 256
 505 -372 555 -354 564 -302 c 256
 572 -254 514 -230 376 -230 c 257
 362 -176 l 257
 575 70 l 257
 707 70 l 257
 471 -194 l 257
 418 -224 l 257
 445 -184 508 -154 558 -154 c 256
 644 -154 726 -202 708 -302 c 256
 685 -430 575 -490 421 -490 c 256
EndSplineSet
EndChar

StartChar: periodcentered
Encoding: 183 183 123
Width: 1200
VWidth: 2379
Flags: HMW
LayerCount: 2
Fore
SplineSet
528 676 m 4
 528 742 574 788 640 788 c 4
 706 788 752 742 752 676 c 4
 752 610 710 564 644 564 c 4
 578 564 528 610 528 676 c 4
EndSplineSet
EndChar

StartChar: paragraph
Encoding: 182 182 124
Width: 1200
Flags: HMW
LayerCount: 2
Fore
SplineSet
695 -210 m 1
 942 1190 l 5
 1081 1190 l 5
 834 -210 l 1
 695 -210 l 1
415 -210 m 1
 545 530 l 1
 472 530 l 2
 305 530 137 664 180 910 c 0
 225 1166 422 1300 708 1300 c 2
 1270 1300 l 1
 1246 1160 l 1
 801 1190 l 1
 554 -210 l 1
 415 -210 l 1
EndSplineSet
EndChar

StartChar: mu
Encoding: 181 181 125
Width: 1200
Flags: HMW
LayerCount: 2
Fore
SplineSet
234 920 m 1
 398 920 l 1
 165 -400 l 1
 1 -400 l 1
 234 920 l 1
923 130 m 1
 1083 130 l 1
 1060 0 l 1
 900 0 l 1
 923 130 l 1
184 350 m 2
 284 920 l 1
 398 920 l 1
 296 340 l 2
 269 187 323 110 451 110 c 0
 619 110 783 267 829 530 c 2
 898 920 l 1
 1062 920 l 1
 900 0 l 1
 776 0 l 1
 770 190 l 1
 881 370 l 1
 853 214 690 -20 423 -20 c 0
 231 -20 142 114 184 350 c 2
EndSplineSet
EndChar

StartChar: uni2071
Encoding: 8305 8305 126
Width: 1200
Flags: HMW
LayerCount: 2
Fore
SplineSet
310 610 m 5
 329 720 l 5
 634 720 l 5
 719 1200 l 5
 490 1200 l 5
 507 1300 l 5
 859 1300 l 5
 757 720 l 5
 975 720 l 5
 956 610 l 5
 310 610 l 5
EndSplineSet
EndChar

StartChar: uni2072
Encoding: 8306 8306 127
Width: 1200
Flags: HMW
LayerCount: 2
Fore
SplineSet
407 1125 m 1
 529 1261 670 1320 812 1320 c 0
 961 1320 1049 1249 1029 1135 c 0
 1002 983 848 920 701 861 c 0
 578 812 511 787 478 736 c 5
 948 736 l 1
 926 610 l 1
 336 610 l 1
 293 695 l 1
 355 810 495 888 675 957 c 0
 822 1014 883 1063 895 1130 c 0
 906 1192 862 1227 780 1227 c 0
 692 1227 581 1161 481 1062 c 1
 407 1125 l 1
EndSplineSet
EndChar

StartChar: uni2070
Encoding: 8304 8304 128
Width: 1200
Flags: HMW
LayerCount: 2
Fore
SplineSet
620 590 m 0
 387 590 268 735 307 956 c 0
 345 1170 529 1320 749 1320 c 0
 969 1320 1109 1170 1071 956 c 0
 1032 735 853 590 620 590 c 0
729 1206 m 0
 591 1206 475 1105 449 956 c 0
 421 800 488 704 640 704 c 0
 792 704 901 800 929 956 c 0
 955 1105 867 1206 729 1206 c 0
EndSplineSet
EndChar

StartChar: uni2073
Encoding: 8307 8307 129
Width: 1200
Flags: HMW
LayerCount: 2
Fore
SplineSet
492 1121 m 5
 426 1192 l 5
 496 1259 647 1321 766 1321 c 4
 921 1321 1018 1253 999 1147 c 4
 981 1046 879 1003 807 983 c 5
 873 973 1001 930 978 799 c 4
 956 673 822 590 617 590 c 4
 448 590 353 677 317 744 c 5
 426 805 l 5
 465 748 545 698 636 698 c 4
 762 698 845 743 856 805 c 4
 872 893 781 924 684 924 c 6
 542 924 l 5
 561 1032 l 5
 663 1032 l 6
 760 1032 852 1064 862 1122 c 4
 871 1174 833 1213 727 1213 c 4
 626 1213 538 1158 492 1121 c 5
EndSplineSet
EndChar

StartChar: uni2074
Encoding: 8308 8308 130
Width: 1200
Flags: HMW
LayerCount: 2
Fore
SplineSet
732 610 m 1
 807 1040 l 1
 944 1110 l 1
 856 610 l 1
 732 610 l 1
408 900 m 1
 1089 900 l 1
 1069 790 l 1
 339 790 l 1
 282 920 l 1
 759 1360 l 5
 909 1360 l 5
 408 900 l 1
EndSplineSet
EndChar

StartChar: uni2075
Encoding: 8309 8309 131
Width: 1200
Flags: HMW
LayerCount: 2
Fore
SplineSet
1016 1300 m 1
 997 1190 l 1
 540 1190 l 5
 503 1037 l 1
 706 1037 l 2
 916 1037 1011 990 983 829 c 0
 957 683 822 590 617 590 c 0
 448 590 353 677 317 744 c 1
 426 805 l 1
 465 748 545 698 636 698 c 0
 762 698 843 733 859 825 c 0
 876 923 783 934 686 934 c 2
 445 934 l 1
 387 1004 l 1
 459 1300 l 1
 1016 1300 l 1
EndSplineSet
EndChar

StartChar: uni2076
Encoding: 8310 8310 132
Width: 1200
VWidth: 2310
Flags: HMW
LayerCount: 2
Fore
SplineSet
1026 1195 m 1
 713 1245 475 1145 434 910 c 1
 403 902 l 1
 469 995 615 1070 797 1070 c 0
 963 1070 1101 1005 1073 845 c 4
 1045 685 856 590 644 590 c 0
 418 590 291 708 325 903 c 0
 381 1219 691 1360 1065 1300 c 1
 1026 1195 l 1
953 843 m 0
 971 944 879 967 753 967 c 0
 613 967 457 895 446 835 c 0
 432 757 514 695 678 695 c 0
 819 695 937 755 953 843 c 0
EndSplineSet
EndChar

StartChar: uni2077
Encoding: 8311 8311 133
Width: 1200
Flags: HMW
LayerCount: 2
Fore
SplineSet
1123 1300 m 1
 1140 1198 l 5
 904 1038 715 862 613 580 c 1
 512 602 l 1
 622 884 753 1042 989 1202 c 1
 495 1202 l 1
 415 1050 l 1
 336 1050 l 1
 410 1300 l 1
 1123 1300 l 1
EndSplineSet
EndChar

StartChar: uni2079
Encoding: 8313 8313 134
Width: 1200
VWidth: 2310
Flags: HMW
LayerCount: 2
Fore
SplineSet
401 715 m 5
 714 665 951 765 992 1000 c 5
 1024 1008 l 5
 958 915 812 840 630 840 c 4
 464 840 326 905 354 1065 c 4
 382 1225 571 1320 783 1320 c 4
 1009 1320 1136 1202 1102 1007 c 4
 1046 691 736 550 362 610 c 5
 401 715 l 5
474 1067 m 4
 456 966 548 943 674 943 c 4
 814 943 970 1015 981 1075 c 4
 995 1153 913 1215 749 1215 c 4
 608 1215 490 1155 474 1067 c 4
EndSplineSet
EndChar

StartChar: uni2078
Encoding: 8312 8312 135
Width: 1200
Flags: HMW
LayerCount: 2
Fore
SplineSet
685 963 m 0
 458 963 383 1036 401 1140 c 4
 421 1252 535 1320 748 1320 c 0
 961 1320 1058 1252 1038 1140 c 4
 1018 1028 912 963 685 963 c 0
731 1227 m 0
 585 1227 526 1183 517 1133 c 4
 509 1088 550 1027 696 1027 c 0
 850 1027 912 1081 921 1133 c 4
 930 1183 885 1227 731 1227 c 0
619 590 m 0
 362 590 256 656 281 800 c 0
 305 934 448 997 691 997 c 0
 934 997 1055 934 1031 800 c 0
 1006 656 876 590 619 590 c 0
678 925 m 0
 512 925 422 895 408 815 c 0
 393 728 456 691 637 691 c 0
 818 691 895 728 910 815 c 0
 924 895 844 925 678 925 c 0
EndSplineSet
EndChar

StartChar: fraction
Encoding: 8260 8260 146
Width: 1200
VWidth: 2048
Flags: HMW
LayerCount: 2
Fore
SplineSet
1129 1300 m 1
 293 130 l 1
 163 130 l 1
 999 1300 l 1
 1129 1300 l 1
EndSplineSet
EndChar

StartChar: onequarter
Encoding: 188 188 147
Width: 1200
Flags: HMW
LayerCount: 2
Fore
SplineSet
99 680 m 1
 1101 680 l 1
 1101 570 l 1
 99 570 l 1
 99 680 l 1
EndSplineSet
Refer: 126 8305 S 1 0 0 1 30 300 2
Refer: 130 8308 N 1 0 0 1 -190 -1010 2
EndChar

StartChar: threequarters
Encoding: 190 190 148
Width: 1200
Flags: HMW
LayerCount: 2
Fore
SplineSet
99 680 m 1
 1101 680 l 1
 1101 570 l 1
 99 570 l 1
 99 680 l 1
EndSplineSet
Refer: 129 8307 S 1 0 0 1 30 300 2
Refer: 130 8308 N 1 0 0 1 -190 -1010 2
EndChar

StartChar: onehalf
Encoding: 189 189 149
Width: 1200
Flags: HMW
LayerCount: 2
Fore
SplineSet
99 680 m 1
 1101 680 l 1
 1101 570 l 1
 99 570 l 1
 99 680 l 1
EndSplineSet
Refer: 126 8305 S 1 0 0 1 30 300 2
Refer: 127 8306 N 1 0 0 1 -190 -1010 2
EndChar

StartChar: multiply
Encoding: 215 215 152
Width: 1200
Flags: HMW
LayerCount: 2
Fore
SplineSet
310 887 m 5
 388 965 l 5
 890 463 l 5
 812 385 l 5
 310 887 l 5
299 452 m 5
 823 976 l 5
 901 898 l 5
 377 374 l 5
 299 452 l 5
EndSplineSet
EndChar

StartChar: divide
Encoding: 247 247 154
Width: 1200
Flags: HMW
LayerCount: 2
Fore
SplineSet
229 730 m 1
 971 730 l 1
 971 620 l 1
 229 620 l 1
 229 730 l 1
EndSplineSet
Refer: 59 46 S 0.75 0 0 0.75 150 852 2
Refer: 59 46 N 0.75 0 0 0.75 150 302 2
EndChar

StartChar: dotlessi
Encoding: 305 305 155
Width: 1200
Flags: HMW
HStem: -25 155<653.76 791.045> 780 140<342 618>
AnchorPoint: "Anchor-2" 597 0 basechar 0
AnchorPoint: "Anchor-0" 676 920 basechar 0
LayerCount: 2
Fore
SplineSet
628 780 m 5
 318 780 l 1
 342 920 l 1
 821 920 l 1
 668 265 l 2
 645.996356124 170.801393865 644.384765625 130 697 130 c 0
 767 130 848 214 927 333 c 1
 1046 273 l 1
 924 93 806 -25 666 -25 c 0
 536 -25 448.759093164 43.1338981444 495 240 c 2
 622.57981756 783.158494869 l 1
 628 780 l 5
EndSplineSet
EndChar

StartChar: AE
Encoding: 198 198 156
Width: 1200
Flags: HMW
LayerCount: 2
Fore
SplineSet
280 1300 m 5
 629 1300 l 5
 610 1190 l 5
 257 1170 l 5
 280 1300 l 5
55 -20 m 5
 -117 -20 l 5
 629 1300 l 5
 829 1300 l 5
 737 1230 l 5
 55 -20 l 5
227 500 m 5
 740 500 l 5
 717 370 l 5
 204 370 l 5
 227 500 l 5
1061 740 m 5
 1038 605 l 5
 787 615 l 5
 702 130 l 5
 931 130 l 5
 1020 450 l 5
 1139 450 l 5
 1060 0 l 5
 370 0 l 5
 393 130 l 5
 533 130 l 5
 739 1300 l 5
 1249 1300 l 5
 1219 900 l 5
 1100 900 l 5
 1077 1170 l 5
 885 1170 l 5
 808 730 l 5
 1061 740 l 5
EndSplineSet
Substitution2: "'c2sc' Capitals to Small Capitals in Latin lookup 0 subtable" ae.sc
EndChar

StartChar: ij
Encoding: 307 307 157
Width: 1200
Flags: HMW
LayerCount: 2
Fore
SplineSet
390 1255 m 4
 390 1328 441 1380 514 1380 c 4
 587 1380 639 1328 639 1255 c 4
 639 1182 592 1130 519 1130 c 4
 446 1130 390 1182 390 1255 c 4
940 1255 m 4
 940 1328 991 1380 1064 1380 c 4
 1137 1380 1189 1328 1189 1255 c 4
 1189 1182 1142 1130 1069 1130 c 4
 996 1130 940 1182 940 1255 c 4
388 800 m 1
 148 780 l 1
 172 920 l 1
 561 920 l 1
 408 265 l 2
 385.99609375 170.801757812 384.384765625 120 437 120 c 0
 507 120 568 171 627 223 c 1
 703 132 l 1
 621 62 546 -25 406 -25 c 0
 276 -25 188.758789062 43.1337890625 235 240 c 2
 374.580078125 833.158203125 l 1
 388 800 l 1
469 -290 m 1
 474 -430 l 1
 287 -430 151 -331 94 -231 c 1
 235 -150 l 1
 268 -200 341 -290 469 -290 c 1
1091 920 m 1
 932 10 l 2
 889 -236 781 -430 474 -430 c 1
 469 -290 l 1
 697 -290 735 -143 762 10 c 2
 898 780 l 1
 708 780 l 1
 732 920 l 1
 1091 920 l 1
EndSplineSet
Substitution2: "'smcp' Lowercase to Small Capitals in Latin lookup 0 subtable" ij.sc
EndChar

StartChar: IJ
Encoding: 306 306 158
Width: 1200
Flags: HMW
LayerCount: 2
Fore
SplineSet
10 0 m 1
 33 130 l 1
 188 130 l 1
 371 1170 l 1
 226 1170 l 1
 249 1300 l 1
 709 1300 l 1
 686 1170 l 1
 541 1170 l 1
 358 130 l 1
 513 130 l 1
 490 0 l 1
 10 0 l 1
626 124 m 1
 774 124 907 217 945 430 c 2
 1076 1170 l 1
 807 1170 l 1
 830 1300 l 1
 1259 1300 l 1
 1105 430 l 2
 1060 174 871 -20 605 -20 c 1
 626 124 l 1
EndSplineSet
Substitution2: "'c2sc' Capitals to Small Capitals in Latin lookup 0 subtable" ij.sc
EndChar

StartChar: uni0237
Encoding: 567 567 159
Width: 1200
Flags: HMW
AnchorPoint: "Anchor-0" 706 920 basechar 0
LayerCount: 2
Fore
SplineSet
369 -290 m 1
 364 -430 l 1
 177 -430 51 -331 -6 -231 c 1
 120 -150 l 1
 153 -200 241 -290 369 -290 c 1
991 920 m 1
 832 10 l 2
 780.539605405 -284.52175523 651 -430 364 -430 c 1
 369 -290 l 1
 567 -290 629.80867392 -172.259713835 662 10 c 2
 798 780 l 1
 378 780 l 1
 402 920 l 1
 991 920 l 1
EndSplineSet
EndChar

StartChar: ae
Encoding: 230 230 160
Width: 1200
Flags: HMW
LayerCount: 2
Fore
SplineSet
727 630 m 2
 573 155 l 1
 478 120 l 9
 565 610 l 2
 581 703 580 800 492 800 c 0
 424 800 363 750 273 667 c 1
 192 770 l 1
 324 896 425 940 532 940 c 0
 719 940 755 787 727 630 c 2
206 216 m 0
 194 150 229 115 277 115 c 0
 365 115 448 177 560 300 c 1
 614 210 l 1
 520 74 380 -20 233 -20 c 0
 77 -20 11 74 33 200 c 0
 72 423 292 508 565 619 c 1
 589 528 l 1
 344 423 223 310 206 216 c 0
1055 79 m 1
 985 23 906 -20 810 -20 c 1
 816 122 l 1
 873 122 941 154 997 192 c 1
 1055 79 l 1
810 -20 m 5
 554 -20 532 194 582 480 c 4
 631 756 758 940 975 940 c 4
 1122 940 1153.9765625 803.641601562 1135 682 c 4
 1105.79935872 494.821064292 898.512056776 423.921163535 665 407 c 5
 684 517 l 5
 684 517 877 511 948 597 c 28
 1011 673 1001 805 921 805 c 4
 793 805 728 653 694 460 c 4
 651 217 668 122 816 122 c 5
 810 -20 l 5
EndSplineSet
Substitution2: "'smcp' Lowercase to Small Capitals in Latin lookup 0 subtable" ae.sc
EndChar

StartChar: dagger
Encoding: 8224 8224 176
Width: 1200
Flags: HMW
LayerCount: 2
Fore
SplineSet
678 1300 m 1
 820 1300 l 1
 591 0 l 1
 449 0 l 1
 678 1300 l 1
215 1000 m 5
 1177 1000 l 5
 1156 880 l 5
 194 880 l 5
 215 1000 l 5
EndSplineSet
EndChar

StartChar: daggerdbl
Encoding: 8225 8225 177
Width: 1200
Flags: HMW
LayerCount: 2
Fore
SplineSet
113 420 m 5
 1075 420 l 5
 1054 300 l 5
 92 300 l 5
 113 420 l 5
678 1300 m 1
 820 1300 l 1
 591 0 l 1
 449 0 l 1
 678 1300 l 1
215 1000 m 1
 1177 1000 l 1
 1156 880 l 1
 194 880 l 1
 215 1000 l 1
EndSplineSet
EndChar

StartChar: Thorn
Encoding: 222 222 178
Width: 1200
Flags: HMW
LayerCount: 2
Fore
SplineSet
20 0 m 1
 43 130 l 1
 213 130 l 1
 396 1170 l 1
 226 1170 l 1
 249 1300 l 1
 578 1300 l 1
 534 1050 l 5
 787 1050 l 6
 1073 1050 1205 926 1163 690 c 4
 1123 464 929 340 662 340 c 6
 409 340 l 5
 372 130 l 1
 612 130 l 1
 589 0 l 1
 20 0 l 1
432 470 m 5
 685 470 l 6
 883 470 981 567 1003 690 c 4
 1026 823 982 920 764 920 c 6
 511 920 l 5
 432 470 l 5
EndSplineSet
EndChar

StartChar: germandbls
Encoding: 223 223 179
Width: 1200
Flags: HMW
LayerCount: 2
Fore
SplineSet
63 -330 m 1
 295 1000 l 2
 338 1246 456 1440 763 1440 c 1
 758 1300 l 1
 570 1300 482 1153 455 1000 c 2
 222 -330 l 1
 63 -330 l 1
763 1440 m 1
 981 1440 1082 1321 1057 1179 c 0
 1033 1042 953 1000 892 947 c 0
 834 898 787 873 777 817 c 0
 765 749 837.494419332 749.979482337 924 696 c 0
 1049 618 1114.9753397 554.585088635 1100 346 c 0
 1086 151 929 1 711 1 c 0
 657 1 568 11 508 43 c 1
 581 178 l 1
 627 152 671 145 709 145 c 0
 839 145 929 243 929 354 c 0
 929 488.974071584 890 529 793 576 c 0
 693.108386764 624.401090949 590 675 602 797 c 0
 614.6171875 925.272460938 741 981 798 1039 c 0
 857 1098 887 1133 897 1189 c 0
 909 1257 851 1300 758 1300 c 1
 763 1440 l 1
EndSplineSet
Substitution2: "'smcp' Lowercase to Small Capitals in Latin lookup 0 subtable" germandbls.sc
EndChar

StartChar: quotedblright
Encoding: 8221 8221 182
Width: 1200
Flags: HMW
LayerCount: 2
Fore
SplineSet
769 730 m 5
 916 1340 l 5
 1126 1340 l 5
 889 730 l 5
 769 730 l 5
309 730 m 5
 456 1340 l 5
 666 1340 l 5
 429 730 l 5
 309 730 l 5
EndSplineSet
EndChar

StartChar: quotereversed
Encoding: 8219 8219 187
Width: 1200
Flags: HMW
LayerCount: 2
Fore
SplineSet
782 690 m 5
 662 690 l 5
 639 1300 l 5
 849 1300 l 5
 782 690 l 5
EndSplineSet
EndChar

StartChar: guilsinglleft
Encoding: 8249 8249 189
Width: 1200
Flags: HMW
LayerCount: 2
Fore
SplineSet
402 525 m 1
 803 920 l 1
 884 835 l 5
 577 510 l 5
 758 200 l 1
 664 130 l 1
 402 525 l 1
EndSplineSet
EndChar

StartChar: perthousand
Encoding: 8240 8240 194
Width: 1200
Flags: HMW
LayerCount: 2
Fore
SplineSet
989 230 m 0
 1004 313 976 365 928 365 c 0
 870 365 826 313 811 230 c 0
 796 147 813 95 871 95 c 0
 929 95 974 147 989 230 c 0
715 230 m 0
 741 376 812 480 949 480 c 0
 1086 480 1141 376 1115 230 c 0
 1087 74 1007 -20 870 -20 c 0
 733 -20 687 74 715 230 c 0
659 230 m 4
 674 313 646 365 598 365 c 0
 540 365 496 313 481 230 c 0
 466 147 483 95 541 95 c 0
 599 95 644 147 659 230 c 4
355 230 m 0
 381 376 472 480 599 480 c 0
 746 480 781 376 755 230 c 0
 727 74 667 -20 520 -20 c 0
 393 -20 327 74 355 230 c 0
509 1070 m 0
 524 1153 506 1205 428 1205 c 0
 350 1205 306 1153 291 1070 c 0
 276 987 305 945 373 945 c 0
 441 945 494 987 509 1070 c 0
155 1070 m 0
 181 1216 282 1320 439 1320 c 0
 565 1320 659 1246 815 1246 c 0
 975 1246 1056 1282 1176 1370 c 1
 1243 1290 l 1
 39 130 l 1
 -41 200 l 1
 1104 1274 l 1
 1085 1226 l 1
 1006 1167 933 1141 790 1141 c 0
 666 1141 588 1178 571 1204 c 1
 603 1201 l 1
 629 1164 654 1126 639 1040 c 0
 619 924 508 820 361 820 c 0
 224 820 124 894 155 1070 c 0
EndSplineSet
EndChar

StartChar: uni203D
Encoding: 8253 8253 195
Width: 1200
Flags: HMW
LayerCount: 2
Fore
SplineSet
338 933 m 1
 223 999 l 1
 323 1149 546 1320 842 1320 c 1
 792 1180 l 1
 624 1180 450 1076 338 933 c 1
391 130 m 0
 391 218 452 280 540 280 c 0
 628 280 689 218 689 130 c 0
 689 42 633 -20 545 -20 c 0
 457 -20 391 42 391 130 c 0
971 1040 m 0
 971 1143 900 1180 792 1180 c 1
 842 1320 l 1
 1068 1320 1171 1236 1171 1060 c 0
 1171 896 986 771 824 669 c 0
 712 598 634 566 591 461 c 1
 581 602 l 5
 592 656 604 682 706 750 c 0
 831 834 971 930 971 1040 c 0
550 430 m 1
 580 980 l 1
 800 1040 l 1
 650 430 l 1
 550 430 l 1
EndSplineSet
EndChar

StartChar: dotbelowcomb
Encoding: 803 803 197
Width: 1200
VWidth: 2379
Flags: HMW
AnchorPoint: "Anchor-3" -600 0 mark 0
LayerCount: 2
Fore
SplineSet
-712 -352 m 0
 -712 -286 -666 -240 -600 -240 c 0
 -534 -240 -488 -286 -488 -352 c 0
 -488 -418 -530 -464 -596 -464 c 0
 -662 -464 -712 -418 -712 -352 c 0
EndSplineSet
EndChar

StartChar: uni02BC
Encoding: 700 700 198
Width: 1200
Flags: HMW
AnchorPoint: "Anchor-1" 206 920 mark 0
LayerCount: 2
Fore
SplineSet
518 726 m 5
 666 1336 l 5
 876 1336 l 5
 638 726 l 5
 518 726 l 5
EndSplineSet
EndChar

StartChar: circumflex
Encoding: 710 710 199
Width: 1200
VWidth: 2048
Flags: HMW
LayerCount: 2
Fore
SplineSet
408 1021 m 1
 316 1101 l 1
 606 1380 l 1
 884 1101 l 1
 794 1021 l 1
 576 1210 l 1
 636 1210 l 1
 408 1021 l 1
EndSplineSet
EndChar

StartChar: caron
Encoding: 711 711 200
Width: 1200
VWidth: 2048
Flags: HMW
LayerCount: 2
Fore
SplineSet
792 1370 m 1
 884 1290 l 1
 594 1011 l 1
 316 1290 l 1
 406 1370 l 1
 624 1181 l 1
 564 1181 l 1
 792 1370 l 1
EndSplineSet
EndChar

StartChar: uni02C9
Encoding: 713 713 201
Width: 1200
Flags: HMW
LayerCount: 2
Fore
SplineSet
349 1220 m 1
 851 1220 l 1
 851 1090 l 1
 349 1090 l 1
 349 1220 l 1
EndSplineSet
EndChar

StartChar: uni02CA
Encoding: 714 714 202
Width: 1200
VWidth: 2048
Flags: HMW
LayerCount: 2
Fore
SplineSet
471 1085 m 1
 647 1391 l 1
 809 1301 l 1
 561 1025 l 1
 471 1085 l 1
EndSplineSet
EndChar

StartChar: breve
Encoding: 728 728 203
Width: 1200
VWidth: 0
Flags: HMW
LayerCount: 2
Fore
SplineSet
334 1310 m 257
 476 1290 l 257
 466 1238 480 1160 600 1160 c 256
 719 1160 734 1238 724 1290 c 257
 866 1310 l 257
 876 1142 790 1030 600 1030 c 256
 410 1030 324 1142 334 1310 c 257
EndSplineSet
EndChar

StartChar: dotaccent
Encoding: 729 729 204
Width: 1200
VWidth: 2379
Flags: HMW
LayerCount: 2
Fore
SplineSet
488 1240 m 0
 488 1306 534 1352 600 1352 c 0
 666 1352 712 1306 712 1240 c 0
 712 1174 670 1128 604 1128 c 0
 538 1128 488 1174 488 1240 c 0
EndSplineSet
EndChar

StartChar: ring
Encoding: 730 730 205
Width: 1200
VWidth: 0
Flags: HMW
LayerCount: 2
Fore
SplineSet
396 1250 m 256
 396 1370 496 1450 600 1450 c 256
 704 1450 804 1370 804 1250 c 256
 804 1130 704 1050 600 1050 c 256
 496 1050 396 1130 396 1250 c 256
498 1250 m 256
 498 1184 550 1144 600 1144 c 256
 650 1144 702 1184 702 1250 c 256
 702 1316 650 1356 600 1356 c 256
 550 1356 498 1316 498 1250 c 256
EndSplineSet
EndChar

StartChar: ogonek
Encoding: 731 731 206
Width: 1200
VWidth: 0
Flags: HMW
LayerCount: 2
Fore
SplineSet
765 -250 m 257
 841 -360 l 257
 791 -400 721 -440 615 -440 c 256
 477 -440 389 -358 389 -240 c 256
 389 -122 513 -2 673 70 c 257
 735 0 l 257
 631 -44 549 -126 549 -210 c 256
 549 -272 585 -300 645 -300 c 256
 697 -300 737 -276 765 -250 c 257
EndSplineSet
EndChar

StartChar: tilde
Encoding: 732 732 207
Width: 1200
VWidth: 0
Flags: HMW
LayerCount: 2
Fore
SplineSet
258 1100 m 1
 258 1268 337 1338 439 1338 c 0
 526 1338 583 1303 641 1256 c 0
 700 1207 725 1204 751 1204 c 0
 789 1204 812 1239 812 1312 c 1
 942 1312 l 1
 942 1143 863 1074 761 1074 c 0
 674 1074 617 1109 559 1156 c 0
 500 1205 475 1208 449 1208 c 0
 411 1208 388 1173 388 1100 c 1
 258 1100 l 1
EndSplineSet
EndChar

StartChar: hungarumlaut
Encoding: 733 733 208
Width: 1200
VWidth: 2048
Flags: HMW
LayerCount: 2
Fore
SplineSet
681 1095 m 1
 847 1391 l 1
 1019 1291 l 1
 781 1025 l 1
 681 1095 l 1
281 1095 m 1
 447 1391 l 1
 619 1291 l 1
 381 1025 l 1
 281 1095 l 1
EndSplineSet
EndChar

StartChar: uni02CB
Encoding: 715 715 209
Width: 1200
VWidth: 2048
Flags: HMW
LayerCount: 2
Fore
SplineSet
729 1085 m 1
 639 1025 l 1
 391 1301 l 1
 555 1391 l 1
 729 1085 l 1
EndSplineSet
EndChar

StartChar: gravecomb
Encoding: 768 768 210
Width: 1200
VWidth: 2048
Flags: HMW
AnchorPoint: "Anchor-0" -604 920 mark 0
LayerCount: 2
Fore
SplineSet
-432 1085 m 1
 -522 1025 l 1
 -770 1301 l 1
 -606 1391 l 1
 -432 1085 l 1
EndSplineSet
EndChar

StartChar: acutecomb
Encoding: 769 769 211
Width: 1200
VWidth: 2048
Flags: HMW
AnchorPoint: "Anchor-0" -604 920 mark 0
LayerCount: 2
Fore
SplineSet
-768 1085 m 1
 -592 1391 l 1
 -430 1301 l 1
 -678 1025 l 1
 -768 1085 l 1
EndSplineSet
EndChar

StartChar: tildecomb
Encoding: 771 771 212
Width: 1200
VWidth: 0
Flags: HMW
AnchorPoint: "Anchor-0" -604 920 mark 0
LayerCount: 2
Fore
SplineSet
-942 1100 m 5
 -942 1268 -863 1338 -761 1338 c 4
 -674 1338 -617 1303 -559 1256 c 4
 -500 1207 -475 1204 -449 1204 c 4
 -411 1204 -388 1239 -388 1312 c 5
 -258 1312 l 5
 -258 1143 -337 1074 -439 1074 c 4
 -526 1074 -583 1109 -641 1156 c 4
 -700 1205 -725 1208 -751 1208 c 4
 -789 1208 -812 1173 -812 1100 c 5
 -942 1100 l 5
EndSplineSet
EndChar

StartChar: uni0302
Encoding: 770 770 213
Width: 1200
VWidth: 2048
Flags: HMW
AnchorPoint: "Anchor-0" -604 920 mark 0
LayerCount: 2
Fore
SplineSet
-792 1021 m 5
 -884 1101 l 5
 -594 1380 l 5
 -316 1101 l 5
 -406 1021 l 5
 -624 1210 l 5
 -564 1210 l 5
 -792 1021 l 5
EndSplineSet
EndChar

StartChar: uni0304
Encoding: 772 772 214
Width: 1200
Flags: HMW
AnchorPoint: "Anchor-0" -604 920 mark 0
LayerCount: 2
Fore
SplineSet
-838 1210 m 5
 -336 1210 l 5
 -359 1080 l 5
 -861 1080 l 5
 -838 1210 l 5
EndSplineSet
EndChar

StartChar: uni0306
Encoding: 774 774 215
Width: 1200
VWidth: 0
Flags: HMW
AnchorPoint: "Anchor-0" -604 920 mark 0
LayerCount: 2
Fore
SplineSet
-870 1340 m 261
 -728 1320 l 261
 -738 1268 -724 1190 -604 1190 c 260
 -485 1190 -470 1268 -480 1320 c 261
 -338 1340 l 261
 -328 1172 -414 1060 -604 1060 c 260
 -794 1060 -880 1172 -870 1340 c 261
EndSplineSet
EndChar

StartChar: uni0307
Encoding: 775 775 216
Width: 1200
VWidth: 2379
Flags: HMW
AnchorPoint: "Anchor-0" -604 920 mark 0
LayerCount: 2
Fore
SplineSet
-712 1160 m 4
 -712 1226 -666 1272 -600 1272 c 4
 -534 1272 -488 1226 -488 1160 c 4
 -488 1094 -530 1048 -596 1048 c 4
 -662 1048 -712 1094 -712 1160 c 4
EndSplineSet
EndChar

StartChar: uni0308
Encoding: 776 776 217
Width: 1200
VWidth: 2379
Flags: HMW
AnchorPoint: "Anchor-0" -604 920 mark 0
LayerCount: 2
Fore
SplineSet
-492 1160 m 4
 -492 1226 -446 1272 -380 1272 c 4
 -314 1272 -268 1226 -268 1160 c 4
 -268 1094 -310 1048 -376 1048 c 4
 -442 1048 -492 1094 -492 1160 c 4
-932 1160 m 4
 -932 1226 -886 1272 -820 1272 c 4
 -754 1272 -708 1226 -708 1160 c 4
 -708 1094 -750 1048 -816 1048 c 4
 -882 1048 -932 1094 -932 1160 c 4
EndSplineSet
EndChar

StartChar: uni030A
Encoding: 778 778 218
Width: 1200
VWidth: 0
Flags: HMW
AnchorPoint: "Anchor-0" -604 920 mark 0
LayerCount: 2
Fore
SplineSet
-804 1250 m 260
 -804 1370 -704 1450 -600 1450 c 260
 -496 1450 -396 1370 -396 1250 c 260
 -396 1130 -496 1050 -600 1050 c 260
 -704 1050 -804 1130 -804 1250 c 260
-702 1250 m 260
 -702 1184 -650 1144 -600 1144 c 260
 -550 1144 -498 1184 -498 1250 c 260
 -498 1316 -550 1356 -600 1356 c 260
 -650 1356 -702 1316 -702 1250 c 260
EndSplineSet
EndChar

StartChar: uni030B
Encoding: 779 779 219
Width: 1200
VWidth: 2048
Flags: HMW
AnchorPoint: "Anchor-0" -604 920 mark 0
LayerCount: 2
Fore
SplineSet
-519 1095 m 5
 -353 1391 l 5
 -181 1291 l 5
 -419 1025 l 5
 -519 1095 l 5
-919 1095 m 5
 -753 1391 l 5
 -581 1291 l 5
 -819 1025 l 5
 -919 1095 l 5
EndSplineSet
EndChar

StartChar: uni0312
Encoding: 786 786 220
Width: 1200
Flags: HMW
LayerCount: 2
Fore
SplineSet
-458 1264 m 5
 -569 806 l 5
 -727 806 l 5
 -548 1264 l 5
 -458 1264 l 5
EndSplineSet
EndChar

StartChar: uni0326
Encoding: 806 806 221
Width: 1200
Flags: HMW
AnchorPoint: "Anchor-3" -600 0 mark 0
LayerCount: 2
Fore
SplineSet
-758 -618 m 5
 -647 -160 l 5
 -489 -160 l 5
 -668 -618 l 5
 -758 -618 l 5
EndSplineSet
EndChar

StartChar: uni0328
Encoding: 808 808 222
Width: 1200
VWidth: 0
Flags: HMW
AnchorPoint: "Anchor-3" -550 0 mark 0
LayerCount: 2
Fore
SplineSet
-435 -250 m 257
 -359 -360 l 257
 -409 -400 -479 -440 -585 -440 c 256
 -723 -440 -811 -358 -811 -240 c 256
 -811 -122 -687 -2 -527 70 c 257
 -465 0 l 257
 -569 -44 -651 -126 -651 -210 c 256
 -651 -272 -615 -300 -555 -300 c 256
 -503 -300 -463 -276 -435 -250 c 257
EndSplineSet
EndChar

StartChar: uni0327
Encoding: 807 807 223
Width: 1200
VWidth: 0
Flags: HMW
AnchorPoint: "Anchor-3" -600 0 mark 0
LayerCount: 2
Fore
SplineSet
-633 -500 m 256
 -717 -500 -775 -484 -831 -444 c 257
 -785 -344 l 257
 -729 -376 -685 -382 -633 -382 c 256
 -539 -382 -493 -364 -493 -312 c 256
 -493 -264 -555 -240 -693 -240 c 257
 -717 -186 l 257
 -547 60 l 257
 -405 60 l 257
 -595 -204 l 257
 -653 -234 l 257
 -633 -194 -575 -164 -525 -164 c 256
 -439 -164 -349 -212 -349 -312 c 256
 -349 -440 -479 -500 -633 -500 c 256
EndSplineSet
EndChar

StartChar: thorn
Encoding: 254 254 274
Width: 1200
Flags: HMW
LayerCount: 2
Fore
SplineSet
594 115 m 0
 732 115 899 227 940 460 c 0
 983 703 871 790 713 790 c 0
 535 790 409 653 375 460 c 0
 343 277 436 115 594 115 c 0
780 940 m 0
 996 940 1157 786 1100 460 c 0
 1044 144 807 -20 610 -20 c 0
 383 -20 253 164 309 480 c 0
 359 766 544 940 780 940 c 0
526 1330 m 9
 233 -330 l 5
 74 -330 l 5
 342 1190 l 1
 172 1190 l 1
 197 1330 l 1
 526 1330 l 9
EndSplineSet
EndChar

StartChar: eth
Encoding: 240 240 293
Width: 1200
VWidth: 0
Flags: HMW
LayerCount: 2
Fore
SplineSet
506 -20 m 256
 218 -20 66 180 115 460 c 256
 161 722 384 940 634 940 c 256
 804 940 881 866 963 742 c 257
 876 772 l 257
 821 958 700 1142 508 1348 c 261
 632 1450 l 257
 985 1022 1114 728 1067 460 c 256
 1018 180 794 -20 506 -20 c 256
534 134 m 256
 718 134 872 272 905 460 c 256
 939 650 834 816 654 816 c 256
 474 816 311 650 277 460 c 256
 244 272 350 134 534 134 c 256
479 1006 m 257
 460 1100 l 257
 1058 1314 l 257
 1077 1220 l 257
 479 1006 l 257
EndSplineSet
Substitution2: "'smcp' Lowercase to Small Capitals in Latin lookup 0 subtable" eth.sc
EndChar

StartChar: Oslash
Encoding: 216 216 294
Width: 1200
Flags: HMW
LayerCount: 2
Fore
SplineSet
969.5 1415 m 5
 1101.5 1355 l 5
 331.5 -105 l 5
 199.5 -45 l 5
 969.5 1415 l 5
EndSplineSet
Refer: 14 79 N 1 0 0 1 0.5 0 2
Substitution2: "'c2sc' Capitals to Small Capitals in Latin lookup 0 subtable" oslash.sc
EndChar

StartChar: oslash
Encoding: 248 248 295
Width: 1200
Flags: HMW
LayerCount: 2
Fore
SplineSet
969.5 1005 m 1
 1081.5 925 l 1
 251.5 -115 l 1
 139.5 -35 l 1
 969.5 1005 l 1
EndSplineSet
Refer: 31 111 N 1 0 0 1 0 0 2
Substitution2: "'smcp' Lowercase to Small Capitals in Latin lookup 0 subtable" oslash.sc
EndChar

StartChar: dcroat
Encoding: 273 273 297
Width: 1200
Flags: HMW
LayerCount: 2
Fore
SplineSet
769 1160 m 1
 1271 1160 l 1
 1271 1030 l 1
 769 1030 l 1
 769 1160 l 1
275 436 m 0
 239.733398438 236.407226562 305 125 413 125 c 0
 501 125 650 177 786 400 c 1
 830 310 l 1
 680 84 546 -20 359 -20 c 0
 153 -20 47.3046875 143.596679688 105 420 c 0
 167.8984375 721.33203125 394 939 629 939 c 0
 747 939 845 876 884 790 c 1
 885 669 l 1
 845 756 747 819 650 819 c 0
 450 819 309.749023438 632.666992188 275 436 c 0
1155 1330 m 9
 896 195 l 2
 885.063040958 147.071627365 882.384422949 110 925 110 c 0
 985 110 1050 214 1089 263 c 1
 1187 193 l 1
 1085 53 998 -35 878 -35 c 0
 768 -35 703.460155855 42.3728867768 737 190 c 10
 996 1330 l 1
 1155 1330 l 9
EndSplineSet
Substitution2: "'smcp' Lowercase to Small Capitals in Latin lookup 0 subtable" dcroat.sc
EndChar

StartChar: Hbar
Encoding: 294 294 318
Width: 1200
Flags: HMW
LayerCount: 2
Fore
SplineSet
879 610 m 5
 377 610 l 5
 292 130 l 5
 451 130 l 5
 428 0 l 5
 -40 0 l 5
 -17 130 l 5
 133 130 l 5
 316 1170 l 5
 166 1170 l 5
 189 1300 l 5
 657 1300 l 5
 634 1170 l 5
 475 1170 l 5
 399 740 l 5
 901 740 l 5
 977 1170 l 5
 818 1170 l 5
 841 1300 l 5
 1309 1300 l 5
 1286 1170 l 5
 1136 1170 l 5
 953 130 l 5
 1103 130 l 5
 1080 0 l 5
 612 0 l 5
 635 130 l 5
 794 130 l 5
 879 610 l 5
139 1020 m 5
 1261 1020 l 5
 1238 890 l 5
 116 890 l 5
 139 1020 l 5
EndSplineSet
Substitution2: "'c2sc' Capitals to Small Capitals in Latin lookup 0 subtable" hbar.sc
EndChar

StartChar: hbar
Encoding: 295 295 319
Width: 1200
Flags: HMW
LayerCount: 2
Fore
SplineSet
179 1160 m 1
 681 1160 l 1
 681 1030 l 1
 179 1030 l 1
 179 1160 l 1
EndSplineSet
Refer: 62 -1 N 1 0 0 1 0 0 2
Substitution2: "'smcp' Lowercase to Small Capitals in Latin lookup 0 subtable" hbar.sc
EndChar

StartChar: kgreenlandic
Encoding: 312 312 333
Width: 1200
Flags: HMW
AnchorPoint: "Anchor-0" 798 920 basechar 0
AnchorPoint: "Anchor-2" 516 0 basechar 0
LayerCount: 2
Fore
SplineSet
300 0 m 1
 140 0 l 1
 277 780 l 1
 87 780 l 1
 112 920 l 1
 462 920 l 1
 300 0 l 1
894 654 m 0
 932.761015548 752.506321848 874 795 796 795 c 0
 708 795 526 743 390 520 c 5
 349 610 l 1
 499 836 663 940 850 940 c 0
 1026 940 1124.61488318 845.521991733 1064 670 c 0
 990.405100429 456.891887337 755 271 470 271 c 0
 392 271 314 304 275 350 c 1
 274 471 l 1
 314 424 382 391 479 391 c 0
 679 391 851.022379802 544.777699509 894 654 c 0
492.580078125 363.158203125 m 1
 641 380 l 1
 688 256 l 2
 719.026367188 174.142578125 764.384765625 131 817 131 c 0
 887 131 968 214 1047 333 c 1
 1166 273 l 1
 1044 93 926 -25 786 -25 c 0
 656 -25 591.369140625 53.0546875 535 230 c 2
 492.580078125 363.158203125 l 1
EndSplineSet
EndChar

StartChar: Lslash
Encoding: 321 321 342
Width: 1200
Flags: HMW
LayerCount: 2
Fore
SplineSet
135 620 m 261
 95 735 l 261
 655 975 l 261
 695 860 l 261
 135 620 l 261
EndSplineSet
Refer: 11 76 N 1 0 0 1 0 0 2
Substitution2: "'c2sc' Capitals to Small Capitals in Latin lookup 0 subtable" lslash.sc
EndChar

StartChar: lslash
Encoding: 322 322 343
Width: 1200
Flags: HMW
LayerCount: 2
Fore
SplineSet
245 620 m 261
 205 735 l 261
 765 975 l 261
 805 860 l 261
 245 620 l 261
EndSplineSet
Refer: 32 108 N 1 0 0 1 0 0 2
Substitution2: "'smcp' Lowercase to Small Capitals in Latin lookup 0 subtable" lslash.sc
EndChar

StartChar: Eng
Encoding: 330 330 351
Width: 1200
Flags: HMW
LayerCount: 2
Fore
SplineSet
958 0 m 1
 915 -246 783 -440 476 -440 c 1
 501 -300 l 1
 729 -300 767 -153 794 0 c 1
 958 0 l 1
335 1160 m 5
 165 1160 l 5
 189 1300 l 5
 359 1300 l 5
 335 1160 l 5
1126 950 m 6
 958 0 l 1
 794 0 l 1
 963 960 l 6
 990 1113 941 1190 813 1190 c 4
 645 1190 477 1033 439 820 c 6
 294 0 l 1
 130 0 l 1
 359 1300 l 5
 483 1300 l 5
 490 1110 l 5
 378 930 l 5
 406 1086 599 1320 866 1320 c 4
 1078 1320 1168 1186 1126 950 c 6
EndSplineSet
Substitution2: "'c2sc' Capitals to Small Capitals in Latin lookup 0 subtable" eng.sc
EndChar

StartChar: eng
Encoding: 331 331 352
Width: 1200
Flags: HMW
LayerCount: 2
Fore
SplineSet
958 0 m 5
 915 -246 783 -440 476 -440 c 5
 501 -300 l 5
 729 -300 767 -153 794 0 c 5
 958 0 l 5
268 780 m 5
 98 780 l 5
 122 920 l 5
 292 920 l 5
 268 780 l 5
1059 570 m 6
 958 0 l 5
 794 0 l 5
 896 580 l 6
 923 733 874 810 746 810 c 4
 578 810 410 653 372 440 c 6
 294 0 l 5
 130 0 l 5
 292 920 l 5
 416 920 l 5
 423 730 l 5
 311 550 l 5
 339 706 532 940 799 940 c 4
 1011 940 1101 806 1059 570 c 6
EndSplineSet
Substitution2: "'smcp' Lowercase to Small Capitals in Latin lookup 0 subtable" eng.sc
EndChar

StartChar: OE
Encoding: 338 338 359
Width: 1200
Flags: HMW
LayerCount: 2
Fore
SplineSet
739 1300 m 1
 715 1160 l 1
 527 1160 357 1003 295 650 c 0
 231 287 327 140 535 140 c 1
 510 0 l 1
 194 0 58 214 135 650 c 0
 210 1076 442 1300 739 1300 c 1
1061 740 m 1
 1038 605 l 1
 787 615 l 1
 702 130 l 1
 931 130 l 1
 1020 450 l 1
 1139 450 l 1
 1060 0 l 1
 510 0 l 1
 739 1300 l 1
 1249 1300 l 1
 1219 900 l 1
 1100 900 l 1
 1077 1170 l 1
 885 1170 l 1
 808 730 l 1
 1061 740 l 1
EndSplineSet
Substitution2: "'c2sc' Capitals to Small Capitals in Latin lookup 0 subtable" oe.sc
EndChar

StartChar: oe
Encoding: 339 339 360
Width: 1200
Flags: HMW
LayerCount: 2
Fore
SplineSet
810 -20 m 5
 554 -20 532 194 582 480 c 4
 631 756 758 940 975 940 c 4
 1122 940 1153.9765625 803.641601562 1135 682 c 4
 1105.79935872 494.821064292 898.512056776 423.921163535 665 407 c 5
 684 517 l 5
 684 517 877 511 948 597 c 28
 1011 673 1001 805 921 805 c 4
 793 805 728 653 694 460 c 4
 651 217 668 122 816 122 c 5
 810 -20 l 5
295 -20 m 0
 89 -20 36 144 92 460 c 0
 146 766 278 940 465 940 c 0
 682 940 704 766 650 460 c 0
 594 144 531 -20 295 -20 c 0
461 805 m 0
 363 805 304 673 266 460 c 0
 227 237 221 115 339 115 c 0
 467 115 497 237 536 460 c 0
 574 673 569 805 461 805 c 0
1055 79 m 1
 985 23 906 -20 810 -20 c 1
 816 122 l 1
 873 122 941 154 997 192 c 1
 1055 79 l 1
EndSplineSet
Substitution2: "'smcp' Lowercase to Small Capitals in Latin lookup 0 subtable" oe.sc
EndChar

StartChar: Tbar
Encoding: 358 358 379
Width: 1200
Flags: HMW
LayerCount: 2
Fore
SplineSet
337 670 m 5
 939 670 l 5
 916 540 l 5
 314 540 l 5
 337 670 l 5
EndSplineSet
Refer: 19 84 N 1 0 0 1 0 0 2
Substitution2: "'c2sc' Capitals to Small Capitals in Latin lookup 0 subtable" tbar.sc
EndChar

StartChar: tbar
Encoding: 359 359 380
Width: 1200
Flags: HMW
LayerCount: 2
Fore
SplineSet
181 580 m 5
 903 580 l 5
 880 450 l 5
 158 450 l 5
 181 580 l 5
EndSplineSet
Refer: 41 116 N 1 0 0 1 0 0 2
Substitution2: "'smcp' Lowercase to Small Capitals in Latin lookup 0 subtable" tbar.sc
EndChar

StartChar: longs
Encoding: 383 383 404
Width: 1200
Flags: HMW
LayerCount: 2
Fore
SplineSet
988 1300 m 1
 1003 1440 l 1
 1190 1440 1310 1371 1373 1301 c 1
 1238 1190 l 1
 1201 1220 1116 1300 988 1300 c 1
363 -330 m 5
 525 1000 l 2
 555 1248 696 1440 1003 1440 c 1
 988 1300 l 1
 790 1300 714 1152 695 1000 c 2
 532 -330 l 5
 363 -330 l 5
EndSplineSet
EndChar

StartChar: florin
Encoding: 402 402 405
Width: 1200
Flags: HMW
LayerCount: 2
Fore
SplineSet
161 -280 m 1
 166 -420 l 5
 -21 -420 -107 -321 -164 -221 c 1
 -24 -140 l 1
 9 -190 33 -280 161 -280 c 1
592 130 m 1
 574 20 l 2
 531 -226 443 -420 166 -420 c 5
 161 -280 l 1
 319 -280 377 -133 404 20 c 2
 423 130 l 1
 592 130 l 1
968 1300 m 1
 983 1440 l 1
 1170 1440 1310 1371 1373 1301 c 1
 1238 1190 l 1
 1201 1220 1096 1300 968 1300 c 1
423 130 m 1
 539 790 l 1
 319 790 l 1
 342 920 l 1
 561 920 l 1
 575 1000 l 2
 618 1246 676 1440 983 1440 c 1
 968 1300 l 1
 810 1300 772 1153 745 1000 c 2
 731 920 l 1
 1132 920 l 1
 1106 770 l 1
 708 790 l 1
 592 130 l 1
 423 130 l 1
EndSplineSet
EndChar

StartChar: uni0394
Encoding: 916 916 413
Width: 1200
Flags: HMW
LayerCount: 2
Fore
SplineSet
159 0 m 1
 -13 0 l 1
 659 1300 l 5
 859 1300 l 5
 1053 0 l 1
 881 0 l 1
 727 1230 l 5
 767 1230 l 5
 159 0 l 1
148 130 m 1
 945 130 l 1
 922 0 l 1
 125 0 l 1
 148 130 l 1
EndSplineSet
EndChar

StartChar: uni03A9
Encoding: 937 937 414
Width: 1200
Flags: HMW
LayerCount: 2
Fore
SplineSet
399 0 m 5
 -1 0 l 5
 22 130 l 5
 273 130 l 5
 295 253 l 5
 228 317 102 465 152 750 c 4
 218 1126 455 1320 752 1320 c 4
 1049 1320 1217 1126 1151 750 c 4
 1101 465 922 316 832 252 c 5
 811 130 l 5
 1062 130 l 5
 1039 0 l 5
 639 0 l 5
 684 254 l 5
 784 316 957 555 991 750 c 4
 1044 1053 915 1180 727 1180 c 4
 539 1180 365 1053 312 750 c 4
 278 555 367 316 444 254 c 5
 399 0 l 5
EndSplineSet
EndChar

StartChar: pi
Encoding: 960 960 415
Width: 1200
VWidth: 0
Flags: HMW
LayerCount: 2
Fore
SplineSet
121 570 m 5
 182 920 l 5
 297 780 l 5
 230 570 l 5
 121 570 l 5
402 860 m 261
 562 860 l 261
 410 0 l 261
 250 0 l 261
 402 860 l 261
182 920 m 261
 1152 920 l 261
 1126 770 l 261
 156 770 l 261
 182 920 l 261
832 860 m 261
 992 860 l 261
 890 282 l 262
 867 150 911 142 971 142 c 261
 943 -18 l 261
 775 -18 685 24 723 242 c 262
 832 860 l 261
EndSplineSet
EndChar

StartChar: uni1E9E
Encoding: 7838 7838 426
Width: 1200
Flags: HMW
LayerCount: 2
Fore
SplineSet
-10 0 m 1
 13 130 l 1
 143 130 l 1
 274 880 l 2
 317 1126 465 1320 772 1320 c 1
 767 1180 l 1
 579 1180 461 1033 434 880 c 2
 302 130 l 1
 443 130 l 1
 420 0 l 1
 -10 0 l 1
772 1320 m 1
 1000 1320 1140 1211 1197 1079 c 1
 822 717 l 5
 950 693 1148 588 1100 316 c 0
 1066 121 929 1 711 1 c 0
 657 1 578 21 518 53 c 1
 581 178 l 1
 627 152 671 145 709 145 c 0
 839 145 909 243 929 354 c 0
 967 571 737 599 602 677 c 1
 997 1089 l 1
 957 1147 880 1180 767 1180 c 1
 772 1320 l 1
EndSplineSet
Substitution2: "'c2sc' Capitals to Small Capitals in Latin lookup 0 subtable" germandbls.sc
EndChar

StartChar: Euro
Encoding: 8364 8364 429
Width: 1200
Flags: HMW
LayerCount: 2
Fore
SplineSet
339 730 m 1
 107 720 l 1
 133 870 l 1
 356 830 l 1
 339 730 l 1
288 440 m 1
 51 400 l 1
 77 550 l 1
 305 540 l 1
 288 440 l 1
404 540 m 1
 706 550 l 1
 680 400 l 1
 387 440 l 1
 404 540 l 1
455 830 m 1
 762 870 l 1
 736 720 l 1
 438 730 l 1
 455 830 l 1
838 1180 m 1
 873 1320 l 1
 1113 1320 1222 1194 1196 1047 c 0
 1182 969 1166 910 1161 890 c 1
 1008 890 l 1
 1014 911 1018 931 1023 961 c 0
 1052 1126 979 1180 838 1180 c 1
965 380 m 1
 1110 350 l 1
 1025 154 862 -20 585 -20 c 4
 319 -20 188 214 265 650 c 0
 340 1076 586 1320 873 1320 c 5
 838 1180 l 5
 670 1180 491 1023 425 650 c 0
 357 267 464 130 642 130 c 4
 810 130 903 256 965 380 c 1
EndSplineSet
EndChar

StartChar: trademark
Encoding: 8482 8482 430
Width: 1200
Flags: HMW
LayerCount: 2
Fore
SplineSet
267 740 m 1
 349 1200 l 1
 170 1200 l 1
 187 1300 l 1
 668 1300 l 1
 651 1200 l 1
 472 1200 l 1
 390 740 l 1
 267 740 l 1
657 740 m 1
 756 1300 l 1
 909 1300 l 1
 980 1060 l 5
 1135 1300 l 1
 1288 1300 l 1
 1189 740 l 1
 1066 740 l 1
 1137 1140 l 1
 976 870 l 1
 916 870 l 1
 851 1140 l 1
 780 740 l 1
 657 740 l 1
EndSplineSet
EndChar

StartChar: uni2150
Encoding: 8528 8528 431
Width: 1200
Flags: HMW
LayerCount: 2
Fore
SplineSet
99 680 m 1
 1101 680 l 1
 1101 570 l 1
 99 570 l 1
 99 680 l 1
EndSplineSet
Refer: 133 8311 N 1 0 0 1 -190 -1010 2
Refer: 126 8305 S 1 0 0 1 30 300 2
EndChar

StartChar: uni2151
Encoding: 8529 8529 432
Width: 1200
Flags: HMW
LayerCount: 2
Fore
SplineSet
99 680 m 1
 1101 680 l 1
 1101 570 l 1
 99 570 l 1
 99 680 l 1
EndSplineSet
Refer: 134 8313 N 1 0 0 1 -190 -1008 2
Refer: 126 8305 S 1 0 0 1 30 300 2
EndChar

StartChar: uni2152
Encoding: 8530 8530 433
Width: 1200
Flags: HMW
LayerCount: 2
Fore
SplineSet
130 290 m 1
 10 -400 l 1
 -113 -400 l 1
 7 290 l 1
 130 290 l 1
99 680 m 1
 1101 680 l 1
 1101 570 l 1
 99 570 l 1
 99 680 l 1
EndSplineSet
Refer: 128 8304 N 1 0 0 1 -40 -1010 2
Refer: 126 8305 S 1 0 0 1 30 300 2
EndChar

StartChar: onethird
Encoding: 8531 8531 434
Width: 1200
Flags: HMW
LayerCount: 2
Fore
SplineSet
99 680 m 1
 1101 680 l 1
 1101 570 l 1
 99 570 l 1
 99 680 l 1
EndSplineSet
Refer: 129 8307 N 1 0 0 1 -190 -1009 2
Refer: 126 8305 S 1 0 0 1 30 300 2
EndChar

StartChar: uni2155
Encoding: 8533 8533 435
Width: 1200
Flags: HMW
LayerCount: 2
Fore
SplineSet
99 680 m 1
 1101 680 l 1
 1101 570 l 1
 99 570 l 1
 99 680 l 1
EndSplineSet
Refer: 131 8309 N 1 0 0 1 -200 -1008 2
Refer: 126 8305 S 1 0 0 1 30 300 2
EndChar

StartChar: uni2159
Encoding: 8537 8537 436
Width: 1200
Flags: HMW
LayerCount: 2
Fore
SplineSet
99 680 m 1
 1101 680 l 1
 1101 570 l 1
 99 570 l 1
 99 680 l 1
EndSplineSet
Refer: 132 8310 N 1 0 0 1 -200 -1010 2
Refer: 126 8305 S 1 0 0 1 30 300 2
EndChar

StartChar: oneeighth
Encoding: 8539 8539 437
Width: 1200
Flags: HMW
LayerCount: 2
Fore
SplineSet
99 680 m 1
 1101 680 l 1
 1101 570 l 1
 99 570 l 1
 99 680 l 1
EndSplineSet
Refer: 135 8312 N 1 0 0 1 -190 -1010 2
Refer: 126 8305 S 1 0 0 1 30 300 2
EndChar

StartChar: twothirds
Encoding: 8532 8532 438
Width: 1200
Flags: HMW
LayerCount: 2
Fore
SplineSet
99 680 m 1
 1101 680 l 1
 1101 570 l 1
 99 570 l 1
 99 680 l 1
EndSplineSet
Refer: 127 8306 S 1 0 0 1 30 296 2
Refer: 129 8307 N 1 0 0 1 -190 -1009 2
EndChar

StartChar: uni2156
Encoding: 8534 8534 439
Width: 1200
Flags: HMW
LayerCount: 2
Fore
SplineSet
99 680 m 1
 1101 680 l 1
 1101 570 l 1
 99 570 l 1
 99 680 l 1
EndSplineSet
Refer: 131 8309 N 1 0 0 1 -200 -1008 2
Refer: 127 8306 S 1 0 0 1 30 296 2
EndChar

StartChar: uni2157
Encoding: 8535 8535 440
Width: 1200
Flags: HMW
LayerCount: 2
Fore
SplineSet
99 680 m 1
 1101 680 l 1
 1101 570 l 1
 99 570 l 1
 99 680 l 1
EndSplineSet
Refer: 129 8307 S 1 0 0 1 30 299 2
Refer: 131 8309 N 1 0 0 1 -200 -1008 2
EndChar

StartChar: uni2158
Encoding: 8536 8536 441
Width: 1200
Flags: HMW
LayerCount: 2
Fore
SplineSet
99 680 m 1
 1101 680 l 1
 1101 570 l 1
 99 570 l 1
 99 680 l 1
EndSplineSet
Refer: 130 8308 S 1 0 0 1 30 300 2
Refer: 131 8309 N 1 0 0 1 -200 -1008 2
EndChar

StartChar: uni215A
Encoding: 8538 8538 442
Width: 1200
Flags: HMW
LayerCount: 2
Fore
SplineSet
99 680 m 1
 1101 680 l 1
 1101 570 l 1
 99 570 l 1
 99 680 l 1
EndSplineSet
Refer: 131 8309 S 1 0 0 1 20 298 2
Refer: 132 8310 N 1 0 0 1 -200 -1010 2
EndChar

StartChar: threeeighths
Encoding: 8540 8540 443
Width: 1200
Flags: HMW
LayerCount: 2
Fore
SplineSet
99 680 m 1
 1101 680 l 1
 1101 570 l 1
 99 570 l 1
 99 680 l 1
EndSplineSet
Refer: 129 8307 S 1 0 0 1 30 299 2
Refer: 135 8312 N 1 0 0 1 -190 -1010 2
EndChar

StartChar: fiveeighths
Encoding: 8541 8541 444
Width: 1200
Flags: HMW
LayerCount: 2
Fore
SplineSet
99 680 m 1
 1101 680 l 1
 1101 570 l 1
 99 570 l 1
 99 680 l 1
EndSplineSet
Refer: 131 8309 S 1 0 0 1 30 300 2
Refer: 135 8312 N 1 0 0 1 -190 -1010 2
EndChar

StartChar: seveneighths
Encoding: 8542 8542 445
Width: 1200
Flags: HMW
LayerCount: 2
Fore
SplineSet
99 680 m 1
 1101 680 l 1
 1101 570 l 1
 99 570 l 1
 99 680 l 1
EndSplineSet
Refer: 133 8311 S 1 0 0 1 30 300 2
Refer: 135 8312 N 1 0 0 1 -190 -1010 2
EndChar

StartChar: partialdiff
Encoding: 8706 8706 446
Width: 1200
VWidth: 2310
Flags: HMW
LayerCount: 2
Fore
SplineSet
229 450 m 4
 229 252 374 120 562 120 c 4
 780 120 903 242 903 440 c 4
 903 600 738 762 552 762 c 4
 384 762 229 678 229 450 c 4
297 1406 m 1
 387 1520 l 1
 684 1340 1080 1032 1080 530 c 0
 1080 190 884 -20 582 -20 c 0
 300 -20 70 160 70 440 c 0
 70 760 296 900 518 900 c 0
 760 900 910 733 977 529 c 1
 936 540 l 1
 936 934 611 1224 297 1406 c 1
EndSplineSet
EndChar

StartChar: integral
Encoding: 8747 8747 447
Width: 1200
Flags: MW
LayerCount: 2
Fore
SplineSet
290 -280 m 1
 290 -420 l 1
 103 -420 30 -321 -45 -221 c 1
 81 -140 l 1
 123 -190 162 -280 290 -280 c 1
649 130 m 1
 650 20 l 2
 650 -226 567 -420 290 -420 c 1
 290 -280 l 1
 448 -280 480 -133 480 20 c 2
 480 130 l 1
 649 130 l 1
819 1300 m 1
 839 1440 l 1
 1026 1440 1149 1371 1224 1301 c 1
 1108 1190 l 1
 1066 1220 947 1300 819 1300 c 1
480 130 m 1
 479 1000 l 6
 479 1246 532 1440 839 1440 c 1
 819 1300 l 1
 661 1300 649 1153 649 1000 c 6
 649 130 l 1
 480 130 l 1
EndSplineSet
EndChar

StartChar: product
Encoding: 8719 8719 449
Width: 1200
Flags: MW
LayerCount: 2
Fore
SplineSet
1160 1300 m 5
 1160 1170 l 1
 1010 1170 l 1
 1010 130 l 1
 1160 130 l 1
 1160 0 l 1
 692 0 l 1
 692 130 l 1
 851 130 l 1
 851 1170 l 5
 349 1170 l 5
 349 130 l 1
 508 130 l 1
 508 0 l 1
 40 0 l 1
 40 130 l 1
 190 130 l 1
 190 1170 l 1
 40 1170 l 1
 40 1300 l 5
 1160 1300 l 5
EndSplineSet
EndChar

StartChar: summation
Encoding: 8721 8721 451
Width: 1200
Flags: MW
LayerCount: 2
Fore
SplineSet
639 676 m 5
 389 130 l 1
 908 130 l 1
 941 450 l 1
 1060 450 l 1
 1060 0 l 1
 70 0 l 1
 70 130 l 1
 220 130 l 1
 470 676 l 1
 639 676 l 5
470 676 m 1
 220 1170 l 1
 70 1170 l 1
 70 1300 l 1
 1020 1300 l 1
 1060 900 l 1
 941 900 l 1
 871 1170 l 1
 389 1170 l 1
 639 676 l 5
 470 676 l 1
EndSplineSet
EndChar

StartChar: emptyset
Encoding: 8709 8709 453
Width: 1200
VWidth: 0
Flags: HMW
LayerCount: 2
Fore
SplineSet
600 56 m 260
 364 56 172 248 172 484 c 260
 172 720 364 912 600 912 c 260
 836 912 1028 720 1028 484 c 260
 1028 248 836 56 600 56 c 260
600 180 m 260
 770 180 904 324 904 484 c 260
 904 652 768 788 600 788 c 260
 432 788 296 652 296 484 c 260
 296 316 432 180 600 180 c 260
248 60 m 261
 174 132 l 261
 952 908 l 261
 1028 836 l 261
 248 60 l 261
EndSplineSet
EndChar

StartChar: radical
Encoding: 8730 8730 454
Width: 1200
VWidth: 0
Flags: MW
LayerCount: 2
Fore
SplineSet
539 -400 m 257
 891 1364 l 257
 733 1256 l 257
 1057 1256 l 257
 1057 1400 l 257
 741 1400 l 257
 477 -64 l 257
 563 -104 l 257
 409 468 l 257
 143 402 l 257
 171 288 l 257
 429 352 l 257
 269 408 l 257
 539 -400 l 257
EndSplineSet
EndChar

StartChar: infinity
Encoding: 8734 8734 455
Width: 1200
VWidth: 0
Flags: MW
LayerCount: 2
Fore
SplineSet
332 311 m 256
 152 311 64 481 64 675 c 256
 64 869 152 1035 332 1035 c 256
 456 1035 558 925 602 765 c 257
 646 925 746 1035 870 1035 c 256
 1050 1035 1136 869 1136 675 c 256
 1136 481 1050 311 870 311 c 256
 746 311 626 421 602 581 c 257
 556 421 456 311 332 311 c 256
354 467 m 256
 442 467 492 541 516 675 c 257
 496 807 442 881 354 881 c 256
 254 881 232 785 232 675 c 256
 232 567 254 467 354 467 c 256
848 467 m 256
 948 467 968 567 968 675 c 256
 968 785 948 881 848 881 c 256
 760 881 706 807 686 675 c 257
 686 543 760 467 848 467 c 256
EndSplineSet
EndChar

StartChar: approxequal
Encoding: 8776 8776 456
Width: 1200
VWidth: 2048
Flags: HMW
LayerCount: 2
Fore
SplineSet
158 719 m 5
 158 907 247 1017 389 1017 c 4
 526 1017 583 952 641 905 c 4
 700 856 745 823 801 823 c 4
 869 823 912 878 912 991 c 5
 1042 991 l 5
 1042 802 953 693 811 693 c 4
 674 693 617 758 559 805 c 4
 500 854 455 887 399 887 c 4
 331 887 288 832 288 719 c 5
 158 719 l 5
158 369 m 5
 158 557 247 667 389 667 c 4
 526 667 583 602 641 555 c 4
 700 506 745 473 801 473 c 4
 869 473 912 528 912 641 c 5
 1042 641 l 5
 1042 452 953 343 811 343 c 4
 674 343 617 408 559 455 c 4
 500 504 455 537 399 537 c 4
 331 537 288 482 288 369 c 5
 158 369 l 5
EndSplineSet
EndChar

StartChar: notequal
Encoding: 8800 8800 457
Width: 1200
Flags: HMW
LayerCount: 2
Fore
SplineSet
834 1110 m 5
 956 1060 l 5
 346 240 l 1
 224 290 l 1
 834 1110 l 5
EndSplineSet
Refer: 75 61 N 1 0 0 1 0 0 2
EndChar

StartChar: lessequal
Encoding: 8804 8804 458
Width: 1200
Flags: HMW
LayerCount: 2
Fore
SplineSet
229 130 m 5
 971 130 l 5
 971 0 l 5
 229 0 l 5
 229 130 l 5
EndSplineSet
Refer: 78 60 N 1 0 0 1 0 0 2
EndChar

StartChar: greaterequal
Encoding: 8805 8805 459
Width: 1200
Flags: HMW
LayerCount: 2
Fore
SplineSet
229 130 m 5
 971 130 l 5
 971 0 l 5
 229 0 l 5
 229 130 l 5
EndSplineSet
Refer: 80 62 N 1 0 0 1 0 0 2
EndChar

StartChar: lozenge
Encoding: 9674 9674 460
Width: 1200
VWidth: 0
Flags: MW
LayerCount: 2
Fore
SplineSet
612 30 m 257
 1000 712 l 257
 612 1392 l 257
 200 712 l 257
 612 30 l 257
606 304 m 257
 362 712 l 257
 606 1120 l 261
 838 712 l 257
 606 304 l 257
EndSplineSet
EndChar

StartChar: uni2010
Encoding: 8208 8208 464
Width: 1200
Flags: HMW
LayerCount: 2
Fore
SplineSet
319 740 m 1
 981 740 l 1
 959 610 l 1
 297 610 l 1
 319 740 l 1
EndSplineSet
EndChar

StartChar: uni2011
Encoding: 8209 8209 465
Width: 1200
Flags: HMW
LayerCount: 2
Fore
SplineSet
319 740 m 5
 981 740 l 5
 959 610 l 5
 297 610 l 5
 319 740 l 5
EndSplineSet
EndChar

StartChar: figuredash
Encoding: 8210 8210 466
Width: 1200
Flags: HMW
LayerCount: 2
Fore
SplineSet
239 740 m 5
 1061 740 l 5
 1039 610 l 5
 217 610 l 5
 239 740 l 5
EndSplineSet
EndChar

StartChar: endash
Encoding: 8211 8211 467
Width: 1200
Flags: HMW
LayerCount: 2
Fore
SplineSet
159 740 m 5
 1141 740 l 5
 1119 610 l 5
 137 610 l 5
 159 740 l 5
EndSplineSet
EndChar

StartChar: emdash
Encoding: 8212 8212 468
Width: 1200
Flags: HMW
LayerCount: 2
Fore
SplineSet
79 740 m 1
 1221 740 l 5
 1199 610 l 5
 57 610 l 1
 79 740 l 1
EndSplineSet
EndChar

StartChar: uni2015
Encoding: 8213 8213 469
Width: 1200
Flags: HMW
LayerCount: 2
Fore
SplineSet
-1 740 m 5
 1301 740 l 1
 1279 610 l 1
 -23 610 l 5
 -1 740 l 5
EndSplineSet
EndChar

StartChar: uni030C
Encoding: 780 780 470
Width: 1200
VWidth: 2048
Flags: HMW
AnchorPoint: "Anchor-0" -604 920 mark 0
LayerCount: 2
Fore
SplineSet
-408 1380 m 5
 -316 1300 l 5
 -606 1021 l 5
 -884 1300 l 5
 -794 1380 l 5
 -576 1191 l 5
 -636 1191 l 5
 -408 1380 l 5
EndSplineSet
EndChar

StartChar: a.sc
Encoding: 1114114 -1 471
Width: 1200
Flags: HMW
AnchorPoint: "Anchor-0" 698.854 1020 basechar 0
AnchorPoint: "Anchor-2" 519 0 basechar 0
AnchorPoint: "Anchor-3" 965.474 -20 basechar 0
LayerCount: 2
Fore
SplineSet
320.853515625 1020 m 5
 619.853515625 1020 l 5
 600.458007812 910 l 5
 297.930664062 890 l 5
 320.853515625 1020 l 5
155.473632812 -20 m 5
 -16.5263671875 -20 l 5
 619.853515625 1020 l 5
 819.853515625 1020 l 5
 1049.47363281 -20 l 5
 877.473632812 -20 l 5
 677.510742188 950 l 5
 727.510742188 950 l 5
 155.473632812 -20 l 5
309.53125 400 m 5
 872.53125 400 l 5
 849.608398438 270 l 5
 286.608398438 270 l 5
 309.53125 400 l 5
EndSplineSet
EndChar

StartChar: b.sc
Encoding: 1114115 -1 472
Width: 1200
Flags: HMW
AnchorPoint: "Anchor-2" 506 0 basechar 0
AnchorPoint: "Anchor-0" 613.854 1020 basechar 0
LayerCount: 2
Fore
SplineSet
326.930664062 890 m 1
 156.930664062 890 l 1
 179.853515625 1020 l 1
 751.853515625 1020 l 2
 987.853515625 1020 1119.56835938 956 1086.77148438 770 c 0
 1062.79101562 634 938.926757812 510 711.926757812 510 c 1
 785.453125 530 l 1
 971.453125 530 1099.64160156 446 1070.37109375 280 c 0
 1035.81152344 84 899 0 632 0 c 2
 0 0 l 1
 22.9228515625 130 l 1
 192.922851562 130 l 1
 326.930664062 890 l 1
351.922851562 130 m 1
 644.922851562 130 l 2
 802.922851562 130 883.091796875 182 903.016601562 295 c 0
 919.415039062 388 869.346679688 450 741.346679688 450 c 2
 408.346679688 450 l 1
 351.922851562 130 l 1
714.26953125 580 m 2
 832.26953125 580 893.3203125 637 911.482421875 740 c 0
 931.407226562 853 856.930664062 890 728.930664062 890 c 2
 485.930664062 890 l 1
 431.26953125 580 l 1
 714.26953125 580 l 2
EndSplineSet
EndChar

StartChar: c.sc
Encoding: 1114116 -1 473
Width: 1200
Flags: HMW
AnchorPoint: "Anchor-3" 526 0 basechar 0
AnchorPoint: "Anchor-2" 527 0 basechar 0
AnchorPoint: "Anchor-0" 745.854 1020 basechar 0
LayerCount: 2
Fore
SplineSet
950.00390625 380 m 5
 1074.42480469 320 l 5
 973.390625 144 802.473632812 -20 515.473632812 -20 c 4
 219.473632812 -20 48.91796875 164 109.926757812 510 c 5
 269.926757812 510 l 5
 220.026367188 227 373.922851562 130 571.922851562 130 c 4
 759.922851562 130 881.666015625 276 950.00390625 380 c 5
980.849609375 640 m 5
 962.713867188 764 885.694335938 900 677.694335938 900 c 4
 499.694335938 900 314.537109375 763 269.926757812 510 c 5
 109.926757812 510 l 5
 170.935546875 856 436.379882812 1040 702.379882812 1040 c 4
 989.379882812 1040 1104.22558594 886 1131.42871094 700 c 5
 980.849609375 640 l 5
EndSplineSet
EndChar

StartChar: d.sc
Encoding: 1114117 -1 474
Width: 1200
Flags: HMW
AnchorPoint: "Anchor-2" 433 0 basechar 0
AnchorPoint: "Anchor-0" 613.854 1020 basechar 0
LayerCount: 2
Fore
SplineSet
-40 0 m 1
 -17.0771484375 130 l 1
 152.922851562 130 l 1
 286.930664062 890 l 1
 116.930664062 890 l 1
 139.853515625 1020 l 1
 711.853515625 1020 l 2
 1027.85351562 1020 1168.40917969 836 1110.92675781 510 c 0
 1055.20703125 194 829 -0 532 0 c 2
 -40 0 l 1
311.922851562 130 m 1
 514.922851562 130 l 2
 732.922851562 130 892.7890625 237 940.926757812 510 c 0
 990.827148438 793 886.930664062 890 648.930664062 890 c 2
 445.930664062 890 l 1
 311.922851562 130 l 1
EndSplineSet
EndChar

StartChar: e.sc
Encoding: 1114118 -1 475
Width: 1200
Flags: HMW
AnchorPoint: "Anchor-3" 876 0 basechar 0
AnchorPoint: "Anchor-2" 466 0 basechar 0
AnchorPoint: "Anchor-0" 673.854 1020 basechar 0
LayerCount: 2
Fore
SplineSet
806.795898438 600 m 1
 782.9921875 465 l 1
 417.754882812 475 l 5
 356.922851562 130 l 5
 850.922851562 130 l 1
 919.1875 330 l 1
 1038.1875 330 l 1
 980 0 l 1
 -10 0 l 1
 12.9228515625 130 l 1
 192.922851562 130 l 1
 326.930664062 890 l 1
 146.930664062 890 l 1
 169.853515625 1020 l 1
 1119.85351562 1020 l 1
 1101.66601562 690 l 1
 982.666015625 690 l 1
 947.930664062 890 l 1
 490.930664062 890 l 5
 438.033203125 590 l 5
 806.795898438 600 l 1
EndSplineSet
EndChar

StartChar: f.sc
Encoding: 1114119 -1 476
Width: 1200
Flags: HMW
AnchorPoint: "Anchor-2" 296 0 basechar 0
AnchorPoint: "Anchor-0" 703.854 1020 basechar 0
LayerCount: 2
Fore
SplineSet
831.506835938 570 m 5
 807.702148438 435 l 5
 437.465820312 445 l 1
 381.922851562 130 l 1
 691.922851562 130 l 1
 669 0 l 1
 20 0 l 1
 42.9228515625 130 l 1
 212.922851562 130 l 1
 346.930664062 890 l 1
 176.930664062 890 l 1
 199.853515625 1020 l 1
 1149.85351562 1020 l 1
 1131.66601562 690 l 1
 1012.66601562 690 l 1
 977.930664062 890 l 1
 515.930664062 890 l 1
 457.743164062 560 l 1
 831.506835938 570 l 5
EndSplineSet
EndChar

StartChar: g.sc
Encoding: 1114120 -1 477
Width: 1200
Flags: HMW
AnchorPoint: "Anchor-2" 557 0 basechar 0
AnchorPoint: "Anchor-0" 700.854 1020 basechar 0
LayerCount: 2
Fore
SplineSet
883.241210938 370 m 1
 934.424804688 320 l 1
 883.390625 144 732.473632812 -20 475.473632812 -20 c 0
 259.473632812 -20 48.91796875 164 109.926757812 510 c 1
 269.926757812 510 l 1
 220.026367188 227 373.922851562 130 571.922851562 130 c 0
 759.922851562 130 853.139648438 256 883.241210938 370 c 1
980.849609375 640 m 1
 962.713867188 764 855.694335938 900 677.694335938 900 c 0
 499.694335938 900 314.537109375 763 269.926757812 510 c 1
 109.926757812 510 l 1
 170.935546875 856 456.379882812 1040 702.379882812 1040 c 0
 969.379882812 1040 1104.22558594 886 1131.42871094 700 c 1
 980.849609375 640 l 1
623.400390625 490 m 1
 1063.40039062 490 l 1
 977 0 l 1
 867 0 l 1
 883.241210938 370 l 1
 602.241210938 370 l 1
 623.400390625 490 l 1
EndSplineSet
EndChar

StartChar: h.sc
Encoding: 1114121 -1 478
Width: 1200
Flags: HMW
AnchorPoint: "Anchor-2" 516 0 basechar 0
AnchorPoint: "Anchor-0" 695.854 1020 basechar 0
LayerCount: 2
Fore
SplineSet
853.874023438 470 m 5
 351.874023438 470 l 5
 291.922851562 130 l 1
 450.922851562 130 l 1
 428 0 l 1
 -40 0 l 1
 -17.0771484375 130 l 1
 132.922851562 130 l 1
 266.930664062 890 l 1
 116.930664062 890 l 1
 139.853515625 1020 l 1
 607.853515625 1020 l 1
 584.930664062 890 l 1
 425.930664062 890 l 1
 374.795898438 600 l 5
 876.795898438 600 l 5
 927.930664062 890 l 1
 768.930664062 890 l 1
 791.853515625 1020 l 1
 1259.85351562 1020 l 1
 1236.93066406 890 l 1
 1086.93066406 890 l 1
 952.922851562 130 l 1
 1102.92285156 130 l 1
 1080 0 l 1
 612 0 l 1
 634.922851562 130 l 1
 793.922851562 130 l 1
 853.874023438 470 l 5
EndSplineSet
EndChar

StartChar: i.sc
Encoding: 1114122 -1 479
Width: 1200
Flags: HMW
AnchorPoint: "Anchor-3" 522 0 basechar 0
AnchorPoint: "Anchor-2" 522 0 basechar 0
AnchorPoint: "Anchor-0" 685.854 1020 basechar 0
LayerCount: 2
Fore
SplineSet
70 0 m 1
 92.9228515625 130 l 1
 457.922851562 130 l 1
 591.930664062 890 l 1
 236.930664062 890 l 1
 259.853515625 1020 l 1
 1139.85351562 1020 l 1
 1116.93066406 890 l 1
 761.930664062 890 l 1
 627.922851562 130 l 1
 992.922851562 130 l 1
 970 0 l 1
 70 0 l 1
EndSplineSet
EndChar

StartChar: j.sc
Encoding: 1114123 -1 480
Width: 1200
Flags: HMW
AnchorPoint: "Anchor-2" 418 0 basechar 0
AnchorPoint: "Anchor-0" 825.854 1020 basechar 0
LayerCount: 2
Fore
SplineSet
81.71484375 350 m 1
 241.71484375 350 l 1
 238.262695312 217 297.864257812 124 435.864257812 124 c 0
 583.864257812 124 677.262695312 217 714.8203125 430 c 2
 796.930664062 890 l 1
 507.930664062 890 l 1
 530.853515625 1020 l 1
 1219.85351562 1020 l 1
 1196.93066406 890 l 1
 956.930664062 890 l 1
 874.8203125 430 l 2
 829.680664062 174 681.473632812 -20 415.473632812 -20 c 0
 169.473632812 -20 55.390625 144 81.71484375 350 c 1
EndSplineSet
EndChar

StartChar: k.sc
Encoding: 1114124 -1 481
Width: 1200
Flags: HMW
AnchorPoint: "Anchor-2" 581 0 basechar 0
AnchorPoint: "Anchor-0" 725.854 1020 basechar 0
LayerCount: 2
Fore
SplineSet
760.853515625 1020 m 1
 1239.85351562 1020 l 1
 1216.93066406 890 l 1
 1078.93066406 890 l 1
 685.622070312 582 l 1
 977.922851562 130 l 1
 1122.92285156 130 l 1
 1100 0 l 1
 631 0 l 1
 653.922851562 130 l 1
 788.922851562 130 l 1
 562.63671875 480 l 1
 344.661132812 310 l 1
 312.922851562 130 l 1
 471.922851562 130 l 1
 449 0 l 1
 -10 0 l 1
 12.9228515625 130 l 1
 162.922851562 130 l 1
 296.930664062 890 l 1
 146.930664062 890 l 1
 169.853515625 1020 l 1
 608.853515625 1020 l 1
 585.930664062 890 l 1
 446.930664062 890 l 1
 377.10546875 494 l 1
 878.930664062 890 l 1
 737.930664062 890 l 1
 760.853515625 1020 l 1
EndSplineSet
EndChar

StartChar: l.sc
Encoding: 1114125 -1 482
Width: 1200
Flags: HMW
AnchorPoint: "Anchor-2" 536 0 basechar 0
AnchorPoint: "Anchor-1" 825.905 663 basechar 0
AnchorPoint: "Anchor-0" 443.854 1020 basechar 0
LayerCount: 2
Fore
SplineSet
1004.453125 530 m 5
 1113.453125 530 l 5
 1000 0 l 1
 -10 0 l 1
 12.9228515625 130 l 1
 202.922851562 130 l 1
 338.694335938 900 l 1
 168.694335938 900 l 1
 189.853515625 1020 l 1
 718.853515625 1020 l 1
 697.694335938 900 l 1
 497.694335938 900 l 1
 361.922851562 130 l 1
 867.922851562 130 l 1
 1004.453125 530 l 5
EndSplineSet
EndChar

StartChar: m.sc
Encoding: 1114126 -1 483
Width: 1200
Flags: HMW
AnchorPoint: "Anchor-2" 526 0 basechar 0
AnchorPoint: "Anchor-0" 702.327 1000 basechar 0
LayerCount: 2
Fore
SplineSet
234.930664062 890 m 1
 76.9306640625 890 l 1
 99.853515625 1020 l 1
 492.853515625 1020 l 1
 649.63671875 480 l 1
 559.63671875 480 l 1
 906.853515625 1020 l 1
 1299.85351562 1020 l 1
 1276.93066406 890 l 1
 1118.93066406 890 l 1
 1000.92285156 130 l 1
 1142.92285156 130 l 1
 1120 0 l 1
 651 0 l 1
 673.922851562 130 l 1
 856.922851562 130 l 1
 946.661132812 724 l 1
 996.92578125 924 l 1
 621.71484375 350 l 1
 551.71484375 350 l 1
 368.92578125 924 l 1
 348.661132812 724 l 1
 228.922851562 130 l 1
 411.922851562 130 l 5
 389 0 l 5
 -80 0 l 1
 -57.0771484375 130 l 1
 84.9228515625 130 l 1
 234.930664062 890 l 1
EndSplineSet
EndChar

StartChar: n.sc
Encoding: 1114127 -1 484
Width: 1200
Flags: HMW
AnchorPoint: "Anchor-0" 735.854 1020 basechar 0
AnchorPoint: "Anchor-2" 546 0 basechar 0
LayerCount: 2
Fore
SplineSet
295.16796875 880 m 1
 137.16796875 880 l 1
 161.853515625 1020 l 1
 319.853515625 1020 l 1
 295.16796875 880 l 1
319.853515625 1020 m 1
 525.853515625 1020 l 1
 883.84765625 243 l 1
 1024.37988281 1040 l 1
 1173.37988281 1040 l 1
 986.473632812 -20 l 1
 848.473632812 -20 l 5
 483.715820312 747 l 1
 428.69140625 917 l 1
 412.479492188 757 l 1
 275.473632812 -20 l 1
 136.473632812 -20 l 1
 319.853515625 1020 l 1
EndSplineSet
EndChar

StartChar: o.sc
Encoding: 1114128 -1 485
Width: 1200
Flags: HMW
AnchorPoint: "Anchor-2" 519 0 basechar 0
AnchorPoint: "Anchor-0" 698.854 1020 basechar 0
LayerCount: 2
Fore
SplineSet
515.473632812 -20 m 0
 179.473632812 -20 35.970703125 204 89.9267578125 510 c 0
 142.119140625 806 385.379882812 1040 702.379882812 1040 c 0
 1019.37988281 1040 1181.11914062 806 1128.92675781 510 c 4
 1074.97070312 204 851.473632812 -20 515.473632812 -20 c 0
677.694335938 900 m 0
 459.694335938 900 289.248046875 733 249.926757812 510 c 0
 208.842773438 277 322.159179688 120 540.159179688 120 c 0
 758.159179688 120 927.842773438 277 968.926757812 510 c 4
 1008.24804688 733 895.694335938 900 677.694335938 900 c 0
EndSplineSet
EndChar

StartChar: p.sc
Encoding: 1114129 -1 486
Width: 1200
Flags: HMW
AnchorPoint: "Anchor-2" 282 0 basechar 0
AnchorPoint: "Anchor-0" 665.854 1020 basechar 0
LayerCount: 2
Fore
SplineSet
20 0 m 5
 42.9228515625 130 l 5
 212.922851562 130 l 5
 346.930664062 890 l 5
 176.930664062 890 l 5
 199.853515625 1020 l 5
 811.853515625 1020 l 6
 1078.85351562 1020 1202.515625 916 1160.90234375 680 c 4
 1121.05273438 454 941.71484375 350 693.71484375 350 c 6
 410.71484375 350 l 5
 371.922851562 130 l 5
 611.922851562 130 l 5
 589 0 l 5
 20 0 l 5
433.63671875 480 m 5
 716.63671875 480 l 6
 845.63671875 480 975.6875 537 1000.90234375 680 c 4
 1027.88085938 833 937.930664062 890 788.930664062 890 c 6
 505.930664062 890 l 5
 433.63671875 480 l 5
EndSplineSet
EndChar

StartChar: q.sc
Encoding: 1114130 -1 487
Width: 1200
Flags: HMW
AnchorPoint: "Anchor-0" 698.854 1020 basechar 0
LayerCount: 2
Fore
SplineSet
524.951171875 340 m 1
 634.951171875 340 l 1
 593.81640625 50 l 1
 572.1015625 -300 l 1
 362.1015625 -300 l 1
 463.81640625 50 l 1
 524.951171875 340 l 1
515.473632812 -20 m 0
 179.473632812 -20 35.970703125 204 89.9267578125 510 c 0
 142.119140625 806 385.379882812 1040 702.379882812 1040 c 0
 1019.37988281 1040 1181.11914062 806 1128.92675781 510 c 4
 1074.97070312 204 851.473632812 -20 515.473632812 -20 c 0
677.694335938 900 m 0
 459.694335938 900 289.248046875 733 249.926757812 510 c 0
 208.842773438 277 322.159179688 120 540.159179688 120 c 0
 758.159179688 120 927.842773438 277 968.926757812 510 c 4
 1008.24804688 733 895.694335938 900 677.694335938 900 c 0
EndSplineSet
EndChar

StartChar: r.sc
Encoding: 1114131 -1 488
Width: 1200
Flags: HMW
AnchorPoint: "Anchor-2" 506 0 basechar 0
AnchorPoint: "Anchor-0" 705.854 1020 basechar 0
LayerCount: 2
Fore
SplineSet
673.110351562 460 m 1
 796.392578125 410.736328125 815.799804688 310.405273438 830.6015625 223 c 0
 842.791992188 151.009765625 874.034179688 100 938.6328125 100 c 0
 991.6328125 100 1038.39355469 127 1065.97558594 170 c 1
 1140.39550781 110 l 1
 1096.99511719 34 1009.94726562 -40 903.947265625 -40 c 0
 807.077148438 -40 713.166015625 14.802734375 686.661132812 149 c 0
 664.83203125 259.525390625 634.717773438 380.928710938 584.293945312 410 c 1
 673.110351562 460 l 1
687.8203125 430 m 1
 684.293945312 410 l 1
 421.293945312 410 l 1
 371.922851562 130 l 1
 531.922851562 130 l 1
 509 0 l 1
 20 0 l 1
 42.9228515625 130 l 1
 212.922851562 130 l 1
 346.930664062 890 l 1
 176.930664062 890 l 1
 199.853515625 1020 l 1
 791.853515625 1020 l 2
 1058.85351562 1020 1179.56835938 956 1139.71875 730 c 0
 1101.63183594 514 935.8203125 430 687.8203125 430 c 1
444.216796875 540 m 1
 707.216796875 540 l 2
 836.216796875 540 952.740234375 577 976.192382812 710 c 0
 1001.40722656 853 917.930664062 890 768.930664062 890 c 2
 505.930664062 890 l 1
 444.216796875 540 l 1
EndSplineSet
EndChar

StartChar: s.sc
Encoding: 1114132 -1 489
Width: 1200
Flags: HMW
AnchorPoint: "Anchor-3" 556 0 basechar 0
AnchorPoint: "Anchor-2" 555 0 basechar 0
AnchorPoint: "Anchor-0" 705.854 1020 basechar 0
LayerCount: 2
Fore
SplineSet
1125.34667969 864 m 1
 995.126953125 755 l 1
 927.999023438 828 823.63671875 894 645.63671875 894 c 0
 514.63671875 894 404.5859375 837 389.774414062 753 c 0
 373.19921875 659 495.91015625 629 667.856445312 589 c 0
 894.208007812 536.34375 1091.69726562 469 1058.54785156 281 c 0
 1021.51953125 71 806.004882812 -34 534.004882812 -34 c 0
 297.004882812 -34 122.6953125 72 41.033203125 176 c 1
 151.487304688 292 l 1
 227.91015625 215 362.572265625 111 554.572265625 111 c 0
 766.572265625 111 879.091796875 182 894.784179688 271 c 0
 911.711914062 367 748.47265625 394 579.759765625 441 c 0
 409.223632812 489 190.513671875 519 232.126953125 755 c 0
 265.099609375 942 480.379882812 1040 686.379882812 1040 c 0
 932.379882812 1040 1065.68945312 934 1125.34667969 864 c 1
EndSplineSet
EndChar

StartChar: t.sc
Encoding: 1114133 -1 490
Width: 1200
Flags: HMW
AnchorPoint: "Anchor-3" 521 0 basechar 0
AnchorPoint: "Anchor-0" 698.854 1020 basechar 0
AnchorPoint: "Anchor-2" 519 0 basechar 0
LayerCount: 2
Fore
SplineSet
197.743164062 560 m 1
 88.7431640625 560 l 1
 169.853515625 1020 l 1
 1229.85351562 1020 l 1
 1148.74316406 560 l 1
 1039.74316406 560 l 1
 1061.93066406 890 l 1
 755.930664062 890 l 1
 621.922851562 130 l 1
 851.922851562 130 l 5
 829 0 l 5
 200 0 l 1
 222.922851562 130 l 1
 452.922851562 130 l 1
 586.930664062 890 l 1
 291.930664062 890 l 1
 197.743164062 560 l 1
EndSplineSet
EndChar

StartChar: u.sc
Encoding: 1114134 -1 491
Width: 1200
Flags: HMW
AnchorPoint: "Anchor-0" 698.854 1020 basechar 0
AnchorPoint: "Anchor-2" 519 0 basechar 0
AnchorPoint: "Anchor-3" 725.106 80 basechar 0
LayerCount: 2
Fore
SplineSet
165.8203125 430 m 6
 246.930664062 890 l 5
 116.930664062 890 l 5
 139.853515625 1020 l 5
 598.853515625 1020 l 5
 575.930664062 890 l 5
 406.930664062 890 l 5
 325.8203125 430 l 6
 288.262695312 217 382.159179688 120 540.159179688 120 c 4
 698.159179688 120 827.262695312 217 864.8203125 430 c 6
 946.930664062 890 l 5
 777.930664062 890 l 5
 800.853515625 1020 l 5
 1259.85351562 1020 l 5
 1236.93066406 890 l 5
 1106.93066406 890 l 5
 1024.8203125 430 l 6
 979.680664062 174 801.473632812 -20 515.473632812 -20 c 4
 229.473632812 -20 120.680664062 174 165.8203125 430 c 6
EndSplineSet
EndChar

StartChar: v.sc
Encoding: 1114135 -1 492
Width: 1200
Flags: HMW
AnchorPoint: "Anchor-0" 698.854 1020 basechar 0
AnchorPoint: "Anchor-2" 519 0 basechar 0
LayerCount: 2
Fore
SplineSet
937.930664062 890 m 5
 777.930664062 890 l 5
 800.853515625 1020 l 5
 1269.85351562 1020 l 5
 1246.93066406 890 l 5
 1119.93066406 890 l 5
 586.473632812 -20 l 1
 446.473632812 -20 l 1
 233.930664062 890 l 5
 106.930664062 890 l 5
 129.853515625 1020 l 5
 598.853515625 1020 l 5
 575.930664062 890 l 5
 415.930664062 890 l 5
 569.395507812 110 l 1
 509.395507812 110 l 1
 937.930664062 890 l 5
EndSplineSet
EndChar

StartChar: w.sc
Encoding: 1114136 -1 493
Width: 1200
Flags: HMW
AnchorPoint: "Anchor-0" 698.854 1020 basechar 0
AnchorPoint: "Anchor-2" 519 0 basechar 0
LayerCount: 2
Fore
SplineSet
342.930664062 890 m 1
 352.115234375 426 l 1
 293.927734375 96 l 1
 263.927734375 96 l 1
 591.955078125 720 l 1
 701.955078125 720 l 1
 809.927734375 96 l 5
 779.927734375 96 l 5
 848.115234375 426 l 1
 1010.93066406 890 l 1
 807.930664062 890 l 1
 830.853515625 1020 l 1
 1289.85351562 1020 l 1
 1266.93066406 890 l 1
 1156.93066406 890 l 1
 855 0 l 1
 692 0 l 1
 587.559570312 610 l 1
 667.559570312 610 l 1
 348 0 l 1
 185 0 l 1
 196.930664062 890 l 1
 86.9306640625 890 l 1
 109.853515625 1020 l 1
 558.853515625 1020 l 1
 535.930664062 890 l 1
 342.930664062 890 l 1
EndSplineSet
EndChar

StartChar: x.sc
Encoding: 1114137 -1 494
Width: 1200
Flags: HMW
AnchorPoint: "Anchor-0" 698.854 1020 basechar 0
AnchorPoint: "Anchor-2" 519 0 basechar 0
LayerCount: 2
Fore
SplineSet
179.853515625 1020 m 1
 628.853515625 1020 l 1
 605.930664062 890 l 1
 485.930664062 890 l 1
 627.912109375 612 l 1
 867.930664062 890 l 1
 747.930664062 890 l 1
 770.853515625 1020 l 1
 1219.85351562 1020 l 1
 1196.93066406 890 l 1
 1047.93066406 890 l 1
 709.158203125 534 l 1
 953.922851562 130 l 1
 1102.92285156 130 l 1
 1080 0 l 1
 611 0 l 1
 633.922851562 130 l 1
 773.922851562 130 l 1
 595.115234375 426 l 1
 311.922851562 130 l 1
 451.922851562 130 l 1
 429 0 l 1
 -40 0 l 1
 -17.0771484375 130 l 1
 131.922851562 130 l 1
 517.395507812 524 l 1
 305.930664062 890 l 1
 156.930664062 890 l 1
 179.853515625 1020 l 1
EndSplineSet
EndChar

StartChar: y.sc
Encoding: 1114138 -1 495
Width: 1200
Flags: HMW
AnchorPoint: "Anchor-0" 698.854 1020 basechar 0
AnchorPoint: "Anchor-2" 519 0 basechar 0
LayerCount: 2
Fore
SplineSet
240 0 m 1
 262.922851562 130 l 1
 452.922851562 130 l 1
 497.00390625 380 l 1
 230.930664062 890 l 1
 106.930664062 890 l 1
 129.853515625 1020 l 1
 607.853515625 1020 l 1
 584.930664062 890 l 1
 405.930664062 890 l 1
 618.346679688 450 l 1
 569.346679688 450 l 1
 947.930664062 890 l 1
 786.930664062 890 l 1
 809.853515625 1020 l 1
 1269.85351562 1020 l 1
 1246.93066406 890 l 1
 1122.93066406 890 l 1
 666.00390625 380 l 1
 621.922851562 130 l 1
 811.922851562 130 l 1
 789 0 l 1
 240 0 l 1
EndSplineSet
EndChar

StartChar: z.sc
Encoding: 1114139 -1 496
Width: 1200
Flags: HMW
AnchorPoint: "Anchor-0" 708.854 1020 basechar 0
AnchorPoint: "Anchor-2" 529 0 basechar 0
LayerCount: 2
Fore
SplineSet
982.110351562 460 m 5
 1091.11035156 460 l 5
 970 0 l 5
 40 0 l 5
 37.6328125 100 l 5
 887.16796875 880 l 5
 384.16796875 880 l 5
 308.322265625 620 l 5
 199.322265625 620 l 5
 269.853515625 1020 l 5
 1109.85351562 1020 l 5
 1112.22070312 920 l 5
 262.685546875 140 l 5
 842.685546875 140 l 5
 982.110351562 460 l 5
EndSplineSet
EndChar

StartChar: ae.sc
Encoding: 1114146 -1 503
Width: 1200
Flags: HMW
LayerCount: 2
Fore
SplineSet
230.853515625 1020 m 1
 579.853515625 1020 l 1
 560.458007812 910 l 1
 207.930664062 890 l 1
 230.853515625 1020 l 1
55.4736328125 -20 m 1
 -116.526367188 -20 l 1
 579.853515625 1020 l 1
 779.853515625 1020 l 1
 687.510742188 950 l 1
 55.4736328125 -20 l 1
227.163085938 500 m 1
 740.163085938 500 l 1
 717.241210938 370 l 1
 204.241210938 370 l 1
 227.163085938 500 l 1
1036.79589844 600 m 1
 1012.9921875 465 l 1
 762.754882812 475 l 1
 701.922851562 130 l 1
 930.922851562 130 l 1
 990.37109375 280 l 1
 1109.37109375 280 l 1
 1060 0 l 1
 370 0 l 1
 392.922851562 130 l 1
 532.922851562 130 l 1
 689.853515625 1020 l 1
 1199.85351562 1020 l 1
 1190.48242188 740 l 5
 1071.48242188 740 l 5
 1027.93066406 890 l 1
 835.930664062 890 l 1
 783.033203125 590 l 1
 1036.79589844 600 l 1
EndSplineSet
EndChar

StartChar: oslash.sc
Encoding: 1114163 -1 520
Width: 1200
VWidth: 0
Flags: HMW
LayerCount: 2
Fore
SplineSet
826 1101 m 5
 919 1059 l 5
 374 -74 l 1
 281 -32 l 1
 826 1101 l 5
EndSplineSet
Refer: 485 -1 N 1 0 0 1 0.35385 0 2
EndChar

StartChar: hbar.sc
Encoding: 1114188 -1 545
Width: 1200
Flags: HMW
LayerCount: 2
Fore
SplineSet
846.8203125 430 m 5
 344.8203125 430 l 5
 291.922851562 130 l 1
 450.922851562 130 l 1
 428 0 l 1
 -40 0 l 1
 -17.0771484375 130 l 1
 132.922851562 130 l 1
 266.930664062 890 l 1
 116.930664062 890 l 1
 139.853515625 1020 l 1
 607.853515625 1020 l 1
 584.930664062 890 l 1
 425.930664062 890 l 1
 367.743164062 560 l 5
 869.743164062 560 l 5
 927.930664062 890 l 1
 768.930664062 890 l 1
 791.853515625 1020 l 1
 1259.85351562 1020 l 1
 1236.93066406 890 l 1
 1086.93066406 890 l 1
 952.922851562 130 l 1
 1102.92285156 130 l 1
 1080 0 l 1
 612 0 l 1
 634.922851562 130 l 1
 793.922851562 130 l 1
 846.8203125 430 l 5
98.2978515625 790 m 1
 1220.29785156 790 l 1
 1197.37597656 660 l 1
 75.3759765625 660 l 1
 98.2978515625 790 l 1
EndSplineSet
EndChar

StartChar: ij.sc
Encoding: 1114194 -1 551
Width: 1200
Flags: HMW
LayerCount: 2
Fore
SplineSet
10 0 m 1
 32.9228515625 130 l 1
 187.922851562 130 l 1
 322.107421875 891 l 5
 177.107421875 891 l 5
 200.030273438 1021 l 5
 660.030273438 1021 l 5
 637.107421875 891 l 5
 492.107421875 891 l 5
 357.922851562 130 l 1
 512.922851562 130 l 1
 490 0 l 1
 10 0 l 1
625.864257812 124 m 1
 773.864257812 124 907.262695312 217 944.8203125 430 c 2
 1027.10742188 891 l 5
 758.107421875 891 l 5
 781.030273438 1021 l 5
 1210.03027344 1021 l 5
 1104.8203125 430 l 2
 1059.68066406 174 871.473632812 -20 605.473632812 -20 c 1
 625.864257812 124 l 1
EndSplineSet
EndChar

StartChar: lcaron.sc
Encoding: 1114199 -1 556
Width: 1200
VWidth: 0
Flags: HMW
LayerCount: 2
Fore
SplineSet
747 450 m 1
 867 1060 l 5
 1027 1060 l 5
 817 450 l 1
 747 450 l 1
EndSplineSet
Refer: 482 -1 N 1 0 0 1 0 0 2
EndChar

StartChar: ldot.sc
Encoding: 1114200 -1 557
Width: 1200
Flags: HMW
LayerCount: 2
Fore
SplineSet
823 840 m 4
 823 906 869 952 935 952 c 4
 1001 952 1047 906 1047 840 c 4
 1047 774 1005 728 939 728 c 4
 873 728 823 774 823 840 c 4
EndSplineSet
Refer: 482 -1 N 1 0 0 1 0 0 3
EndChar

StartChar: lslash.sc
Encoding: 1114201 -1 558
Width: 1200
VWidth: 0
Flags: HMW
LayerCount: 2
Fore
SplineSet
88 375 m 261
 39 497 l 261
 730 753 l 261
 779 631 l 261
 88 375 l 261
EndSplineSet
Refer: 482 -1 N 1 0 0 1 0 0 2
EndChar

StartChar: eng.sc
Encoding: 1114205 -1 562
Width: 1200
Flags: HMW
LayerCount: 2
Fore
SplineSet
958 0 m 1
 914.624023438 -246 783.416015625 -440 476.416015625 -440 c 1
 501.1015625 -300 l 1
 729.1015625 -300 767.021484375 -153 794 0 c 1
 958 0 l 1
285.16796875 880 m 5
 115.16796875 880 l 5
 139.853515625 1020 l 5
 309.853515625 1020 l 5
 285.16796875 880 l 5
1076.13867188 670 m 6
 958 0 l 1
 794 0 l 1
 913.90234375 680 l 6
 940.880859375 833 891.458007812 910 763.458007812 910 c 4
 595.458007812 910 426.774414062 753 389.216796875 540 c 6
 294 0 l 1
 130 0 l 1
 309.853515625 1020 l 5
 433.853515625 1020 l 5
 440.3515625 830 l 5
 328.612304688 650 l 5
 356.119140625 806 549.379882812 1040 816.379882812 1040 c 4
 1028.37988281 1040 1117.75195312 906 1076.13867188 670 c 6
EndSplineSet
EndChar

StartChar: oe.sc
Encoding: 1114209 -1 566
Width: 1200
Flags: HMW
LayerCount: 2
Fore
SplineSet
689.853515625 1020 m 5
 665.16796875 880 l 5
 477.16796875 880 321.590820312 803 269.926757812 510 c 4
 220.026367188 227 326.685546875 140 534.685546875 140 c 1
 510 0 l 1
 194 0 47.154296875 154 109.926757812 510 c 4
 174.462890625 876 392.853515625 1020 689.853515625 1020 c 5
1036.79589844 600 m 1
 1012.9921875 465 l 1
 762.754882812 475 l 1
 701.922851562 130 l 1
 930.922851562 130 l 1
 990.37109375 280 l 1
 1109.37109375 280 l 1
 1060 0 l 1
 510 0 l 1
 689.853515625 1020 l 5
 1199.85351562 1020 l 5
 1190.48242188 740 l 5
 1071.48242188 740 l 5
 1027.93066406 890 l 5
 835.930664062 890 l 5
 783.033203125 590 l 1
 1036.79589844 600 l 1
EndSplineSet
EndChar

StartChar: tbar.sc
Encoding: 1114219 -1 576
Width: 1200
VWidth: 0
Flags: HMW
LayerCount: 2
Fore
SplineSet
285 537 m 5
 905 537 l 1
 905 398 l 1
 285 398 l 5
 285 537 l 5
EndSplineSet
Refer: 490 -1 N 1 0 0 1 0 0 2
EndChar

StartChar: zero.alt
Encoding: 1114235 -1 592
Width: 1200
Flags: HW
LayerCount: 2
Fore
SplineSet
515 -20 m 0
 219 -20 68 154 155 650 c 0
 237 1116 475 1320 752 1320 c 0
 1029 1320 1196 1116 1114 650 c 0
 1027 154 811 -20 515 -20 c 0
729 1190 m 0
 541 1190 383 1033 315 650 c 0
 246 257 330 110 538 110 c 4
 746 110 885 257 954 650 c 0
 1022 1033 917 1190 729 1190 c 0
EndSplineSet
EndChar

StartChar: one.alt
Encoding: 1114236 -1 593
Width: 1200
Flags: HW
LayerCount: 2
Fore
SplineSet
100 0 m 1
 123 130 l 1
 513 130 l 5
 696 1170 l 5
 316 1170 l 1
 339 1300 l 1
 888 1300 l 1
 682 130 l 1
 1023 130 l 1
 1000 0 l 1
 100 0 l 1
EndSplineSet
EndChar

StartChar: germandbls.sc
Encoding: 1114237 -1 594
Width: 1200
Flags: HW
LayerCount: 2
Fore
SplineSet
-10 0 m 1
 12.9228515625 130 l 1
 142.922851562 130 l 1
 224.795898438 600 l 2
 268.172851562 846 435.379882812 1040 742.379882812 1040 c 1
 717.694335938 900 l 1
 529.694335938 900 411.774414062 753 384.795898438 600 c 2
 301.922851562 130 l 1
 442.922851562 130 l 1
 420 0 l 1
 -10 0 l 1
742.379882812 1040 m 1
 970.379882812 1040 1091.16015625 931 1147.88574219 799 c 1
 834.740234375 577 l 1
 911.181640625 542.587890625 1119.75488281 457.982421875 1084.13964844 256 c 0
 1058.57226562 111 915.649414062 -19 697.649414062 -19 c 0
 643.649414062 -19 564.413085938 -9 504.055664062 23 c 1
 577.859375 158 l 1
 623.041015625 125 665.27734375 115 703.27734375 115 c 4
 813.27734375 115 907.504882812 173 921.787109375 254 c 4
 944.119140625 380.649414062 714.840820312 469.18359375 579.451171875 547 c 1
 939.6484375 809 l 1
 916.348632812 847 830.694335938 900 717.694335938 900 c 1
 742.379882812 1040 l 1
EndSplineSet
EndChar

StartChar: uni0311
Encoding: 785 785 595
Width: 1200
VWidth: 0
Flags: HW
AnchorPoint: "Anchor-0" -604 920 mark 0
LayerCount: 2
Fore
SplineSet
-338 1060 m 261
 -480 1080 l 261
 -470 1132 -484 1210 -604 1210 c 260
 -723 1210 -738 1132 -728 1080 c 261
 -870 1060 l 261
 -880 1228 -794 1340 -604 1340 c 260
 -414 1340 -328 1228 -338 1060 c 261
EndSplineSet
EndChar
